<?xml version="1.0" encoding="UTF-8" standalone="no"?>
<!DOCTYPE svg PUBLIC "-//W3C//DTD SVG 1.1//EN"
 "http://www.w3.org/Graphics/SVG/1.1/DTD/svg11.dtd">
<!-- Generated by graphviz version 14.1.2 (0)
 -->
<!-- Pages: 1 -->
<svg width="1150pt" height="319pt"
 viewBox="0.00 0.00 1150.00 319.00" xmlns="http://www.w3.org/2000/svg" xmlns:xlink="http://www.w3.org/1999/xlink">
<g id="graph0" class="graph" transform="scale(1 1) rotate(0) translate(4 314.75)">
<polygon fill="white" stroke="none" points="-4,4 -4,-314.75 1146,-314.75 1146,4 -4,4"/>
<g id="clust1" class="cluster">
<title>cluster_groups</title>
<polygon fill="#e8f7ff" stroke="#4682b4" points="324,-227 324,-302.75 706,-302.75 706,-227 324,-227"/>
<text xml:space="preserve" text-anchor="middle" x="515" y="-285.45" font-family="Times,serif" font-size="14.00">AWS Groups</text>
</g>
<g id="clust2" class="cluster">
<title>cluster_policies</title>
<polygon fill="#f0fff0" stroke="#228b22" points="8,-117.5 8,-193.25 1134,-193.25 1134,-117.5 8,-117.5"/>
<text xml:space="preserve" text-anchor="middle" x="571" y="-175.95" font-family="Times,serif" font-size="14.00">Policies</text>
</g>
<g id="clust3" class="cluster">
<title>cluster_roles</title>
<polygon fill="#fff0f0" stroke="#b22222" points="10,-8 10,-83.75 408,-83.75 408,-8 10,-8"/>
<text xml:space="preserve" text-anchor="middle" x="209" y="-66.45" font-family="Times,serif" font-size="14.00">Roles</text>
</g>
<!-- admin -->
<g id="node1" class="node">
<title>admin</title>
<path fill="#e8f7ff" stroke="black" d="M489.88,-271C489.88,-271 344.12,-271 344.12,-271 338.12,-271 332.12,-265 332.12,-259 332.12,-259 332.12,-247 332.12,-247 332.12,-241 338.12,-235 344.12,-235 344.12,-235 489.88,-235 489.88,-235 495.88,-235 501.88,-241 501.88,-247 501.88,-247 501.88,-259 501.88,-259 501.88,-265 495.88,-271 489.88,-271"/>
<text xml:space="preserve" text-anchor="middle" x="417" y="-247.97" font-family="Arial" font-size="12.00">admin &#45; Administrator access</text>
</g>
<!-- AWSAdministratorAccess -->
<g id="node3" class="node">
<title>AWSAdministratorAccess</title>
<path fill="#e8f7ff" stroke="black" d="M155.88,-161.5C155.88,-161.5 28.12,-161.5 28.12,-161.5 22.12,-161.5 16.12,-155.5 16.12,-149.5 16.12,-149.5 16.12,-137.5 16.12,-137.5 16.12,-131.5 22.12,-125.5 28.12,-125.5 28.12,-125.5 155.88,-125.5 155.88,-125.5 161.88,-125.5 167.88,-131.5 167.88,-137.5 167.88,-137.5 167.88,-149.5 167.88,-149.5 167.88,-155.5 161.88,-161.5 155.88,-161.5"/>
<text xml:space="preserve" text-anchor="middle" x="92" y="-138.47" font-family="Arial" font-size="12.00">AWSAdministratorAccess</text>
</g>
<!-- admin&#45;&gt;AWSAdministratorAccess -->
<g id="edge1" class="edge">
<title>admin&#45;&gt;AWSAdministratorAccess</title>
<path fill="none" stroke="black" d="M331.89,-237.23C285.18,-227.63 226.79,-213.16 177,-193.25 160.06,-186.48 142.39,-176.82 127.58,-167.89"/>
<polygon fill="black" stroke="black" points="129.47,-164.94 119.12,-162.66 125.79,-170.89 129.47,-164.94"/>
<text xml:space="preserve" text-anchor="middle" x="291.18" y="-203.7" font-family="Times,serif" font-size="14.00">Attached Policy</text>
</g>
<!-- developer -->
<g id="node2" class="node">
<title>developer</title>
<path fill="#e8f7ff" stroke="black" d="M686.38,-271C686.38,-271 531.62,-271 531.62,-271 525.62,-271 519.62,-265 519.62,-259 519.62,-259 519.62,-247 519.62,-247 519.62,-241 525.62,-235 531.62,-235 531.62,-235 686.38,-235 686.38,-235 692.38,-235 698.38,-241 698.38,-247 698.38,-247 698.38,-259 698.38,-259 698.38,-265 692.38,-271 686.38,-271"/>
<text xml:space="preserve" text-anchor="middle" x="609" y="-247.97" font-family="Arial" font-size="12.00">developer &#45; Access to services</text>
</g>
<!-- AllowPassRoleS3DatabaseBackups -->
<g id="node4" class="node">
<title>AllowPassRoleS3DatabaseBackups</title>
<polygon fill="gray" stroke="#333333" stroke-width="2" points="395.75,-161.5 186.25,-161.5 186.25,-125.5 395.75,-125.5 395.75,-161.5"/>
<text xml:space="preserve" text-anchor="middle" x="291" y="-138.47" font-family="Arial" font-size="12.00">AllowPassRoleS3DatabaseBackups</text>
</g>
<!-- developer&#45;&gt;AllowPassRoleS3DatabaseBackups -->
<g id="edge2" class="edge">
<title>developer&#45;&gt;AllowPassRoleS3DatabaseBackups</title>
<path fill="none" stroke="black" d="M541.02,-234.56C530.96,-232.01 520.71,-229.42 511,-227 492.8,-222.46 487.95,-222.45 470,-217 424.74,-203.26 375,-182.65 339.47,-166.91"/>
<polygon fill="black" stroke="black" points="341.32,-163.9 330.76,-163.02 338.47,-170.29 341.32,-163.9"/>
<text xml:space="preserve" text-anchor="middle" x="513.5" y="-203.7" font-family="Times,serif" font-size="14.00">Attached Policy</text>
</g>
<!-- AWSKeyManagementServiceUser -->
<g id="node5" class="node">
<title>AWSKeyManagementServiceUser</title>
<path fill="#e8f7ff" stroke="black" d="M601.88,-161.5C601.88,-161.5 426.12,-161.5 426.12,-161.5 420.12,-161.5 414.12,-155.5 414.12,-149.5 414.12,-149.5 414.12,-137.5 414.12,-137.5 414.12,-131.5 420.12,-125.5 426.12,-125.5 426.12,-125.5 601.88,-125.5 601.88,-125.5 607.88,-125.5 613.88,-131.5 613.88,-137.5 613.88,-137.5 613.88,-149.5 613.88,-149.5 613.88,-155.5 607.88,-161.5 601.88,-161.5"/>
<text xml:space="preserve" text-anchor="middle" x="514" y="-138.47" font-family="Arial" font-size="12.00">AWSKeyManagementServiceUser</text>
</g>
<!-- developer&#45;&gt;AWSKeyManagementServiceUser -->
<g id="edge3" class="edge">
<title>developer&#45;&gt;AWSKeyManagementServiceUser</title>
<path fill="none" stroke="black" d="M591.8,-234.79C586.34,-229.19 580.34,-222.91 575,-217 561.33,-201.89 546.61,-184.43 535.05,-170.43"/>
<polygon fill="black" stroke="black" points="537.97,-168.46 528.92,-162.96 532.56,-172.91 537.97,-168.46"/>
<text xml:space="preserve" text-anchor="middle" x="618.5" y="-203.7" font-family="Times,serif" font-size="14.00">Attached Policy</text>
</g>
<!-- AmazonRDSFullAccess -->
<g id="node6" class="node">
<title>AmazonRDSFullAccess</title>
<path fill="#e8f7ff" stroke="black" d="M764.12,-161.5C764.12,-161.5 643.88,-161.5 643.88,-161.5 637.88,-161.5 631.88,-155.5 631.88,-149.5 631.88,-149.5 631.88,-137.5 631.88,-137.5 631.88,-131.5 637.88,-125.5 643.88,-125.5 643.88,-125.5 764.12,-125.5 764.12,-125.5 770.12,-125.5 776.12,-131.5 776.12,-137.5 776.12,-137.5 776.12,-149.5 776.12,-149.5 776.12,-155.5 770.12,-161.5 764.12,-161.5"/>
<text xml:space="preserve" text-anchor="middle" x="704" y="-138.47" font-family="Arial" font-size="12.00">AmazonRDSFullAccess</text>
</g>
<!-- developer&#45;&gt;AmazonRDSFullAccess -->
<g id="edge4" class="edge">
<title>developer&#45;&gt;AmazonRDSFullAccess</title>
<path fill="none" stroke="black" d="M640.57,-234.59C648.13,-229.53 655.8,-223.58 662,-217 674.33,-203.93 684.54,-186.59 691.8,-172.15"/>
<polygon fill="black" stroke="black" points="694.95,-173.69 696.12,-163.16 688.64,-170.66 694.95,-173.69"/>
<text xml:space="preserve" text-anchor="middle" x="717.03" y="-203.7" font-family="Times,serif" font-size="14.00">Attached Policy</text>
</g>
<!-- AmazonS3FullAccess -->
<g id="node7" class="node">
<title>AmazonS3FullAccess</title>
<path fill="#e8f7ff" stroke="black" d="M915.88,-161.5C915.88,-161.5 806.12,-161.5 806.12,-161.5 800.12,-161.5 794.12,-155.5 794.12,-149.5 794.12,-149.5 794.12,-137.5 794.12,-137.5 794.12,-131.5 800.12,-125.5 806.12,-125.5 806.12,-125.5 915.88,-125.5 915.88,-125.5 921.88,-125.5 927.88,-131.5 927.88,-137.5 927.88,-137.5 927.88,-149.5 927.88,-149.5 927.88,-155.5 921.88,-161.5 915.88,-161.5"/>
<text xml:space="preserve" text-anchor="middle" x="861" y="-138.47" font-family="Arial" font-size="12.00">AmazonS3FullAccess</text>
</g>
<!-- developer&#45;&gt;AmazonS3FullAccess -->
<g id="edge5" class="edge">
<title>developer&#45;&gt;AmazonS3FullAccess</title>
<path fill="none" stroke="black" d="M698.61,-238.73C720.92,-233.59 744.35,-226.57 765,-217 790.9,-205.01 816.5,-185.16 834.74,-169.26"/>
<polygon fill="black" stroke="black" points="836.81,-172.1 841.95,-162.83 832.15,-166.88 836.81,-172.1"/>
<text xml:space="preserve" text-anchor="middle" x="834.33" y="-203.7" font-family="Times,serif" font-size="14.00">Attached Policy</text>
</g>
<!-- AmazonDynamoDBFullAccess -->
<g id="node8" class="node">
<title>AmazonDynamoDBFullAccess</title>
<path fill="#e8f7ff" stroke="black" d="M1114.12,-161.5C1114.12,-161.5 957.88,-161.5 957.88,-161.5 951.88,-161.5 945.88,-155.5 945.88,-149.5 945.88,-149.5 945.88,-137.5 945.88,-137.5 945.88,-131.5 951.88,-125.5 957.88,-125.5 957.88,-125.5 1114.12,-125.5 1114.12,-125.5 1120.12,-125.5 1126.12,-131.5 1126.12,-137.5 1126.12,-137.5 1126.12,-149.5 1126.12,-149.5 1126.12,-155.5 1120.12,-161.5 1114.12,-161.5"/>
<text xml:space="preserve" text-anchor="middle" x="1036" y="-138.47" font-family="Arial" font-size="12.00">AmazonDynamoDBFullAccess</text>
</g>
<!-- developer&#45;&gt;AmazonDynamoDBFullAccess -->
<g id="edge6" class="edge">
<title>developer&#45;&gt;AmazonDynamoDBFullAccess</title>
<path fill="none" stroke="black" d="M698.76,-246.85C752.63,-242.19 822.09,-233.42 882,-217 907.68,-209.96 912.83,-204.41 937,-193.25 955,-184.94 974.64,-175.37 991.63,-166.93"/>
<polygon fill="black" stroke="black" points="993.1,-170.12 1000.49,-162.52 989.97,-163.85 993.1,-170.12"/>
<text xml:space="preserve" text-anchor="middle" x="963.8" y="-203.7" font-family="Times,serif" font-size="14.00">Attached Policy</text>
</g>
<!-- S3DatabaseBackups -->
<g id="node10" class="node">
<title>S3DatabaseBackups</title>
<polygon fill="gray" stroke="#ff6666" stroke-width="2" points="399.88,-52 182.12,-52 182.12,-16 399.88,-16 399.88,-52"/>
<text xml:space="preserve" text-anchor="middle" x="291" y="-28.98" font-family="Arial" font-size="12.00">S3DatabaseBackups &#45; S3 Full Access</text>
</g>
<!-- AllowPassRoleS3DatabaseBackups&#45;&gt;S3DatabaseBackups -->
<g id="edge7" class="edge">
<title>AllowPassRoleS3DatabaseBackups&#45;&gt;S3DatabaseBackups</title>
<path fill="none" stroke="black" stroke-dasharray="5,2" d="M291,-124.75C291,-108.33 291,-83.62 291,-64.29"/>
<polygon fill="black" stroke="black" points="294.5,-64.29 291,-54.29 287.5,-64.29 294.5,-64.29"/>
<text xml:space="preserve" text-anchor="middle" x="327" y="-94.2" font-family="Times,serif" font-size="14.00">Assume Role</text>
</g>
<!-- AWSTrustedAdvisorRole -->
<g id="node9" class="node">
<title>AWSTrustedAdvisorRole</title>
<path fill="#e8f7ff" stroke="black" d="M152.25,-52C152.25,-52 29.75,-52 29.75,-52 23.75,-52 17.75,-46 17.75,-40 17.75,-40 17.75,-28 17.75,-28 17.75,-22 23.75,-16 29.75,-16 29.75,-16 152.25,-16 152.25,-16 158.25,-16 164.25,-22 164.25,-28 164.25,-28 164.25,-40 164.25,-40 164.25,-46 158.25,-52 152.25,-52"/>
<text xml:space="preserve" text-anchor="middle" x="91" y="-28.98" font-family="Arial" font-size="12.00">AWSTrustedAdvisorRole</text>
</g>
</g>
</svg>
