<?xml version="1.0" encoding="UTF-8" standalone="no"?>
<!DOCTYPE svg PUBLIC "-//W3C//DTD SVG 1.1//EN"
 "http://www.w3.org/Graphics/SVG/1.1/DTD/svg11.dtd">
<!-- Generated by graphviz version 14.1.3 (0)
 -->
<!-- Pages: 1 -->
<svg width="84pt" height="350pt"
 viewBox="0.00 0.00 84.00 350.00" xmlns="http://www.w3.org/2000/svg" xmlns:xlink="http://www.w3.org/1999/xlink">
<g id="graph0" class="graph" transform="scale(1 1) rotate(0) translate(4 345.5)">
<polygon fill="white" stroke="none" points="-4,4 -4,-345.5 80,-345.5 80,4 -4,4"/>
<!-- session -->
<g id="node1" class="node">
<title>session</title>
<polygon fill="#e6f7ff" stroke="#add8e6" points="76,-341.5 0,-341.5 0,-302 76,-302 76,-341.5"/>
<text xml:space="preserve" text-anchor="middle" x="38" y="-324.2" font-family="Times,serif" font-size="14.00">Session</text>
<text xml:space="preserve" text-anchor="middle" x="38" y="-308.45" font-family="Times,serif" font-size="14.00">(0 fixtures)</text>
</g>
<!-- package -->
<g id="node2" class="node">
<title>package</title>
<polygon fill="#f5f0f5" stroke="#d8bfd8" points="76,-266 0,-266 0,-226.5 76,-226.5 76,-266"/>
<text xml:space="preserve" text-anchor="middle" x="38" y="-248.7" font-family="Times,serif" font-size="14.00">Package</text>
<text xml:space="preserve" text-anchor="middle" x="38" y="-232.95" font-family="Times,serif" font-size="14.00">(0 fixtures)</text>
</g>
<!-- session&#45;&gt;package -->
<g id="edge1" class="edge">
<title>session&#45;&gt;package</title>
<path fill="none" stroke="black" d="M38,-301.82C38,-294.51 38,-285.95 38,-277.81"/>
<polygon fill="black" stroke="black" points="41.5,-277.88 38,-267.88 34.5,-277.88 41.5,-277.88"/>
</g>
<!-- module -->
<g id="node3" class="node">
<title>module</title>
<polygon fill="#f0fff0" stroke="#90ee90" points="76,-190.5 0,-190.5 0,-151 76,-151 76,-190.5"/>
<text xml:space="preserve" text-anchor="middle" x="38" y="-173.2" font-family="Times,serif" font-size="14.00">Module</text>
<text xml:space="preserve" text-anchor="middle" x="38" y="-157.45" font-family="Times,serif" font-size="14.00">(0 fixtures)</text>
</g>
<!-- package&#45;&gt;module -->
<g id="edge2" class="edge">
<title>package&#45;&gt;module</title>
<path fill="none" stroke="black" d="M38,-226.32C38,-219.01 38,-210.45 38,-202.31"/>
<polygon fill="black" stroke="black" points="41.5,-202.38 38,-192.38 34.5,-202.38 41.5,-202.38"/>
</g>
<!-- class -->
<g id="node4" class="node">
<title>class</title>
<polygon fill="#fff5e6" stroke="#ffdead" points="76,-115 0,-115 0,-75.5 76,-75.5 76,-115"/>
<text xml:space="preserve" text-anchor="middle" x="38" y="-97.7" font-family="Times,serif" font-size="14.00">Class</text>
<text xml:space="preserve" text-anchor="middle" x="38" y="-81.95" font-family="Times,serif" font-size="14.00">(0 fixtures)</text>
</g>
<!-- module&#45;&gt;class -->
<g id="edge3" class="edge">
<title>module&#45;&gt;class</title>
<path fill="none" stroke="black" d="M38,-150.82C38,-143.51 38,-134.95 38,-126.81"/>
<polygon fill="black" stroke="black" points="41.5,-126.88 38,-116.88 34.5,-126.88 41.5,-126.88"/>
</g>
<!-- function -->
<g id="node5" class="node">
<title>function</title>
<polygon fill="#fff0f5" stroke="#ffb6c1" points="76,-39.5 0,-39.5 0,0 76,0 76,-39.5"/>
<text xml:space="preserve" text-anchor="middle" x="38" y="-22.2" font-family="Times,serif" font-size="14.00">Function</text>
<text xml:space="preserve" text-anchor="middle" x="38" y="-6.45" font-family="Times,serif" font-size="14.00">(0 fixtures)</text>
</g>
<!-- class&#45;&gt;function -->
<g id="edge4" class="edge">
<title>class&#45;&gt;function</title>
<path fill="none" stroke="black" d="M38,-75.32C38,-68.01 38,-59.45 38,-51.31"/>
<polygon fill="black" stroke="black" points="41.5,-51.38 38,-41.38 34.5,-51.38 41.5,-51.38"/>
</g>
</g>
</svg>
