<?xml version="1.0" encoding="UTF-8" standalone="no"?>
<!DOCTYPE svg PUBLIC "-//W3C//DTD SVG 1.1//EN"
 "http://www.w3.org/Graphics/SVG/1.1/DTD/svg11.dtd">
<!-- Generated by graphviz version 14.1.3 (0)
 -->
<!-- Pages: 1 -->
<svg width="2859pt" height="267pt"
 viewBox="0.00 0.00 2859.00 267.00" xmlns="http://www.w3.org/2000/svg" xmlns:xlink="http://www.w3.org/1999/xlink">
<g id="graph0" class="graph" transform="scale(1 1) rotate(0) translate(4 262.61)">
<polygon fill="white" stroke="none" points="-4,4 -4,-262.61 2855,-262.61 2855,4 -4,4"/>
<g id="clust1" class="cluster">
<title>cluster_hierarchy</title>
<polygon fill="#f5f5f5" stroke="lightgrey" points="8,-8 8,-227.75 158,-227.75 158,-8 8,-8"/>
<text xml:space="preserve" text-anchor="middle" x="83" y="-210.45" font-family="Times,serif" font-size="14.00">Fixture Scope Hierarchy</text>
</g>
<g id="clust2" class="cluster">
<title>cluster_session</title>
<polygon fill="#e6f7ff" stroke="#add8e6" points="2137,-80 2137,-227.75 2299,-227.75 2299,-80 2137,-80"/>
<text xml:space="preserve" text-anchor="middle" x="2218" y="-210.45" font-family="Times,serif" font-size="14.00">Session Fixtures</text>
</g>
<g id="clust3" class="cluster">
<title>cluster_module</title>
<polygon fill="#f0fff0" stroke="#90ee90" points="1341,-8 1341,-227.75 2129,-227.75 2129,-8 1341,-8"/>
<text xml:space="preserve" text-anchor="middle" x="1735" y="-210.45" font-family="Times,serif" font-size="14.00">Module Fixtures</text>
</g>
<g id="clust4" class="cluster">
<title>cluster_function</title>
<polygon fill="#fff0f5" stroke="#ffb6c1" points="166,-80 166,-227.75 1265,-227.75 1265,-80 166,-80"/>
<text xml:space="preserve" text-anchor="middle" x="715.5" y="-210.45" font-family="Times,serif" font-size="14.00">Function Fixtures</text>
</g>
<g id="clust5" class="cluster">
<title>cluster_test_data</title>
<polygon fill="#fff8dc" stroke="#ffa500" points="2307,-152 2307,-227.75 2843,-227.75 2843,-152 2307,-152"/>
<text xml:space="preserve" text-anchor="middle" x="2575" y="-210.45" font-family="Times,serif" font-size="14.00">Test Data Fixtures</text>
</g>
<!-- SessionScope -->
<g id="node1" class="node">
<title>SessionScope</title>
<polygon fill="none" stroke="black" points="130,-196 36,-196 36,-160 130,-160 130,-196"/>
<text xml:space="preserve" text-anchor="middle" x="83" y="-172.57" font-family="Times,serif" font-size="14.00">Session Scope</text>
</g>
<!-- ModuleScope -->
<g id="node2" class="node">
<title>ModuleScope</title>
<polygon fill="none" stroke="black" points="130.38,-124 35.62,-124 35.62,-88 130.38,-88 130.38,-124"/>
<text xml:space="preserve" text-anchor="middle" x="83" y="-100.58" font-family="Times,serif" font-size="14.00">Module Scope</text>
</g>
<!-- SessionScope&#45;&gt;ModuleScope -->
<g id="edge1" class="edge">
<title>SessionScope&#45;&gt;ModuleScope</title>
<path fill="none" stroke="black" d="M83,-159.7C83,-152.41 83,-143.73 83,-135.54"/>
<polygon fill="black" stroke="black" points="86.5,-135.62 83,-125.62 79.5,-135.62 86.5,-135.62"/>
</g>
<!-- setup_test_env -->
<g id="node4" class="node">
<title>setup_test_env</title>
<polygon fill="none" stroke="black" points="2290.5,-196 2145.5,-196 2145.5,-160 2290.5,-160 2290.5,-196"/>
<text xml:space="preserve" text-anchor="middle" x="2218" y="-172.57" font-family="Times,serif" font-size="14.00">setup_test_environment</text>
</g>
<!-- SessionScope&#45;&gt;setup_test_env -->
<g id="edge18" class="edge">
<title>SessionScope&#45;&gt;setup_test_env</title>
<path fill="none" stroke="black" stroke-dasharray="5,2" d="M99.45,-196.18C115.74,-212.72 142.34,-236 171,-245.75 222.36,-263.23 2072.37,-262.42 2124,-245.75 2149.83,-237.41 2174.54,-219.04 2192.14,-203.53"/>
<polygon fill="black" stroke="black" points="2194.03,-206.55 2199.07,-197.23 2189.32,-201.37 2194.03,-206.55"/>
</g>
<!-- FunctionScope -->
<g id="node3" class="node">
<title>FunctionScope</title>
<polygon fill="none" stroke="black" points="133.75,-52 32.25,-52 32.25,-16 133.75,-16 133.75,-52"/>
<text xml:space="preserve" text-anchor="middle" x="83" y="-28.57" font-family="Times,serif" font-size="14.00">Function Scope</text>
</g>
<!-- ModuleScope&#45;&gt;FunctionScope -->
<g id="edge2" class="edge">
<title>ModuleScope&#45;&gt;FunctionScope</title>
<path fill="none" stroke="black" d="M83,-87.7C83,-80.41 83,-71.73 83,-63.54"/>
<polygon fill="black" stroke="black" points="86.5,-63.62 83,-53.62 79.5,-63.62 86.5,-63.62"/>
</g>
<!-- truncate_tables -->
<g id="node6" class="node">
<title>truncate_tables</title>
<polygon fill="none" stroke="black" points="1763.88,-196 1666.12,-196 1666.12,-160 1763.88,-160 1763.88,-196"/>
<text xml:space="preserve" text-anchor="middle" x="1715" y="-172.57" font-family="Times,serif" font-size="14.00">truncate_tables</text>
</g>
<!-- ModuleScope&#45;&gt;truncate_tables -->
<g id="edge19" class="edge">
<title>ModuleScope&#45;&gt;truncate_tables</title>
<path fill="none" stroke="black" stroke-dasharray="5,2" d="M130.8,-118.78C141.04,-120.88 151.83,-122.79 162,-124 406.35,-153.12 1023.12,-142 1269,-152 1406.98,-157.61 1568.79,-167.51 1654.53,-173.02"/>
<polygon fill="black" stroke="black" points="1654.14,-176.5 1664.35,-173.65 1654.59,-169.52 1654.14,-176.5"/>
</g>
<!-- api_clients -->
<g id="node8" class="node">
<title>api_clients</title>
<path fill="none" stroke="black" d="M1534.38,-124C1534.38,-124 1433.62,-124 1433.62,-124 1427.62,-124 1421.62,-118 1421.62,-112 1421.62,-112 1421.62,-100 1421.62,-100 1421.62,-94 1427.62,-88 1433.62,-88 1433.62,-88 1534.38,-88 1534.38,-88 1540.38,-88 1546.38,-94 1546.38,-100 1546.38,-100 1546.38,-112 1546.38,-112 1546.38,-118 1540.38,-124 1534.38,-124"/>
<text xml:space="preserve" text-anchor="middle" x="1484" y="-100.58" font-family="Times,serif" font-size="14.00">API Client Fixtures</text>
</g>
<!-- ModuleScope&#45;&gt;api_clients -->
<g id="edge20" class="edge">
<title>ModuleScope&#45;&gt;api_clients</title>
<path fill="none" stroke="black" stroke-dasharray="5,2" d="M124.26,-124.36C138.74,-129.9 155.31,-135.24 171,-138 297.61,-160.3 1200.1,-150.98 1328,-138 1355.08,-135.25 1384.39,-129.89 1410.23,-124.32"/>
<polygon fill="black" stroke="black" points="1410.96,-127.74 1419.97,-122.17 1409.45,-120.91 1410.96,-127.74"/>
</g>
<!-- app_clients -->
<g id="node12" class="node">
<title>app_clients</title>
<path fill="none" stroke="black" d="M1990.75,-124C1990.75,-124 1889.25,-124 1889.25,-124 1883.25,-124 1877.25,-118 1877.25,-112 1877.25,-112 1877.25,-100 1877.25,-100 1877.25,-94 1883.25,-88 1889.25,-88 1889.25,-88 1990.75,-88 1990.75,-88 1996.75,-88 2002.75,-94 2002.75,-100 2002.75,-100 2002.75,-112 2002.75,-112 2002.75,-118 1996.75,-124 1990.75,-124"/>
<text xml:space="preserve" text-anchor="middle" x="1940" y="-100.58" font-family="Times,serif" font-size="14.00">App Client Fixtures</text>
</g>
<!-- ModuleScope&#45;&gt;app_clients -->
<g id="edge21" class="edge">
<title>ModuleScope&#45;&gt;app_clients</title>
<path fill="none" stroke="black" stroke-dasharray="5,2" d="M124.26,-124.36C138.74,-129.9 155.31,-135.24 171,-138 259.25,-153.55 1694.85,-147.05 1784,-138 1810.96,-135.26 1840.13,-129.93 1865.88,-124.4"/>
<polygon fill="black" stroke="black" points="1866.58,-127.83 1875.59,-122.26 1865.07,-120.99 1866.58,-127.83"/>
</g>
<!-- other_mod -->
<g id="node16" class="node">
<title>other_mod</title>
<path fill="none" stroke="black" d="M2108.62,-196C2108.62,-196 1991.38,-196 1991.38,-196 1985.38,-196 1979.38,-190 1979.38,-184 1979.38,-184 1979.38,-172 1979.38,-172 1979.38,-166 1985.38,-160 1991.38,-160 1991.38,-160 2108.62,-160 2108.62,-160 2114.62,-160 2120.62,-166 2120.62,-172 2120.62,-172 2120.62,-184 2120.62,-184 2120.62,-190 2114.62,-196 2108.62,-196"/>
<text xml:space="preserve" text-anchor="middle" x="2050" y="-172.57" font-family="Times,serif" font-size="14.00">Other Module Fixtures</text>
</g>
<!-- ModuleScope&#45;&gt;other_mod -->
<g id="edge22" class="edge">
<title>ModuleScope&#45;&gt;other_mod</title>
<path fill="none" stroke="black" stroke-dasharray="5,2" d="M130.8,-118.84C141.03,-120.94 151.83,-122.83 162,-124 517.7,-164.97 1415.46,-132.78 1773,-152 1838.5,-155.52 1912.48,-162.34 1967.5,-167.97"/>
<polygon fill="black" stroke="black" points="1967.13,-171.45 1977.43,-169 1967.85,-164.49 1967.13,-171.45"/>
</g>
<!-- func_api -->
<g id="node18" class="node">
<title>func_api</title>
<path fill="none" stroke="black" d="M522.88,-196C522.88,-196 413.12,-196 413.12,-196 407.12,-196 401.12,-190 401.12,-184 401.12,-184 401.12,-172 401.12,-172 401.12,-166 407.12,-160 413.12,-160 413.12,-160 522.88,-160 522.88,-160 528.88,-160 534.88,-166 534.88,-172 534.88,-172 534.88,-184 534.88,-184 534.88,-190 528.88,-196 522.88,-196"/>
<text xml:space="preserve" text-anchor="middle" x="468" y="-172.57" font-family="Times,serif" font-size="14.00">API Function Clients</text>
</g>
<!-- FunctionScope&#45;&gt;func_api -->
<g id="edge23" class="edge">
<title>FunctionScope&#45;&gt;func_api</title>
<path fill="none" stroke="black" stroke-dasharray="5,2" d="M134.18,-34.99C356.14,-35.21 1226.22,-38.68 1266,-80 1279.56,-94.09 1279.36,-109.72 1266,-124 1253.79,-137.05 745.11,-163.39 546.39,-173.2"/>
<polygon fill="black" stroke="black" points="546.5,-169.69 536.68,-173.68 546.84,-176.68 546.5,-169.69"/>
</g>
<!-- func_app -->
<g id="node22" class="node">
<title>func_app</title>
<path fill="none" stroke="black" d="M1074.25,-196C1074.25,-196 963.75,-196 963.75,-196 957.75,-196 951.75,-190 951.75,-184 951.75,-184 951.75,-172 951.75,-172 951.75,-166 957.75,-160 963.75,-160 963.75,-160 1074.25,-160 1074.25,-160 1080.25,-160 1086.25,-166 1086.25,-172 1086.25,-172 1086.25,-184 1086.25,-184 1086.25,-190 1080.25,-196 1074.25,-196"/>
<text xml:space="preserve" text-anchor="middle" x="1019" y="-172.57" font-family="Times,serif" font-size="14.00">App Function Clients</text>
</g>
<!-- FunctionScope&#45;&gt;func_app -->
<g id="edge24" class="edge">
<title>FunctionScope&#45;&gt;func_app</title>
<path fill="none" stroke="black" stroke-dasharray="5,2" d="M134.24,-34.96C358.55,-35.03 1244.53,-37.98 1285,-80 1345.11,-142.4 1196.33,-164.86 1097.82,-172.79"/>
<polygon fill="black" stroke="black" points="1097.59,-169.3 1087.88,-173.55 1098.12,-176.28 1097.59,-169.3"/>
</g>
<!-- test_env -->
<g id="node5" class="node">
<title>test_env</title>
<polygon fill="none" stroke="black" points="2272.88,-124 2163.12,-124 2163.12,-88 2272.88,-88 2272.88,-124"/>
<text xml:space="preserve" text-anchor="middle" x="2218" y="-100.58" font-family="Times,serif" font-size="14.00">TestEnvironment</text>
</g>
<!-- setup_test_env&#45;&gt;test_env -->
<g id="edge3" class="edge">
<title>setup_test_env&#45;&gt;test_env</title>
<path fill="none" stroke="black" d="M2218,-159.7C2218,-152.41 2218,-143.73 2218,-135.54"/>
<polygon fill="black" stroke="black" points="2221.5,-135.62 2218,-125.62 2214.5,-135.62 2221.5,-135.62"/>
</g>
<!-- insert_users_for_login -->
<g id="node7" class="node">
<title>insert_users_for_login</title>
<polygon fill="none" stroke="black" points="1783.75,-124 1646.25,-124 1646.25,-88 1783.75,-88 1783.75,-124"/>
<text xml:space="preserve" text-anchor="middle" x="1715" y="-100.58" font-family="Times,serif" font-size="14.00">insert_users_for_login</text>
</g>
<!-- truncate_tables&#45;&gt;insert_users_for_login -->
<g id="edge4" class="edge">
<title>truncate_tables&#45;&gt;insert_users_for_login</title>
<path fill="none" stroke="black" d="M1715,-159.7C1715,-152.41 1715,-143.73 1715,-135.54"/>
<polygon fill="black" stroke="black" points="1718.5,-135.62 1715,-125.62 1711.5,-135.62 1718.5,-135.62"/>
</g>
<!-- test_api_logged_in -->
<g id="node10" class="node">
<title>test_api_logged_in</title>
<polygon fill="none" stroke="black" points="1543.38,-52 1424.62,-52 1424.62,-16 1543.38,-16 1543.38,-52"/>
<text xml:space="preserve" text-anchor="middle" x="1484" y="-28.57" font-family="Times,serif" font-size="14.00">test_api_logged_in</text>
</g>
<!-- insert_users_for_login&#45;&gt;test_api_logged_in -->
<g id="edge25" class="edge">
<title>insert_users_for_login&#45;&gt;test_api_logged_in</title>
<path fill="none" stroke="black" d="M1657.3,-87.52C1625.35,-77.83 1585.44,-65.74 1551.98,-55.6"/>
<polygon fill="black" stroke="black" points="1553.39,-52.37 1542.81,-52.82 1551.36,-59.07 1553.39,-52.37"/>
</g>
<!-- test_api_logged_in_admin -->
<g id="node11" class="node">
<title>test_api_logged_in_admin</title>
<polygon fill="none" stroke="black" points="1721,-52 1561,-52 1561,-16 1721,-16 1721,-52"/>
<text xml:space="preserve" text-anchor="middle" x="1641" y="-28.57" font-family="Times,serif" font-size="14.00">test_api_logged_in_admin</text>
</g>
<!-- insert_users_for_login&#45;&gt;test_api_logged_in_admin -->
<g id="edge26" class="edge">
<title>insert_users_for_login&#45;&gt;test_api_logged_in_admin</title>
<path fill="none" stroke="black" d="M1696.71,-87.7C1687.9,-79.37 1677.18,-69.22 1667.5,-60.07"/>
<polygon fill="black" stroke="black" points="1670.11,-57.72 1660.44,-53.39 1665.3,-62.8 1670.11,-57.72"/>
</g>
<!-- test_app_logged_in -->
<g id="node14" class="node">
<title>test_app_logged_in</title>
<polygon fill="none" stroke="black" points="1860.88,-52 1739.12,-52 1739.12,-16 1860.88,-16 1860.88,-52"/>
<text xml:space="preserve" text-anchor="middle" x="1800" y="-28.57" font-family="Times,serif" font-size="14.00">test_app_logged_in</text>
</g>
<!-- insert_users_for_login&#45;&gt;test_app_logged_in -->
<g id="edge27" class="edge">
<title>insert_users_for_login&#45;&gt;test_app_logged_in</title>
<path fill="none" stroke="black" d="M1736.01,-87.7C1746.33,-79.2 1758.94,-68.81 1770.23,-59.51"/>
<polygon fill="black" stroke="black" points="1772.27,-62.37 1777.77,-53.31 1767.82,-56.96 1772.27,-62.37"/>
</g>
<!-- test_app_logged_in_admin -->
<g id="node15" class="node">
<title>test_app_logged_in_admin</title>
<polygon fill="none" stroke="black" points="2041.5,-52 1878.5,-52 1878.5,-16 2041.5,-16 2041.5,-52"/>
<text xml:space="preserve" text-anchor="middle" x="1960" y="-28.57" font-family="Times,serif" font-size="14.00">test_app_logged_in_admin</text>
</g>
<!-- insert_users_for_login&#45;&gt;test_app_logged_in_admin -->
<g id="edge28" class="edge">
<title>insert_users_for_login&#45;&gt;test_app_logged_in_admin</title>
<path fill="none" stroke="black" d="M1776.19,-87.52C1810.23,-77.79 1852.78,-65.64 1888.36,-55.47"/>
<polygon fill="black" stroke="black" points="1889.06,-58.91 1897.71,-52.8 1887.13,-52.18 1889.06,-58.91"/>
</g>
<!-- test_api -->
<g id="node9" class="node">
<title>test_api</title>
<polygon fill="none" stroke="black" points="1407,-52 1349,-52 1349,-16 1407,-16 1407,-52"/>
<text xml:space="preserve" text-anchor="middle" x="1378" y="-28.57" font-family="Times,serif" font-size="14.00">test_api</text>
</g>
<!-- api_clients&#45;&gt;test_api -->
<g id="edge5" class="edge">
<title>api_clients&#45;&gt;test_api</title>
<path fill="none" stroke="black" stroke-dasharray="1,5" d="M1457.53,-87.52C1444.27,-78.76 1428.04,-68.04 1413.7,-58.58"/>
<polygon fill="black" stroke="black" points="1415.67,-55.68 1405.4,-53.09 1411.82,-61.53 1415.67,-55.68"/>
</g>
<!-- api_clients&#45;&gt;test_api_logged_in -->
<g id="edge6" class="edge">
<title>api_clients&#45;&gt;test_api_logged_in</title>
<path fill="none" stroke="black" stroke-dasharray="1,5" d="M1484,-87.7C1484,-80.41 1484,-71.73 1484,-63.54"/>
<polygon fill="black" stroke="black" points="1487.5,-63.62 1484,-53.62 1480.5,-63.62 1487.5,-63.62"/>
</g>
<!-- api_clients&#45;&gt;test_api_logged_in_admin -->
<g id="edge7" class="edge">
<title>api_clients&#45;&gt;test_api_logged_in_admin</title>
<path fill="none" stroke="black" stroke-dasharray="1,5" d="M1523.21,-87.52C1543.9,-78.29 1569.48,-66.89 1591.52,-57.06"/>
<polygon fill="black" stroke="black" points="1592.92,-60.27 1600.63,-53 1590.07,-53.87 1592.92,-60.27"/>
</g>
<!-- test_app -->
<g id="node13" class="node">
<title>test_app</title>
<polygon fill="none" stroke="black" points="2120.5,-52 2059.5,-52 2059.5,-16 2120.5,-16 2120.5,-52"/>
<text xml:space="preserve" text-anchor="middle" x="2090" y="-28.57" font-family="Times,serif" font-size="14.00">test_app</text>
</g>
<!-- app_clients&#45;&gt;test_app -->
<g id="edge8" class="edge">
<title>app_clients&#45;&gt;test_app</title>
<path fill="none" stroke="black" stroke-dasharray="1,5" d="M1977.46,-87.52C1999.19,-77.38 2026.57,-64.6 2048.89,-54.18"/>
<polygon fill="black" stroke="black" points="2050.12,-57.48 2057.7,-50.07 2047.16,-51.13 2050.12,-57.48"/>
</g>
<!-- app_clients&#45;&gt;test_app_logged_in -->
<g id="edge9" class="edge">
<title>app_clients&#45;&gt;test_app_logged_in</title>
<path fill="none" stroke="black" stroke-dasharray="1,5" d="M1905.03,-87.52C1886.77,-78.39 1864.22,-67.11 1844.71,-57.35"/>
<polygon fill="black" stroke="black" points="1846.38,-54.28 1835.87,-52.94 1843.25,-60.54 1846.38,-54.28"/>
</g>
<!-- app_clients&#45;&gt;test_app_logged_in_admin -->
<g id="edge10" class="edge">
<title>app_clients&#45;&gt;test_app_logged_in_admin</title>
<path fill="none" stroke="black" stroke-dasharray="1,5" d="M1944.94,-87.7C1947.08,-80.24 1949.62,-71.32 1952.01,-62.97"/>
<polygon fill="black" stroke="black" points="1955.32,-64.14 1954.7,-53.56 1948.58,-62.21 1955.32,-64.14"/>
</g>
<!-- test_jobstore -->
<g id="node17" class="node">
<title>test_jobstore</title>
<polygon fill="none" stroke="black" points="2106.88,-124 2021.12,-124 2021.12,-88 2106.88,-88 2106.88,-124"/>
<text xml:space="preserve" text-anchor="middle" x="2064" y="-100.58" font-family="Times,serif" font-size="14.00">test_jobstore</text>
</g>
<!-- other_mod&#45;&gt;test_jobstore -->
<g id="edge11" class="edge">
<title>other_mod&#45;&gt;test_jobstore</title>
<path fill="none" stroke="black" stroke-dasharray="1,5" d="M2053.46,-159.7C2054.94,-152.32 2056.7,-143.52 2058.35,-135.25"/>
<polygon fill="black" stroke="black" points="2061.75,-136.08 2060.28,-125.59 2054.89,-134.71 2061.75,-136.08"/>
</g>
<!-- test_api_function -->
<g id="node19" class="node">
<title>test_api_function</title>
<polygon fill="none" stroke="black" points="701.88,-124 592.12,-124 592.12,-88 701.88,-88 701.88,-124"/>
<text xml:space="preserve" text-anchor="middle" x="647" y="-100.58" font-family="Times,serif" font-size="14.00">test_api_function</text>
</g>
<!-- func_api&#45;&gt;test_api_function -->
<g id="edge12" class="edge">
<title>func_api&#45;&gt;test_api_function</title>
<path fill="none" stroke="black" stroke-dasharray="1,5" d="M512.71,-159.52C536.72,-150.13 566.52,-138.47 591.95,-128.53"/>
<polygon fill="black" stroke="black" points="593.1,-131.83 601.14,-124.93 590.55,-125.32 593.1,-131.83"/>
</g>
<!-- test_api_logged_in_function -->
<g id="node20" class="node">
<title>test_api_logged_in_function</title>
<polygon fill="none" stroke="black" points="344.25,-124 173.75,-124 173.75,-88 344.25,-88 344.25,-124"/>
<text xml:space="preserve" text-anchor="middle" x="259" y="-100.58" font-family="Times,serif" font-size="14.00">test_api_logged_in_function</text>
</g>
<!-- func_api&#45;&gt;test_api_logged_in_function -->
<g id="edge13" class="edge">
<title>func_api&#45;&gt;test_api_logged_in_function</title>
<path fill="none" stroke="black" stroke-dasharray="1,5" d="M415.8,-159.52C387.26,-149.96 351.72,-138.05 321.69,-128"/>
<polygon fill="black" stroke="black" points="322.93,-124.72 312.33,-124.86 320.7,-131.36 322.93,-124.72"/>
</g>
<!-- test_api_logged_in_admin_function -->
<g id="node21" class="node">
<title>test_api_logged_in_admin_function</title>
<polygon fill="none" stroke="black" points="573.88,-124 362.12,-124 362.12,-88 573.88,-88 573.88,-124"/>
<text xml:space="preserve" text-anchor="middle" x="468" y="-100.58" font-family="Times,serif" font-size="14.00">test_api_logged_in_admin_function</text>
</g>
<!-- func_api&#45;&gt;test_api_logged_in_admin_function -->
<g id="edge14" class="edge">
<title>func_api&#45;&gt;test_api_logged_in_admin_function</title>
<path fill="none" stroke="black" stroke-dasharray="1,5" d="M468,-159.7C468,-152.41 468,-143.73 468,-135.54"/>
<polygon fill="black" stroke="black" points="471.5,-135.62 468,-125.62 464.5,-135.62 471.5,-135.62"/>
</g>
<!-- test_app_function -->
<g id="node23" class="node">
<title>test_app_function</title>
<polygon fill="none" stroke="black" points="1257.38,-124 1144.62,-124 1144.62,-88 1257.38,-88 1257.38,-124"/>
<text xml:space="preserve" text-anchor="middle" x="1201" y="-100.58" font-family="Times,serif" font-size="14.00">test_app_function</text>
</g>
<!-- func_app&#45;&gt;test_app_function -->
<g id="edge15" class="edge">
<title>func_app&#45;&gt;test_app_function</title>
<path fill="none" stroke="black" stroke-dasharray="1,5" d="M1064.46,-159.52C1088.98,-150.08 1119.45,-138.37 1145.38,-128.39"/>
<polygon fill="black" stroke="black" points="1146.32,-131.78 1154.39,-124.93 1143.8,-125.25 1146.32,-131.78"/>
</g>
<!-- test_app_logged_in_function -->
<g id="node24" class="node">
<title>test_app_logged_in_function</title>
<polygon fill="none" stroke="black" points="893.75,-124 720.25,-124 720.25,-88 893.75,-88 893.75,-124"/>
<text xml:space="preserve" text-anchor="middle" x="807" y="-100.58" font-family="Times,serif" font-size="14.00">test_app_logged_in_function</text>
</g>
<!-- func_app&#45;&gt;test_app_logged_in_function -->
<g id="edge16" class="edge">
<title>func_app&#45;&gt;test_app_logged_in_function</title>
<path fill="none" stroke="black" stroke-dasharray="1,5" d="M966.05,-159.52C936.98,-149.92 900.73,-137.95 870.19,-127.86"/>
<polygon fill="black" stroke="black" points="871.67,-124.67 861.08,-124.86 869.48,-131.32 871.67,-124.67"/>
</g>
<!-- test_app_logged_in_admin_function -->
<g id="node25" class="node">
<title>test_app_logged_in_admin_function</title>
<polygon fill="none" stroke="black" points="1126.38,-124 911.62,-124 911.62,-88 1126.38,-88 1126.38,-124"/>
<text xml:space="preserve" text-anchor="middle" x="1019" y="-100.58" font-family="Times,serif" font-size="14.00">test_app_logged_in_admin_function</text>
</g>
<!-- func_app&#45;&gt;test_app_logged_in_admin_function -->
<g id="edge17" class="edge">
<title>func_app&#45;&gt;test_app_logged_in_admin_function</title>
<path fill="none" stroke="black" stroke-dasharray="1,5" d="M1019,-159.7C1019,-152.41 1019,-143.73 1019,-135.54"/>
<polygon fill="black" stroke="black" points="1022.5,-135.62 1019,-125.62 1015.5,-135.62 1022.5,-135.62"/>
</g>
<!-- insert_testing_data -->
<g id="node26" class="node">
<title>insert_testing_data</title>
<polygon fill="none" stroke="black" points="2433,-196 2315,-196 2315,-160 2433,-160 2433,-196"/>
<text xml:space="preserve" text-anchor="middle" x="2374" y="-172.57" font-family="Times,serif" font-size="14.00">insert_testing_data</text>
</g>
<!-- insert_jobs_in_test_scheduler -->
<g id="node27" class="node">
<title>insert_jobs_in_test_scheduler</title>
<polygon fill="none" stroke="black" points="2628.62,-196 2451.38,-196 2451.38,-160 2628.62,-160 2628.62,-196"/>
<text xml:space="preserve" text-anchor="middle" x="2540" y="-172.57" font-family="Times,serif" font-size="14.00">insert_jobs_in_test_scheduler</text>
</g>
<!-- test_user -->
<g id="node28" class="node">
<title>test_user</title>
<polygon fill="none" stroke="black" points="2711,-196 2647,-196 2647,-160 2711,-160 2711,-196"/>
<text xml:space="preserve" text-anchor="middle" x="2679" y="-172.57" font-family="Times,serif" font-size="14.00">test_user</text>
</g>
<!-- test_admin_user -->
<g id="node29" class="node">
<title>test_admin_user</title>
<polygon fill="none" stroke="black" points="2834.62,-196 2729.38,-196 2729.38,-160 2834.62,-160 2834.62,-196"/>
<text xml:space="preserve" text-anchor="middle" x="2782" y="-172.57" font-family="Times,serif" font-size="14.00">test_admin_user</text>
</g>
</g>
</svg>
