<?xml version="1.0" encoding="UTF-8" standalone="no"?>
<!DOCTYPE svg PUBLIC "-//W3C//DTD SVG 1.1//EN"
 "http://www.w3.org/Graphics/SVG/1.1/DTD/svg11.dtd">
<!-- Generated by graphviz version 15.1.1 (20260805.0921)
 -->
<!-- Pages: 1 -->
<svg width="92pt" height="357pt"
 viewBox="0.00 0.00 92.00 357.00" xmlns="http://www.w3.org/2000/svg" xmlns:xlink="http://www.w3.org/1999/xlink">
<g id="graph0" class="graph" transform="scale(1 1) rotate(0) translate(4 353)">
<polygon fill="white" stroke="none" points="-4,4 -4,-353 87.5,-353 87.5,4 -4,4"/>
<!-- session -->
<g id="node1" class="node">
<title>session</title>
<polygon fill="#e6f7ff" stroke="#add8e6" points="80.12,-349 3.38,-349 3.38,-308 80.12,-308 80.12,-349"/>
<text xml:space="preserve" text-anchor="middle" x="41.75" y="-331.7" font-family="Times,serif" font-size="14.00">Session</text>
<text xml:space="preserve" text-anchor="middle" x="41.75" y="-315.2" font-family="Times,serif" font-size="14.00">(3 fixtures)</text>
</g>
<!-- package -->
<g id="node2" class="node">
<title>package</title>
<polygon fill="#f5f0f5" stroke="#d8bfd8" points="80.12,-272 3.38,-272 3.38,-231 80.12,-231 80.12,-272"/>
<text xml:space="preserve" text-anchor="middle" x="41.75" y="-254.7" font-family="Times,serif" font-size="14.00">Package</text>
<text xml:space="preserve" text-anchor="middle" x="41.75" y="-238.2" font-family="Times,serif" font-size="14.00">(0 fixtures)</text>
</g>
<!-- session&#45;&gt;package -->
<g id="edge1" class="edge">
<title>session&#45;&gt;package</title>
<path fill="none" stroke="black" d="M41.75,-307.79C41.75,-300.45 41.75,-291.91 41.75,-283.78"/>
<polygon fill="black" stroke="black" points="45.25,-283.85 41.75,-273.85 38.25,-283.85 45.25,-283.85"/>
</g>
<!-- module -->
<g id="node3" class="node">
<title>module</title>
<polygon fill="#f0fff0" stroke="#90ee90" points="80.12,-195 3.38,-195 3.38,-154 80.12,-154 80.12,-195"/>
<text xml:space="preserve" text-anchor="middle" x="41.75" y="-177.7" font-family="Times,serif" font-size="14.00">Module</text>
<text xml:space="preserve" text-anchor="middle" x="41.75" y="-161.2" font-family="Times,serif" font-size="14.00">(5 fixtures)</text>
</g>
<!-- package&#45;&gt;module -->
<g id="edge2" class="edge">
<title>package&#45;&gt;module</title>
<path fill="none" stroke="black" d="M41.75,-230.79C41.75,-223.45 41.75,-214.91 41.75,-206.78"/>
<polygon fill="black" stroke="black" points="45.25,-206.85 41.75,-196.85 38.25,-206.85 45.25,-206.85"/>
</g>
<!-- class -->
<g id="node4" class="node">
<title>class</title>
<polygon fill="#fff5e6" stroke="#ffdead" points="80.12,-118 3.38,-118 3.38,-77 80.12,-77 80.12,-118"/>
<text xml:space="preserve" text-anchor="middle" x="41.75" y="-100.7" font-family="Times,serif" font-size="14.00">Class</text>
<text xml:space="preserve" text-anchor="middle" x="41.75" y="-84.2" font-family="Times,serif" font-size="14.00">(0 fixtures)</text>
</g>
<!-- module&#45;&gt;class -->
<g id="edge3" class="edge">
<title>module&#45;&gt;class</title>
<path fill="none" stroke="black" d="M41.75,-153.79C41.75,-146.45 41.75,-137.91 41.75,-129.78"/>
<polygon fill="black" stroke="black" points="45.25,-129.85 41.75,-119.85 38.25,-129.85 45.25,-129.85"/>
</g>
<!-- function -->
<g id="node5" class="node">
<title>function</title>
<polygon fill="#fff0f5" stroke="#ffb6c1" points="83.5,-41 0,-41 0,0 83.5,0 83.5,-41"/>
<text xml:space="preserve" text-anchor="middle" x="41.75" y="-23.7" font-family="Times,serif" font-size="14.00">Function</text>
<text xml:space="preserve" text-anchor="middle" x="41.75" y="-7.2" font-family="Times,serif" font-size="14.00">(54 fixtures)</text>
</g>
<!-- class&#45;&gt;function -->
<g id="edge4" class="edge">
<title>class&#45;&gt;function</title>
<path fill="none" stroke="black" d="M41.75,-76.79C41.75,-69.45 41.75,-60.91 41.75,-52.78"/>
<polygon fill="black" stroke="black" points="45.25,-52.85 41.75,-42.85 38.25,-52.85 45.25,-52.85"/>
</g>
</g>
</svg>
