<?xml version="1.0" encoding="UTF-8" standalone="no"?>
<!DOCTYPE svg PUBLIC "-//W3C//DTD SVG 1.1//EN"
 "http://www.w3.org/Graphics/SVG/1.1/DTD/svg11.dtd">
<!-- Generated by graphviz version 12.2.1 (20241206.2353)
 -->
<!-- Pages: 1 -->
<svg width="2856pt" height="267pt"
 viewBox="0.00 0.00 2856.00 267.46" xmlns="http://www.w3.org/2000/svg" xmlns:xlink="http://www.w3.org/1999/xlink">
<g id="graph0" class="graph" transform="scale(1 1) rotate(0) translate(4 263.46)">
<polygon fill="white" stroke="none" points="-4,4 -4,-263.46 2852,-263.46 2852,4 -4,4"/>
<g id="clust1" class="cluster">
<title>cluster_hierarchy</title>
<polygon fill="#f5f5f5" stroke="lightgrey" points="8,-8 8,-228.5 157,-228.5 157,-8 8,-8"/>
<text text-anchor="middle" x="82.5" y="-211.2" font-family="Times,serif" font-size="14.00">Fixture Scope Hierarchy</text>
</g>
<g id="clust2" class="cluster">
<title>cluster_session</title>
<polygon fill="#e6f7ff" stroke="#add8e6" points="2136,-80 2136,-228.5 2298,-228.5 2298,-80 2136,-80"/>
<text text-anchor="middle" x="2217" y="-211.2" font-family="Times,serif" font-size="14.00">Session Fixtures</text>
</g>
<g id="clust3" class="cluster">
<title>cluster_module</title>
<polygon fill="#f0fff0" stroke="#90ee90" points="1340,-8 1340,-228.5 2128,-228.5 2128,-8 1340,-8"/>
<text text-anchor="middle" x="1734" y="-211.2" font-family="Times,serif" font-size="14.00">Module Fixtures</text>
</g>
<g id="clust4" class="cluster">
<title>cluster_function</title>
<polygon fill="#fff0f5" stroke="#ffb6c1" points="165,-80 165,-228.5 1264,-228.5 1264,-80 165,-80"/>
<text text-anchor="middle" x="714.5" y="-211.2" font-family="Times,serif" font-size="14.00">Function Fixtures</text>
</g>
<g id="clust5" class="cluster">
<title>cluster_test_data</title>
<polygon fill="#fff8dc" stroke="#ffa500" points="2306,-152 2306,-228.5 2840,-228.5 2840,-152 2306,-152"/>
<text text-anchor="middle" x="2573" y="-211.2" font-family="Times,serif" font-size="14.00">Test Data Fixtures</text>
</g>
<!-- SessionScope -->
<g id="node1" class="node">
<title>SessionScope</title>
<polygon fill="none" stroke="black" points="129,-196 35,-196 35,-160 129,-160 129,-196"/>
<text text-anchor="middle" x="82" y="-172.95" font-family="Times,serif" font-size="14.00">Session Scope</text>
</g>
<!-- ModuleScope -->
<g id="node2" class="node">
<title>ModuleScope</title>
<polygon fill="none" stroke="black" points="129.75,-124 34.25,-124 34.25,-88 129.75,-88 129.75,-124"/>
<text text-anchor="middle" x="82" y="-100.95" font-family="Times,serif" font-size="14.00">Module Scope</text>
</g>
<!-- SessionScope&#45;&gt;ModuleScope -->
<g id="edge1" class="edge">
<title>SessionScope&#45;&gt;ModuleScope</title>
<path fill="none" stroke="black" d="M82,-159.7C82,-152.41 82,-143.73 82,-135.54"/>
<polygon fill="black" stroke="black" points="85.5,-135.62 82,-125.62 78.5,-135.62 85.5,-135.62"/>
</g>
<!-- setup_test_env -->
<g id="node4" class="node">
<title>setup_test_env</title>
<polygon fill="none" stroke="black" points="2289.88,-196 2144.12,-196 2144.12,-160 2289.88,-160 2289.88,-196"/>
<text text-anchor="middle" x="2217" y="-172.95" font-family="Times,serif" font-size="14.00">setup_test_environment</text>
</g>
<!-- SessionScope&#45;&gt;setup_test_env -->
<g id="edge18" class="edge">
<title>SessionScope&#45;&gt;setup_test_env</title>
<path fill="none" stroke="black" stroke-dasharray="5,2" d="M98.4,-196.38C114.67,-213.1 141.25,-236.63 170,-246.5 221.31,-264.12 2071.42,-263.3 2123,-246.5 2148.91,-238.06 2173.61,-219.49 2191.19,-203.81"/>
<polygon fill="black" stroke="black" points="2193.13,-206.78 2198.11,-197.43 2188.39,-201.64 2193.13,-206.78"/>
</g>
<!-- FunctionScope -->
<g id="node3" class="node">
<title>FunctionScope</title>
<polygon fill="none" stroke="black" points="132.38,-52 31.62,-52 31.62,-16 132.38,-16 132.38,-52"/>
<text text-anchor="middle" x="82" y="-28.95" font-family="Times,serif" font-size="14.00">Function Scope</text>
</g>
<!-- ModuleScope&#45;&gt;FunctionScope -->
<g id="edge2" class="edge">
<title>ModuleScope&#45;&gt;FunctionScope</title>
<path fill="none" stroke="black" d="M82,-87.7C82,-80.41 82,-71.73 82,-63.54"/>
<polygon fill="black" stroke="black" points="85.5,-63.62 82,-53.62 78.5,-63.62 85.5,-63.62"/>
</g>
<!-- create_drop_tables -->
<g id="node6" class="node">
<title>create_drop_tables</title>
<polygon fill="none" stroke="black" points="1774,-196 1656,-196 1656,-160 1774,-160 1774,-196"/>
<text text-anchor="middle" x="1715" y="-172.95" font-family="Times,serif" font-size="14.00">create_drop_tables</text>
</g>
<!-- ModuleScope&#45;&gt;create_drop_tables -->
<g id="edge19" class="edge">
<title>ModuleScope&#45;&gt;create_drop_tables</title>
<path fill="none" stroke="black" stroke-dasharray="5,2" d="M130.22,-118.87C140.33,-120.94 150.97,-122.8 161,-124 405.35,-153.12 1022.12,-142.02 1268,-152 1401.04,-157.4 1556.19,-166.77 1644.28,-172.38"/>
<polygon fill="black" stroke="black" points="1644.02,-175.87 1654.23,-173.01 1644.47,-168.88 1644.02,-175.87"/>
</g>
<!-- api_clients -->
<g id="node8" class="node">
<title>api_clients</title>
<path fill="none" stroke="black" d="M1532.25,-124C1532.25,-124 1433.75,-124 1433.75,-124 1427.75,-124 1421.75,-118 1421.75,-112 1421.75,-112 1421.75,-100 1421.75,-100 1421.75,-94 1427.75,-88 1433.75,-88 1433.75,-88 1532.25,-88 1532.25,-88 1538.25,-88 1544.25,-94 1544.25,-100 1544.25,-100 1544.25,-112 1544.25,-112 1544.25,-118 1538.25,-124 1532.25,-124"/>
<text text-anchor="middle" x="1483" y="-100.95" font-family="Times,serif" font-size="14.00">API Client Fixtures</text>
</g>
<!-- ModuleScope&#45;&gt;api_clients -->
<g id="edge20" class="edge">
<title>ModuleScope&#45;&gt;api_clients</title>
<path fill="none" stroke="black" stroke-dasharray="5,2" d="M123.26,-124.36C137.74,-129.9 154.31,-135.24 170,-138 296.61,-160.3 1199.1,-150.98 1327,-138 1354.56,-135.2 1384.44,-129.69 1410.6,-124.02"/>
<polygon fill="black" stroke="black" points="1411.09,-127.5 1420.09,-121.92 1409.57,-120.67 1411.09,-127.5"/>
</g>
<!-- app_clients -->
<g id="node12" class="node">
<title>app_clients</title>
<path fill="none" stroke="black" d="M1990,-124C1990,-124 1890,-124 1890,-124 1884,-124 1878,-118 1878,-112 1878,-112 1878,-100 1878,-100 1878,-94 1884,-88 1890,-88 1890,-88 1990,-88 1990,-88 1996,-88 2002,-94 2002,-100 2002,-100 2002,-112 2002,-112 2002,-118 1996,-124 1990,-124"/>
<text text-anchor="middle" x="1940" y="-100.95" font-family="Times,serif" font-size="14.00">App Client Fixtures</text>
</g>
<!-- ModuleScope&#45;&gt;app_clients -->
<g id="edge21" class="edge">
<title>ModuleScope&#45;&gt;app_clients</title>
<path fill="none" stroke="black" stroke-dasharray="5,2" d="M123.26,-124.36C137.74,-129.9 154.31,-135.24 170,-138 258.31,-153.56 1694.79,-147.06 1784,-138 1811.32,-135.23 1840.92,-129.79 1866.92,-124.17"/>
<polygon fill="black" stroke="black" points="1867.34,-127.66 1876.34,-122.09 1865.82,-120.83 1867.34,-127.66"/>
</g>
<!-- other_mod -->
<g id="node16" class="node">
<title>other_mod</title>
<path fill="none" stroke="black" d="M2107.62,-196C2107.62,-196 1990.38,-196 1990.38,-196 1984.38,-196 1978.38,-190 1978.38,-184 1978.38,-184 1978.38,-172 1978.38,-172 1978.38,-166 1984.38,-160 1990.38,-160 1990.38,-160 2107.62,-160 2107.62,-160 2113.62,-160 2119.62,-166 2119.62,-172 2119.62,-172 2119.62,-184 2119.62,-184 2119.62,-190 2113.62,-196 2107.62,-196"/>
<text text-anchor="middle" x="2049" y="-172.95" font-family="Times,serif" font-size="14.00">Other Module Fixtures</text>
</g>
<!-- ModuleScope&#45;&gt;other_mod -->
<g id="edge22" class="edge">
<title>ModuleScope&#45;&gt;other_mod</title>
<path fill="none" stroke="black" stroke-dasharray="5,2" d="M130.22,-118.93C140.33,-120.99 150.97,-122.84 161,-124 519.13,-165.23 1423.06,-132.01 1783,-152 1844.7,-155.43 1914.22,-162.06 1966.71,-167.63"/>
<polygon fill="black" stroke="black" points="1966.16,-171.09 1976.48,-168.68 1966.91,-164.13 1966.16,-171.09"/>
</g>
<!-- func_api -->
<g id="node18" class="node">
<title>func_api</title>
<path fill="none" stroke="black" d="M520.75,-196C520.75,-196 413.25,-196 413.25,-196 407.25,-196 401.25,-190 401.25,-184 401.25,-184 401.25,-172 401.25,-172 401.25,-166 407.25,-160 413.25,-160 413.25,-160 520.75,-160 520.75,-160 526.75,-160 532.75,-166 532.75,-172 532.75,-172 532.75,-184 532.75,-184 532.75,-190 526.75,-196 520.75,-196"/>
<text text-anchor="middle" x="467" y="-172.95" font-family="Times,serif" font-size="14.00">API Function Clients</text>
</g>
<!-- FunctionScope&#45;&gt;func_api -->
<g id="edge23" class="edge">
<title>FunctionScope&#45;&gt;func_api</title>
<path fill="none" stroke="black" stroke-dasharray="5,2" d="M132.8,-34.99C354.17,-35.2 1225.2,-38.66 1265,-80 1278.56,-94.09 1278.36,-109.72 1265,-124 1252.78,-137.06 742.8,-163.45 544.62,-173.24"/>
<polygon fill="black" stroke="black" points="544.48,-169.74 534.67,-173.73 544.83,-176.73 544.48,-169.74"/>
</g>
<!-- func_app -->
<g id="node22" class="node">
<title>func_app</title>
<path fill="none" stroke="black" d="M1072.5,-196C1072.5,-196 963.5,-196 963.5,-196 957.5,-196 951.5,-190 951.5,-184 951.5,-184 951.5,-172 951.5,-172 951.5,-166 957.5,-160 963.5,-160 963.5,-160 1072.5,-160 1072.5,-160 1078.5,-160 1084.5,-166 1084.5,-172 1084.5,-172 1084.5,-184 1084.5,-184 1084.5,-190 1078.5,-196 1072.5,-196"/>
<text text-anchor="middle" x="1018" y="-172.95" font-family="Times,serif" font-size="14.00">App Function Clients</text>
</g>
<!-- FunctionScope&#45;&gt;func_app -->
<g id="edge24" class="edge">
<title>FunctionScope&#45;&gt;func_app</title>
<path fill="none" stroke="black" stroke-dasharray="5,2" d="M132.87,-34.96C356.55,-35.03 1243.5,-37.96 1284,-80 1344.19,-142.49 1194.92,-164.92 1096.42,-172.83"/>
<polygon fill="black" stroke="black" points="1096.19,-169.33 1086.48,-173.58 1096.72,-176.31 1096.19,-169.33"/>
</g>
<!-- test_env -->
<g id="node5" class="node">
<title>test_env</title>
<polygon fill="none" stroke="black" points="2272.25,-124 2161.75,-124 2161.75,-88 2272.25,-88 2272.25,-124"/>
<text text-anchor="middle" x="2217" y="-100.95" font-family="Times,serif" font-size="14.00">TestEnvironment</text>
</g>
<!-- setup_test_env&#45;&gt;test_env -->
<g id="edge3" class="edge">
<title>setup_test_env&#45;&gt;test_env</title>
<path fill="none" stroke="black" d="M2217,-159.7C2217,-152.41 2217,-143.73 2217,-135.54"/>
<polygon fill="black" stroke="black" points="2220.5,-135.62 2217,-125.62 2213.5,-135.62 2220.5,-135.62"/>
</g>
<!-- insert_users_for_login -->
<g id="node7" class="node">
<title>insert_users_for_login</title>
<polygon fill="none" stroke="black" points="1783.75,-124 1646.25,-124 1646.25,-88 1783.75,-88 1783.75,-124"/>
<text text-anchor="middle" x="1715" y="-100.95" font-family="Times,serif" font-size="14.00">insert_users_for_login</text>
</g>
<!-- create_drop_tables&#45;&gt;insert_users_for_login -->
<g id="edge4" class="edge">
<title>create_drop_tables&#45;&gt;insert_users_for_login</title>
<path fill="none" stroke="black" d="M1715,-159.7C1715,-152.41 1715,-143.73 1715,-135.54"/>
<polygon fill="black" stroke="black" points="1718.5,-135.62 1715,-125.62 1711.5,-135.62 1718.5,-135.62"/>
</g>
<!-- test_api_logged_in -->
<g id="node10" class="node">
<title>test_api_logged_in</title>
<polygon fill="none" stroke="black" points="1542.38,-52 1423.62,-52 1423.62,-16 1542.38,-16 1542.38,-52"/>
<text text-anchor="middle" x="1483" y="-28.95" font-family="Times,serif" font-size="14.00">test_api_logged_in</text>
</g>
<!-- insert_users_for_login&#45;&gt;test_api_logged_in -->
<g id="edge25" class="edge">
<title>insert_users_for_login&#45;&gt;test_api_logged_in</title>
<path fill="none" stroke="black" d="M1657.06,-87.52C1624.96,-77.83 1584.88,-65.74 1551.27,-55.6"/>
<polygon fill="black" stroke="black" points="1552.64,-52.36 1542.06,-52.82 1550.62,-59.06 1552.64,-52.36"/>
</g>
<!-- test_api_logged_in_admin -->
<g id="node11" class="node">
<title>test_api_logged_in_admin</title>
<polygon fill="none" stroke="black" points="1720,-52 1560,-52 1560,-16 1720,-16 1720,-52"/>
<text text-anchor="middle" x="1640" y="-28.95" font-family="Times,serif" font-size="14.00">test_api_logged_in_admin</text>
</g>
<!-- insert_users_for_login&#45;&gt;test_api_logged_in_admin -->
<g id="edge26" class="edge">
<title>insert_users_for_login&#45;&gt;test_api_logged_in_admin</title>
<path fill="none" stroke="black" d="M1696.46,-87.7C1687.54,-79.37 1676.67,-69.22 1666.86,-60.07"/>
<polygon fill="black" stroke="black" points="1669.39,-57.64 1659.69,-53.38 1664.61,-62.76 1669.39,-57.64"/>
</g>
<!-- test_app_logged_in -->
<g id="node14" class="node">
<title>test_app_logged_in</title>
<polygon fill="none" stroke="black" points="1859.88,-52 1738.12,-52 1738.12,-16 1859.88,-16 1859.88,-52"/>
<text text-anchor="middle" x="1799" y="-28.95" font-family="Times,serif" font-size="14.00">test_app_logged_in</text>
</g>
<!-- insert_users_for_login&#45;&gt;test_app_logged_in -->
<g id="edge27" class="edge">
<title>insert_users_for_login&#45;&gt;test_app_logged_in</title>
<path fill="none" stroke="black" d="M1735.76,-87.7C1745.96,-79.2 1758.42,-68.81 1769.58,-59.51"/>
<polygon fill="black" stroke="black" points="1771.58,-62.41 1777.02,-53.32 1767.1,-57.03 1771.58,-62.41"/>
</g>
<!-- test_app_logged_in_admin -->
<g id="node15" class="node">
<title>test_app_logged_in_admin</title>
<polygon fill="none" stroke="black" points="2040.5,-52 1877.5,-52 1877.5,-16 2040.5,-16 2040.5,-52"/>
<text text-anchor="middle" x="1959" y="-28.95" font-family="Times,serif" font-size="14.00">test_app_logged_in_admin</text>
</g>
<!-- insert_users_for_login&#45;&gt;test_app_logged_in_admin -->
<g id="edge28" class="edge">
<title>insert_users_for_login&#45;&gt;test_app_logged_in_admin</title>
<path fill="none" stroke="black" d="M1775.94,-87.52C1809.84,-77.79 1852.21,-65.64 1887.65,-55.47"/>
<polygon fill="black" stroke="black" points="1888.31,-58.92 1896.96,-52.8 1886.38,-52.19 1888.31,-58.92"/>
</g>
<!-- test_api -->
<g id="node9" class="node">
<title>test_api</title>
<polygon fill="none" stroke="black" points="1406,-52 1348,-52 1348,-16 1406,-16 1406,-52"/>
<text text-anchor="middle" x="1377" y="-28.95" font-family="Times,serif" font-size="14.00">test_api</text>
</g>
<!-- api_clients&#45;&gt;test_api -->
<g id="edge5" class="edge">
<title>api_clients&#45;&gt;test_api</title>
<path fill="none" stroke="black" stroke-dasharray="1,5" d="M1456.53,-87.52C1443.27,-78.76 1427.04,-68.04 1412.7,-58.58"/>
<polygon fill="black" stroke="black" points="1414.67,-55.68 1404.4,-53.09 1410.82,-61.53 1414.67,-55.68"/>
</g>
<!-- api_clients&#45;&gt;test_api_logged_in -->
<g id="edge6" class="edge">
<title>api_clients&#45;&gt;test_api_logged_in</title>
<path fill="none" stroke="black" stroke-dasharray="1,5" d="M1483,-87.7C1483,-80.41 1483,-71.73 1483,-63.54"/>
<polygon fill="black" stroke="black" points="1486.5,-63.62 1483,-53.62 1479.5,-63.62 1486.5,-63.62"/>
</g>
<!-- api_clients&#45;&gt;test_api_logged_in_admin -->
<g id="edge7" class="edge">
<title>api_clients&#45;&gt;test_api_logged_in_admin</title>
<path fill="none" stroke="black" stroke-dasharray="1,5" d="M1522.21,-87.52C1542.9,-78.29 1568.48,-66.89 1590.52,-57.06"/>
<polygon fill="black" stroke="black" points="1591.92,-60.27 1599.63,-53 1589.07,-53.87 1591.92,-60.27"/>
</g>
<!-- test_app -->
<g id="node13" class="node">
<title>test_app</title>
<polygon fill="none" stroke="black" points="2119.5,-52 2058.5,-52 2058.5,-16 2119.5,-16 2119.5,-52"/>
<text text-anchor="middle" x="2089" y="-28.95" font-family="Times,serif" font-size="14.00">test_app</text>
</g>
<!-- app_clients&#45;&gt;test_app -->
<g id="edge8" class="edge">
<title>app_clients&#45;&gt;test_app</title>
<path fill="none" stroke="black" stroke-dasharray="1,5" d="M1977.21,-87.52C1998.7,-77.42 2025.75,-64.71 2047.86,-54.33"/>
<polygon fill="black" stroke="black" points="2049.34,-57.5 2056.91,-50.08 2046.37,-51.16 2049.34,-57.5"/>
</g>
<!-- app_clients&#45;&gt;test_app_logged_in -->
<g id="edge9" class="edge">
<title>app_clients&#45;&gt;test_app_logged_in</title>
<path fill="none" stroke="black" stroke-dasharray="1,5" d="M1904.78,-87.52C1886.39,-78.39 1863.68,-67.11 1844.03,-57.35"/>
<polygon fill="black" stroke="black" points="1845.64,-54.25 1835.12,-52.93 1842.52,-60.52 1845.64,-54.25"/>
</g>
<!-- app_clients&#45;&gt;test_app_logged_in_admin -->
<g id="edge10" class="edge">
<title>app_clients&#45;&gt;test_app_logged_in_admin</title>
<path fill="none" stroke="black" stroke-dasharray="1,5" d="M1944.7,-87.7C1946.72,-80.24 1949.14,-71.32 1951.41,-62.97"/>
<polygon fill="black" stroke="black" points="1954.72,-64.13 1953.96,-53.57 1947.96,-62.3 1954.72,-64.13"/>
</g>
<!-- test_jobstore -->
<g id="node17" class="node">
<title>test_jobstore</title>
<polygon fill="none" stroke="black" points="2105.5,-124 2020.5,-124 2020.5,-88 2105.5,-88 2105.5,-124"/>
<text text-anchor="middle" x="2063" y="-100.95" font-family="Times,serif" font-size="14.00">test_jobstore</text>
</g>
<!-- other_mod&#45;&gt;test_jobstore -->
<g id="edge11" class="edge">
<title>other_mod&#45;&gt;test_jobstore</title>
<path fill="none" stroke="black" stroke-dasharray="1,5" d="M2052.46,-159.7C2053.94,-152.32 2055.7,-143.52 2057.35,-135.25"/>
<polygon fill="black" stroke="black" points="2060.75,-136.08 2059.28,-125.59 2053.89,-134.71 2060.75,-136.08"/>
</g>
<!-- test_api_function -->
<g id="node19" class="node">
<title>test_api_function</title>
<polygon fill="none" stroke="black" points="700.88,-124 591.12,-124 591.12,-88 700.88,-88 700.88,-124"/>
<text text-anchor="middle" x="646" y="-100.95" font-family="Times,serif" font-size="14.00">test_api_function</text>
</g>
<!-- func_api&#45;&gt;test_api_function -->
<g id="edge12" class="edge">
<title>func_api&#45;&gt;test_api_function</title>
<path fill="none" stroke="black" stroke-dasharray="1,5" d="M511.71,-159.52C535.72,-150.13 565.52,-138.47 590.95,-128.53"/>
<polygon fill="black" stroke="black" points="592.1,-131.83 600.14,-124.93 589.55,-125.32 592.1,-131.83"/>
</g>
<!-- test_api_logged_in_function -->
<g id="node20" class="node">
<title>test_api_logged_in_function</title>
<polygon fill="none" stroke="black" points="343.25,-124 172.75,-124 172.75,-88 343.25,-88 343.25,-124"/>
<text text-anchor="middle" x="258" y="-100.95" font-family="Times,serif" font-size="14.00">test_api_logged_in_function</text>
</g>
<!-- func_api&#45;&gt;test_api_logged_in_function -->
<g id="edge13" class="edge">
<title>func_api&#45;&gt;test_api_logged_in_function</title>
<path fill="none" stroke="black" stroke-dasharray="1,5" d="M414.8,-159.52C386.26,-149.96 350.72,-138.05 320.69,-128"/>
<polygon fill="black" stroke="black" points="321.93,-124.72 311.33,-124.86 319.7,-131.36 321.93,-124.72"/>
</g>
<!-- test_api_logged_in_admin_function -->
<g id="node21" class="node">
<title>test_api_logged_in_admin_function</title>
<polygon fill="none" stroke="black" points="572.88,-124 361.12,-124 361.12,-88 572.88,-88 572.88,-124"/>
<text text-anchor="middle" x="467" y="-100.95" font-family="Times,serif" font-size="14.00">test_api_logged_in_admin_function</text>
</g>
<!-- func_api&#45;&gt;test_api_logged_in_admin_function -->
<g id="edge14" class="edge">
<title>func_api&#45;&gt;test_api_logged_in_admin_function</title>
<path fill="none" stroke="black" stroke-dasharray="1,5" d="M467,-159.7C467,-152.41 467,-143.73 467,-135.54"/>
<polygon fill="black" stroke="black" points="470.5,-135.62 467,-125.62 463.5,-135.62 470.5,-135.62"/>
</g>
<!-- test_app_function -->
<g id="node23" class="node">
<title>test_app_function</title>
<polygon fill="none" stroke="black" points="1256.38,-124 1143.62,-124 1143.62,-88 1256.38,-88 1256.38,-124"/>
<text text-anchor="middle" x="1200" y="-100.95" font-family="Times,serif" font-size="14.00">test_app_function</text>
</g>
<!-- func_app&#45;&gt;test_app_function -->
<g id="edge15" class="edge">
<title>func_app&#45;&gt;test_app_function</title>
<path fill="none" stroke="black" stroke-dasharray="1,5" d="M1063.46,-159.52C1087.98,-150.08 1118.45,-138.37 1144.38,-128.39"/>
<polygon fill="black" stroke="black" points="1145.32,-131.78 1153.39,-124.93 1142.8,-125.25 1145.32,-131.78"/>
</g>
<!-- test_app_logged_in_function -->
<g id="node24" class="node">
<title>test_app_logged_in_function</title>
<polygon fill="none" stroke="black" points="892.75,-124 719.25,-124 719.25,-88 892.75,-88 892.75,-124"/>
<text text-anchor="middle" x="806" y="-100.95" font-family="Times,serif" font-size="14.00">test_app_logged_in_function</text>
</g>
<!-- func_app&#45;&gt;test_app_logged_in_function -->
<g id="edge16" class="edge">
<title>func_app&#45;&gt;test_app_logged_in_function</title>
<path fill="none" stroke="black" stroke-dasharray="1,5" d="M965.05,-159.52C935.98,-149.92 899.73,-137.95 869.19,-127.86"/>
<polygon fill="black" stroke="black" points="870.67,-124.67 860.08,-124.86 868.48,-131.32 870.67,-124.67"/>
</g>
<!-- test_app_logged_in_admin_function -->
<g id="node25" class="node">
<title>test_app_logged_in_admin_function</title>
<polygon fill="none" stroke="black" points="1125.38,-124 910.62,-124 910.62,-88 1125.38,-88 1125.38,-124"/>
<text text-anchor="middle" x="1018" y="-100.95" font-family="Times,serif" font-size="14.00">test_app_logged_in_admin_function</text>
</g>
<!-- func_app&#45;&gt;test_app_logged_in_admin_function -->
<g id="edge17" class="edge">
<title>func_app&#45;&gt;test_app_logged_in_admin_function</title>
<path fill="none" stroke="black" stroke-dasharray="1,5" d="M1018,-159.7C1018,-152.41 1018,-143.73 1018,-135.54"/>
<polygon fill="black" stroke="black" points="1021.5,-135.62 1018,-125.62 1014.5,-135.62 1021.5,-135.62"/>
</g>
<!-- insert_testing_data -->
<g id="node26" class="node">
<title>insert_testing_data</title>
<polygon fill="none" stroke="black" points="2432,-196 2314,-196 2314,-160 2432,-160 2432,-196"/>
<text text-anchor="middle" x="2373" y="-172.95" font-family="Times,serif" font-size="14.00">insert_testing_data</text>
</g>
<!-- insert_jobs_in_test_scheduler -->
<g id="node27" class="node">
<title>insert_jobs_in_test_scheduler</title>
<polygon fill="none" stroke="black" points="2626.25,-196 2449.75,-196 2449.75,-160 2626.25,-160 2626.25,-196"/>
<text text-anchor="middle" x="2538" y="-172.95" font-family="Times,serif" font-size="14.00">insert_jobs_in_test_scheduler</text>
</g>
<!-- test_user -->
<g id="node28" class="node">
<title>test_user</title>
<polygon fill="none" stroke="black" points="2708,-196 2644,-196 2644,-160 2708,-160 2708,-196"/>
<text text-anchor="middle" x="2676" y="-172.95" font-family="Times,serif" font-size="14.00">test_user</text>
</g>
<!-- test_admin_user -->
<g id="node29" class="node">
<title>test_admin_user</title>
<polygon fill="none" stroke="black" points="2831.62,-196 2726.38,-196 2726.38,-160 2831.62,-160 2831.62,-196"/>
<text text-anchor="middle" x="2779" y="-172.95" font-family="Times,serif" font-size="14.00">test_admin_user</text>
</g>
</g>
</svg>
