<?xml version="1.0" encoding="UTF-8" standalone="no"?>
<!DOCTYPE svg PUBLIC "-//W3C//DTD SVG 1.1//EN"
 "http://www.w3.org/Graphics/SVG/1.1/DTD/svg11.dtd">
<!-- Generated by graphviz version 16.0.0 (0)
 -->
<!-- Pages: 1 -->
<svg width="91pt" height="350pt"
 viewBox="0.00 0.00 91.00 350.00" xmlns="http://www.w3.org/2000/svg" xmlns:xlink="http://www.w3.org/1999/xlink">
<g id="graph0" class="graph" transform="scale(1 1) rotate(0) translate(4 345.5)">
<polygon fill="white" stroke="none" points="-4,4 -4,-345.5 86.75,-345.5 86.75,4 -4,4"/>
<!-- session -->
<g id="node1" class="node">
<title>session</title>
<polygon fill="#e6f7ff" stroke="#add8e6" points="79.38,-341.5 3.38,-341.5 3.38,-302 79.38,-302 79.38,-341.5"/>
<text xml:space="preserve" text-anchor="middle" x="41.38" y="-324.2" font-family="Times,serif" font-size="14.00">Session</text>
<text xml:space="preserve" text-anchor="middle" x="41.38" y="-308.45" font-family="Times,serif" font-size="14.00">(3 fixtures)</text>
</g>
<!-- package -->
<g id="node2" class="node">
<title>package</title>
<polygon fill="#f5f0f5" stroke="#d8bfd8" points="79.38,-266 3.38,-266 3.38,-226.5 79.38,-226.5 79.38,-266"/>
<text xml:space="preserve" text-anchor="middle" x="41.38" y="-248.7" font-family="Times,serif" font-size="14.00">Package</text>
<text xml:space="preserve" text-anchor="middle" x="41.38" y="-232.95" font-family="Times,serif" font-size="14.00">(0 fixtures)</text>
</g>
<!-- session&#45;&gt;package -->
<g id="edge1" class="edge">
<title>session&#45;&gt;package</title>
<path fill="none" stroke="black" d="M41.38,-301.82C41.38,-294.51 41.38,-285.95 41.38,-277.81"/>
<polygon fill="black" stroke="black" points="44.88,-277.88 41.38,-267.88 37.88,-277.88 44.88,-277.88"/>
</g>
<!-- module -->
<g id="node3" class="node">
<title>module</title>
<polygon fill="#f0fff0" stroke="#90ee90" points="79.38,-190.5 3.38,-190.5 3.38,-151 79.38,-151 79.38,-190.5"/>
<text xml:space="preserve" text-anchor="middle" x="41.38" y="-173.2" font-family="Times,serif" font-size="14.00">Module</text>
<text xml:space="preserve" text-anchor="middle" x="41.38" y="-157.45" font-family="Times,serif" font-size="14.00">(8 fixtures)</text>
</g>
<!-- package&#45;&gt;module -->
<g id="edge2" class="edge">
<title>package&#45;&gt;module</title>
<path fill="none" stroke="black" d="M41.38,-226.32C41.38,-219.01 41.38,-210.45 41.38,-202.31"/>
<polygon fill="black" stroke="black" points="44.88,-202.38 41.38,-192.38 37.88,-202.38 44.88,-202.38"/>
</g>
<!-- class -->
<g id="node4" class="node">
<title>class</title>
<polygon fill="#fff5e6" stroke="#ffdead" points="79.38,-115 3.38,-115 3.38,-75.5 79.38,-75.5 79.38,-115"/>
<text xml:space="preserve" text-anchor="middle" x="41.38" y="-97.7" font-family="Times,serif" font-size="14.00">Class</text>
<text xml:space="preserve" text-anchor="middle" x="41.38" y="-81.95" font-family="Times,serif" font-size="14.00">(0 fixtures)</text>
</g>
<!-- module&#45;&gt;class -->
<g id="edge3" class="edge">
<title>module&#45;&gt;class</title>
<path fill="none" stroke="black" d="M41.38,-150.82C41.38,-143.51 41.38,-134.95 41.38,-126.81"/>
<polygon fill="black" stroke="black" points="44.88,-126.88 41.38,-116.88 37.88,-126.88 44.88,-126.88"/>
</g>
<!-- function -->
<g id="node5" class="node">
<title>function</title>
<polygon fill="#fff0f5" stroke="#ffb6c1" points="82.75,-39.5 0,-39.5 0,0 82.75,0 82.75,-39.5"/>
<text xml:space="preserve" text-anchor="middle" x="41.38" y="-22.2" font-family="Times,serif" font-size="14.00">Function</text>
<text xml:space="preserve" text-anchor="middle" x="41.38" y="-6.45" font-family="Times,serif" font-size="14.00">(63 fixtures)</text>
</g>
<!-- class&#45;&gt;function -->
<g id="edge4" class="edge">
<title>class&#45;&gt;function</title>
<path fill="none" stroke="black" d="M41.38,-75.32C41.38,-68.01 41.38,-59.45 41.38,-51.31"/>
<polygon fill="black" stroke="black" points="44.88,-51.38 41.38,-41.38 37.88,-51.38 44.88,-51.38"/>
</g>
</g>
</svg>
