<?xml version="1.0" encoding="UTF-8" standalone="no"?>
<!DOCTYPE svg PUBLIC "-//W3C//DTD SVG 1.1//EN"
 "http://www.w3.org/Graphics/SVG/1.1/DTD/svg11.dtd">
<!-- Generated by graphviz version 16.0.0 (0)
 -->
<!-- Pages: 1 -->
<svg width="5640pt" height="475pt"
 viewBox="0.00 0.00 5640.00 475.00" xmlns="http://www.w3.org/2000/svg" xmlns:xlink="http://www.w3.org/1999/xlink">
<g id="graph0" class="graph" transform="scale(1 1) rotate(0) translate(4 471.25)">
<polygon fill="white" stroke="none" points="-4,4 -4,-471.25 5636,-471.25 5636,4 -4,4"/>
<g id="clust1" class="cluster">
<title>cluster_session</title>
<polygon fill="#e6f7ff" stroke="#add8e6" points="3779,-235.75 3779,-459.25 3941,-459.25 3941,-235.75 3779,-235.75"/>
<text xml:space="preserve" text-anchor="middle" x="3860" y="-441.95" font-family="Times,serif" font-size="14.00">Session Fixtures</text>
</g>
<g id="clust2" class="cluster">
<title>cluster_module</title>
<polygon fill="#f0fff0" stroke="#90ee90" points="4902,-235.75 4902,-383.5 5602,-383.5 5602,-235.75 4902,-235.75"/>
<text xml:space="preserve" text-anchor="middle" x="5252" y="-366.2" font-family="Times,serif" font-size="14.00">Module Fixtures</text>
</g>
<g id="clust3" class="cluster">
<title>cluster_function</title>
<polygon fill="#fff0f5" stroke="#ffb6c1" points="8,-8 8,-227.75 5624,-227.75 5624,-8 8,-8"/>
<text xml:space="preserve" text-anchor="middle" x="2816" y="-210.45" font-family="Times,serif" font-size="14.00">Function Fixtures</text>
</g>
<!-- setup_test_environment -->
<g id="node1" class="node">
<title>setup_test_environment</title>
<polygon fill="none" stroke="black" points="3932.5,-427.5 3787.5,-427.5 3787.5,-391.5 3932.5,-391.5 3932.5,-427.5"/>
<text xml:space="preserve" text-anchor="middle" x="3860" y="-404.07" font-family="Times,serif" font-size="14.00">setup_test_environment</text>
</g>
<!-- truncate_tables -->
<g id="node2" class="node">
<title>truncate_tables</title>
<polygon fill="none" stroke="black" points="3908.88,-351.75 3811.12,-351.75 3811.12,-315.75 3908.88,-315.75 3908.88,-351.75"/>
<text xml:space="preserve" text-anchor="middle" x="3860" y="-328.32" font-family="Times,serif" font-size="14.00">truncate_tables</text>
</g>
<!-- setup_test_environment&#45;&gt;truncate_tables -->
<g id="edge1" class="edge">
<title>setup_test_environment&#45;&gt;truncate_tables</title>
<path fill="none" stroke="black" d="M3860,-391.02C3860,-382.76 3860,-372.67 3860,-363.34"/>
<polygon fill="black" stroke="black" points="3863.5,-363.62 3860,-353.62 3856.5,-363.62 3863.5,-363.62"/>
</g>
<!-- insert_users_for_login -->
<g id="node3" class="node">
<title>insert_users_for_login</title>
<polygon fill="none" stroke="black" points="3926.75,-279.75 3789.25,-279.75 3789.25,-243.75 3926.75,-243.75 3926.75,-279.75"/>
<text xml:space="preserve" text-anchor="middle" x="3858" y="-256.32" font-family="Times,serif" font-size="14.00">insert_users_for_login</text>
</g>
<!-- truncate_tables&#45;&gt;insert_users_for_login -->
<g id="edge2" class="edge">
<title>truncate_tables&#45;&gt;insert_users_for_login</title>
<path fill="none" stroke="black" d="M3859.51,-315.45C3859.3,-308.16 3859.05,-299.48 3858.82,-291.29"/>
<polygon fill="black" stroke="black" points="3862.32,-291.26 3858.53,-281.37 3855.32,-291.46 3862.32,-291.26"/>
</g>
<!-- factory_session -->
<g id="node15" class="node">
<title>factory_session</title>
<polygon fill="none" stroke="black" points="5326,-196 5226,-196 5226,-160 5326,-160 5326,-196"/>
<text xml:space="preserve" text-anchor="middle" x="5276" y="-172.57" font-family="Times,serif" font-size="14.00">factory_session</text>
</g>
<!-- truncate_tables&#45;&gt;factory_session -->
<g id="edge4" class="edge">
<title>truncate_tables&#45;&gt;factory_session</title>
<path fill="none" stroke="black" d="M3909.34,-326.93C4058.28,-309.64 4516.55,-258.33 4898,-235.75 4933.39,-233.65 5183.79,-240.17 5217,-227.75 5230.28,-222.78 5242.75,-213.48 5252.76,-204.33"/>
<polygon fill="black" stroke="black" points="5255.07,-206.96 5259.81,-197.49 5250.2,-201.94 5255.07,-206.96"/>
</g>
<!-- txn_api -->
<g id="node16" class="node">
<title>txn_api</title>
<polygon fill="none" stroke="black" points="4012.25,-196 3955.75,-196 3955.75,-160 4012.25,-160 4012.25,-196"/>
<text xml:space="preserve" text-anchor="middle" x="3984" y="-172.57" font-family="Times,serif" font-size="14.00">txn_api</text>
</g>
<!-- insert_users_for_login&#45;&gt;txn_api -->
<g id="edge5" class="edge">
<title>insert_users_for_login&#45;&gt;txn_api</title>
<path fill="none" stroke="black" d="M3918.05,-243.34C3927.88,-239.09 3937.59,-233.93 3946,-227.75 3954.11,-221.79 3961.39,-213.64 3967.34,-205.72"/>
<polygon fill="black" stroke="black" points="3970.18,-207.77 3973.06,-197.57 3964.45,-203.75 3970.18,-207.77"/>
</g>
<!-- txn_api_logged_in -->
<g id="node17" class="node">
<title>txn_api_logged_in</title>
<polygon fill="none" stroke="black" points="2861.62,-196 2744.38,-196 2744.38,-160 2861.62,-160 2861.62,-196"/>
<text xml:space="preserve" text-anchor="middle" x="2803" y="-172.57" font-family="Times,serif" font-size="14.00">txn_api_logged_in</text>
</g>
<!-- insert_users_for_login&#45;&gt;txn_api_logged_in -->
<g id="edge6" class="edge">
<title>insert_users_for_login&#45;&gt;txn_api_logged_in</title>
<path fill="none" stroke="black" d="M3788.78,-255.39C3597.85,-240.59 3065.24,-199.32 2873.18,-184.44"/>
<polygon fill="black" stroke="black" points="2873.59,-180.96 2863.35,-183.68 2873.05,-187.94 2873.59,-180.96"/>
</g>
<!-- txn_api_logged_in_admin -->
<g id="node18" class="node">
<title>txn_api_logged_in_admin</title>
<polygon fill="none" stroke="black" points="3937.25,-196 3778.75,-196 3778.75,-160 3937.25,-160 3937.25,-196"/>
<text xml:space="preserve" text-anchor="middle" x="3858" y="-172.57" font-family="Times,serif" font-size="14.00">txn_api_logged_in_admin</text>
</g>
<!-- insert_users_for_login&#45;&gt;txn_api_logged_in_admin -->
<g id="edge7" class="edge">
<title>insert_users_for_login&#45;&gt;txn_api_logged_in_admin</title>
<path fill="none" stroke="black" d="M3858,-243.41C3858,-233.01 3858,-219.52 3858,-207.57"/>
<polygon fill="black" stroke="black" points="3861.5,-207.83 3858,-197.83 3854.5,-207.83 3861.5,-207.83"/>
</g>
<!-- txn_multi_client -->
<g id="node19" class="node">
<title>txn_multi_client</title>
<polygon fill="none" stroke="black" points="3760.62,-196 3655.38,-196 3655.38,-160 3760.62,-160 3760.62,-196"/>
<text xml:space="preserve" text-anchor="middle" x="3708" y="-172.57" font-family="Times,serif" font-size="14.00">txn_multi_client</text>
</g>
<!-- insert_users_for_login&#45;&gt;txn_multi_client -->
<g id="edge8" class="edge">
<title>insert_users_for_login&#45;&gt;txn_multi_client</title>
<path fill="none" stroke="black" d="M3803.76,-243.41C3792.32,-238.93 3780.52,-233.67 3770,-227.75 3758,-221 3745.86,-212.03 3735.55,-203.63"/>
<polygon fill="black" stroke="black" points="3738.07,-201.18 3728.16,-197.43 3733.57,-206.54 3738.07,-201.18"/>
</g>
<!-- test_scheduler -->
<g id="node4" class="node">
<title>test_scheduler</title>
<polygon fill="none" stroke="black" points="5003.62,-351.75 4910.38,-351.75 4910.38,-315.75 5003.62,-315.75 5003.62,-351.75"/>
<text xml:space="preserve" text-anchor="middle" x="4957" y="-328.32" font-family="Times,serif" font-size="14.00">test_scheduler</text>
</g>
<!-- insert_test_jobs -->
<g id="node5" class="node">
<title>insert_test_jobs</title>
<polygon fill="none" stroke="black" points="5011.75,-279.75 4910.25,-279.75 4910.25,-243.75 5011.75,-243.75 5011.75,-279.75"/>
<text xml:space="preserve" text-anchor="middle" x="4961" y="-256.32" font-family="Times,serif" font-size="14.00">insert_test_jobs</text>
</g>
<!-- test_scheduler&#45;&gt;insert_test_jobs -->
<g id="edge3" class="edge">
<title>test_scheduler&#45;&gt;insert_test_jobs</title>
<path fill="none" stroke="black" d="M4957.99,-315.45C4958.41,-308.16 4958.9,-299.48 4959.37,-291.29"/>
<polygon fill="black" stroke="black" points="4962.86,-291.55 4959.94,-281.37 4955.87,-291.15 4962.86,-291.55"/>
</g>
<!-- test_api -->
<g id="node6" class="node">
<title>test_api</title>
<polygon fill="none" stroke="black" points="5080,-351.75 5022,-351.75 5022,-315.75 5080,-315.75 5080,-351.75"/>
<text xml:space="preserve" text-anchor="middle" x="5051" y="-328.32" font-family="Times,serif" font-size="14.00">test_api</text>
</g>
<!-- test_api_logged_in -->
<g id="node7" class="node">
<title>test_api_logged_in</title>
<polygon fill="none" stroke="black" points="5216.38,-351.75 5097.62,-351.75 5097.62,-315.75 5216.38,-315.75 5216.38,-351.75"/>
<text xml:space="preserve" text-anchor="middle" x="5157" y="-328.32" font-family="Times,serif" font-size="14.00">test_api_logged_in</text>
</g>
<!-- test_api_logged_in_admin -->
<g id="node8" class="node">
<title>test_api_logged_in_admin</title>
<polygon fill="none" stroke="black" points="5394,-351.75 5234,-351.75 5234,-315.75 5394,-315.75 5394,-351.75"/>
<text xml:space="preserve" text-anchor="middle" x="5314" y="-328.32" font-family="Times,serif" font-size="14.00">test_api_logged_in_admin</text>
</g>
<!-- signing_key -->
<g id="node9" class="node">
<title>signing_key</title>
<polygon fill="none" stroke="black" points="5494,-351.75 5412,-351.75 5412,-315.75 5494,-315.75 5494,-351.75"/>
<text xml:space="preserve" text-anchor="middle" x="5453" y="-328.32" font-family="Times,serif" font-size="14.00">signing_key</text>
</g>
<!-- idp -->
<g id="node11" class="node">
<title>idp</title>
<polygon fill="none" stroke="black" points="5480,-279.75 5426,-279.75 5426,-243.75 5480,-243.75 5480,-279.75"/>
<text xml:space="preserve" text-anchor="middle" x="5453" y="-256.32" font-family="Times,serif" font-size="14.00">idp</text>
</g>
<!-- signing_key&#45;&gt;idp -->
<g id="edge9" class="edge">
<title>signing_key&#45;&gt;idp</title>
<path fill="none" stroke="black" d="M5453,-315.45C5453,-308.16 5453,-299.48 5453,-291.29"/>
<polygon fill="black" stroke="black" points="5456.5,-291.37 5453,-281.37 5449.5,-291.37 5456.5,-291.37"/>
</g>
<!-- foreign_key -->
<g id="node10" class="node">
<title>foreign_key</title>
<polygon fill="none" stroke="black" points="5593.62,-351.75 5512.38,-351.75 5512.38,-315.75 5593.62,-315.75 5593.62,-351.75"/>
<text xml:space="preserve" text-anchor="middle" x="5553" y="-328.32" font-family="Times,serif" font-size="14.00">foreign_key</text>
</g>
<!-- verifier -->
<g id="node29" class="node">
<title>verifier</title>
<polygon fill="none" stroke="black" points="5480,-196 5426,-196 5426,-160 5480,-160 5480,-196"/>
<text xml:space="preserve" text-anchor="middle" x="5453" y="-172.57" font-family="Times,serif" font-size="14.00">verifier</text>
</g>
<!-- idp&#45;&gt;verifier -->
<g id="edge10" class="edge">
<title>idp&#45;&gt;verifier</title>
<path fill="none" stroke="black" d="M5453,-243.41C5453,-233.01 5453,-219.52 5453,-207.57"/>
<polygon fill="black" stroke="black" points="5456.5,-207.83 5453,-197.83 5449.5,-207.83 5456.5,-207.83"/>
</g>
<!-- test_api_function -->
<g id="node12" class="node">
<title>test_api_function</title>
<polygon fill="none" stroke="black" points="398.88,-196 289.12,-196 289.12,-160 398.88,-160 398.88,-196"/>
<text xml:space="preserve" text-anchor="middle" x="344" y="-172.57" font-family="Times,serif" font-size="14.00">test_api_function</text>
</g>
<!-- test_api_logged_in_function -->
<g id="node13" class="node">
<title>test_api_logged_in_function</title>
<polygon fill="none" stroke="black" points="1678.25,-196 1507.75,-196 1507.75,-160 1678.25,-160 1678.25,-196"/>
<text xml:space="preserve" text-anchor="middle" x="1593" y="-172.57" font-family="Times,serif" font-size="14.00">test_api_logged_in_function</text>
</g>
<!-- test_api_logged_in_admin_function -->
<g id="node14" class="node">
<title>test_api_logged_in_admin_function</title>
<polygon fill="none" stroke="black" points="2452.88,-196 2241.12,-196 2241.12,-160 2452.88,-160 2452.88,-196"/>
<text xml:space="preserve" text-anchor="middle" x="2347" y="-172.57" font-family="Times,serif" font-size="14.00">test_api_logged_in_admin_function</text>
</g>
<!-- conn -->
<g id="node76" class="node">
<title>conn</title>
<polygon fill="none" stroke="black" points="5616,-124 5562,-124 5562,-88 5616,-88 5616,-124"/>
<text xml:space="preserve" text-anchor="middle" x="5589" y="-100.58" font-family="Times,serif" font-size="14.00">conn</text>
</g>
<!-- factory_session&#45;&gt;conn -->
<g id="edge55" class="edge">
<title>factory_session&#45;&gt;conn</title>
<path fill="none" stroke="black" d="M5326.43,-162.05C5329.32,-161.32 5332.19,-160.63 5335,-160 5427.33,-139.15 5457.11,-152.22 5550.97,-124.14"/>
<polygon fill="black" stroke="black" points="5551.82,-127.54 5560.35,-121.25 5549.76,-120.85 5551.82,-127.54"/>
</g>
<!-- auth_test_context -->
<g id="node31" class="node">
<title>auth_test_context</title>
<polygon fill="none" stroke="black" points="5543.62,-124 5432.38,-124 5432.38,-88 5543.62,-88 5543.62,-124"/>
<text xml:space="preserve" text-anchor="middle" x="5488" y="-100.58" font-family="Times,serif" font-size="14.00">auth_test_context</text>
</g>
<!-- txn_api&#45;&gt;auth_test_context -->
<g id="edge12" class="edge">
<title>txn_api&#45;&gt;auth_test_context</title>
<path fill="none" stroke="black" d="M4012.64,-162.78C4015.74,-161.67 4018.9,-160.7 4022,-160 4322.15,-91.88 5096.22,-165.91 5420.79,-124.02"/>
<polygon fill="black" stroke="black" points="5421.21,-127.49 5430.65,-122.68 5420.27,-120.56 5421.21,-127.49"/>
</g>
<!-- users_test_context -->
<g id="node58" class="node">
<title>users_test_context</title>
<polygon fill="none" stroke="black" points="5413.88,-124 5298.12,-124 5298.12,-88 5413.88,-88 5413.88,-124"/>
<text xml:space="preserve" text-anchor="middle" x="5356" y="-100.58" font-family="Times,serif" font-size="14.00">users_test_context</text>
</g>
<!-- txn_api&#45;&gt;users_test_context -->
<g id="edge38" class="edge">
<title>txn_api&#45;&gt;users_test_context</title>
<path fill="none" stroke="black" d="M4012.64,-162.79C4015.74,-161.67 4018.9,-160.71 4022,-160 4293.11,-98.08 4991.98,-161.23 5286.52,-124.08"/>
<polygon fill="black" stroke="black" points="5286.73,-127.59 5296.18,-122.8 5285.81,-120.65 5286.73,-127.59"/>
</g>
<!-- bean_crud_tester -->
<g id="node30" class="node">
<title>bean_crud_tester</title>
<polygon fill="none" stroke="black" points="3517.12,-124 3408.88,-124 3408.88,-88 3517.12,-88 3517.12,-124"/>
<text xml:space="preserve" text-anchor="middle" x="3463" y="-100.58" font-family="Times,serif" font-size="14.00">bean_crud_tester</text>
</g>
<!-- txn_api_logged_in&#45;&gt;bean_crud_tester -->
<g id="edge11" class="edge">
<title>txn_api_logged_in&#45;&gt;bean_crud_tester</title>
<path fill="none" stroke="black" d="M2861.92,-175.18C2967.6,-171.19 3196.38,-159.16 3397.43,-124.28"/>
<polygon fill="black" stroke="black" points="3397.76,-127.78 3407.01,-122.6 3396.55,-120.88 3397.76,-127.78"/>
</g>
<!-- event_crud_tester -->
<g id="node35" class="node">
<title>event_crud_tester</title>
<polygon fill="none" stroke="black" points="4287.62,-124 4176.38,-124 4176.38,-88 4287.62,-88 4287.62,-124"/>
<text xml:space="preserve" text-anchor="middle" x="4232" y="-100.58" font-family="Times,serif" font-size="14.00">event_crud_tester</text>
</g>
<!-- txn_api_logged_in&#45;&gt;event_crud_tester -->
<g id="edge15" class="edge">
<title>txn_api_logged_in&#45;&gt;event_crud_tester</title>
<path fill="none" stroke="black" d="M2861.95,-175.48C3101.07,-169.21 3993.69,-144.78 4164.7,-124.15"/>
<polygon fill="black" stroke="black" points="4165.01,-127.64 4174.46,-122.84 4164.08,-120.7 4165.01,-127.64"/>
</g>
<!-- boxitem_test_data -->
<g id="node36" class="node">
<title>boxitem_test_data</title>
<polygon fill="none" stroke="black" points="4421.88,-124 4306.12,-124 4306.12,-88 4421.88,-88 4421.88,-124"/>
<text xml:space="preserve" text-anchor="middle" x="4364" y="-100.58" font-family="Times,serif" font-size="14.00">boxitem_test_data</text>
</g>
<!-- txn_api_logged_in&#45;&gt;boxitem_test_data -->
<g id="edge16" class="edge">
<title>txn_api_logged_in&#45;&gt;boxitem_test_data</title>
<path fill="none" stroke="black" d="M2861.75,-175.66C3114.96,-169.77 4108.35,-145.63 4294.38,-124.03"/>
<polygon fill="black" stroke="black" points="4294.71,-127.51 4304.18,-122.77 4293.82,-120.57 4294.71,-127.51"/>
</g>
<!-- project_crud_tester -->
<g id="node37" class="node">
<title>project_crud_tester</title>
<polygon fill="none" stroke="black" points="4559.75,-124 4440.25,-124 4440.25,-88 4559.75,-88 4559.75,-124"/>
<text xml:space="preserve" text-anchor="middle" x="4500" y="-100.58" font-family="Times,serif" font-size="14.00">project_crud_tester</text>
</g>
<!-- txn_api_logged_in&#45;&gt;project_crud_tester -->
<g id="edge17" class="edge">
<title>txn_api_logged_in&#45;&gt;project_crud_tester</title>
<path fill="none" stroke="black" d="M2861.9,-175.81C3129.77,-170.32 4228.2,-146.71 4428.78,-123.97"/>
<polygon fill="black" stroke="black" points="4428.94,-127.48 4438.43,-122.77 4428.07,-120.54 4428.94,-127.48"/>
</g>
<!-- client_with_projects -->
<g id="node38" class="node">
<title>client_with_projects</title>
<polygon fill="none" stroke="black" points="4703.75,-124 4578.25,-124 4578.25,-88 4703.75,-88 4703.75,-124"/>
<text xml:space="preserve" text-anchor="middle" x="4641" y="-100.58" font-family="Times,serif" font-size="14.00">client_with_projects</text>
</g>
<!-- txn_api_logged_in&#45;&gt;client_with_projects -->
<g id="edge18" class="edge">
<title>txn_api_logged_in&#45;&gt;client_with_projects</title>
<path fill="none" stroke="black" d="M2862.04,-175.56C3151.02,-168.49 4408.54,-137.21 4566.92,-123.78"/>
<polygon fill="black" stroke="black" points="4566.82,-127.31 4576.41,-122.81 4566.11,-120.35 4566.82,-127.31"/>
</g>
<!-- project_with_mixed_items -->
<g id="node39" class="node">
<title>project_with_mixed_items</title>
<polygon fill="none" stroke="black" points="4882,-124 4722,-124 4722,-88 4882,-88 4882,-124"/>
<text xml:space="preserve" text-anchor="middle" x="4802" y="-100.58" font-family="Times,serif" font-size="14.00">project_with_mixed_items</text>
</g>
<!-- txn_api_logged_in&#45;&gt;project_with_mixed_items -->
<g id="edge19" class="edge">
<title>txn_api_logged_in&#45;&gt;project_with_mixed_items</title>
<path fill="none" stroke="black" d="M2861.89,-175.63C3164.93,-168.57 4540.68,-136.07 4710.17,-123.94"/>
<polygon fill="black" stroke="black" points="4710.38,-127.44 4720.05,-123.1 4709.79,-120.46 4710.38,-127.44"/>
</g>
<!-- project_with_item -->
<g id="node40" class="node">
<title>project_with_item</title>
<polygon fill="none" stroke="black" points="5015.5,-124 4900.5,-124 4900.5,-88 5015.5,-88 5015.5,-124"/>
<text xml:space="preserve" text-anchor="middle" x="4958" y="-100.58" font-family="Times,serif" font-size="14.00">project_with_item</text>
</g>
<!-- txn_api_logged_in&#45;&gt;project_with_item -->
<g id="edge20" class="edge">
<title>txn_api_logged_in&#45;&gt;project_with_item</title>
<path fill="none" stroke="black" d="M2861.91,-175.69C3184.9,-168.45 4731.69,-133.54 4888.88,-123.49"/>
<polygon fill="black" stroke="black" points="4888.87,-127 4898.54,-122.67 4888.28,-120.03 4888.87,-127"/>
</g>
<!-- project_id -->
<g id="node41" class="node">
<title>project_id</title>
<polygon fill="none" stroke="black" points="86,-124 16,-124 16,-88 86,-88 86,-124"/>
<text xml:space="preserve" text-anchor="middle" x="51" y="-100.58" font-family="Times,serif" font-size="14.00">project_id</text>
</g>
<!-- txn_api_logged_in&#45;&gt;project_id -->
<g id="edge21" class="edge">
<title>txn_api_logged_in&#45;&gt;project_id</title>
<path fill="none" stroke="black" d="M2743.89,-173.43C2675.91,-169.47 2560.94,-163.22 2462,-160 2202.45,-151.56 399.81,-173.61 97.15,-123.8"/>
<polygon fill="black" stroke="black" points="98.17,-120.43 87.71,-122.11 96.94,-127.32 98.17,-120.43"/>
</g>
<!-- seeded -->
<g id="node42" class="node">
<title>seeded</title>
<polygon fill="none" stroke="black" points="158,-124 104,-124 104,-88 158,-88 158,-124"/>
<text xml:space="preserve" text-anchor="middle" x="131" y="-100.58" font-family="Times,serif" font-size="14.00">seeded</text>
</g>
<!-- txn_api_logged_in&#45;&gt;seeded -->
<g id="edge22" class="edge">
<title>txn_api_logged_in&#45;&gt;seeded</title>
<path fill="none" stroke="black" d="M2743.89,-173.44C2675.9,-169.49 2560.94,-163.24 2462,-160 2337.29,-155.91 378.12,-153 169.65,-123.39"/>
<polygon fill="black" stroke="black" points="170.43,-119.97 159.97,-121.66 169.2,-126.87 170.43,-119.97"/>
</g>
<!-- item_with_tasks -->
<g id="node43" class="node">
<title>item_with_tasks</title>
<polygon fill="none" stroke="black" points="280.25,-124 175.75,-124 175.75,-88 280.25,-88 280.25,-124"/>
<text xml:space="preserve" text-anchor="middle" x="228" y="-100.58" font-family="Times,serif" font-size="14.00">item_with_tasks</text>
</g>
<!-- txn_api_logged_in&#45;&gt;item_with_tasks -->
<g id="edge23" class="edge">
<title>txn_api_logged_in&#45;&gt;item_with_tasks</title>
<path fill="none" stroke="black" d="M2743.89,-173.46C2675.9,-169.52 2560.93,-163.28 2462,-160 2224.07,-152.1 575.62,-158.51 292.09,-124.09"/>
<polygon fill="black" stroke="black" points="292.6,-120.63 282.22,-122.78 291.68,-127.57 292.6,-120.63"/>
</g>
<!-- one_of_each_state -->
<g id="node44" class="node">
<title>one_of_each_state</title>
<polygon fill="none" stroke="black" points="415.62,-124 298.38,-124 298.38,-88 415.62,-88 415.62,-124"/>
<text xml:space="preserve" text-anchor="middle" x="357" y="-100.58" font-family="Times,serif" font-size="14.00">one_of_each_state</text>
</g>
<!-- txn_api_logged_in&#45;&gt;one_of_each_state -->
<g id="edge24" class="edge">
<title>txn_api_logged_in&#45;&gt;one_of_each_state</title>
<path fill="none" stroke="black" d="M2743.88,-173.48C2675.9,-169.56 2560.93,-163.34 2462,-160 2012.95,-144.84 891.22,-183.47 427.22,-124.23"/>
<polygon fill="black" stroke="black" points="427.91,-120.79 417.54,-122.96 427,-127.73 427.91,-120.79"/>
</g>
<!-- item_with_dependency_and_task -->
<g id="node45" class="node">
<title>item_with_dependency_and_task</title>
<polygon fill="none" stroke="black" points="630.75,-124 433.25,-124 433.25,-88 630.75,-88 630.75,-124"/>
<text xml:space="preserve" text-anchor="middle" x="532" y="-100.58" font-family="Times,serif" font-size="14.00">item_with_dependency_and_task</text>
</g>
<!-- txn_api_logged_in&#45;&gt;item_with_dependency_and_task -->
<g id="edge25" class="edge">
<title>txn_api_logged_in&#45;&gt;item_with_dependency_and_task</title>
<path fill="none" stroke="black" d="M2743.88,-173.51C2675.9,-169.63 2560.93,-163.44 2462,-160 1656.31,-131.96 1448.73,-194.55 642.41,-124.13"/>
<polygon fill="black" stroke="black" points="642.88,-120.66 632.61,-123.27 642.26,-127.63 642.88,-120.66"/>
</g>
<!-- project_with_ordered_items -->
<g id="node46" class="node">
<title>project_with_ordered_items</title>
<polygon fill="none" stroke="black" points="816.75,-124 649.25,-124 649.25,-88 816.75,-88 816.75,-124"/>
<text xml:space="preserve" text-anchor="middle" x="733" y="-100.58" font-family="Times,serif" font-size="14.00">project_with_ordered_items</text>
</g>
<!-- txn_api_logged_in&#45;&gt;project_with_ordered_items -->
<g id="edge26" class="edge">
<title>txn_api_logged_in&#45;&gt;project_with_ordered_items</title>
<path fill="none" stroke="black" d="M2743.88,-173.55C2675.9,-169.71 2560.93,-163.55 2462,-160 2102.23,-147.08 1205.95,-160.54 828.36,-124.1"/>
<polygon fill="black" stroke="black" points="828.87,-120.64 818.57,-123.13 828.18,-127.6 828.87,-120.64"/>
</g>
<!-- project_and_client -->
<g id="node47" class="node">
<title>project_and_client</title>
<polygon fill="none" stroke="black" points="950.88,-124 835.12,-124 835.12,-88 950.88,-88 950.88,-124"/>
<text xml:space="preserve" text-anchor="middle" x="893" y="-100.58" font-family="Times,serif" font-size="14.00">project_and_client</text>
</g>
<!-- txn_api_logged_in&#45;&gt;project_and_client -->
<g id="edge27" class="edge">
<title>txn_api_logged_in&#45;&gt;project_and_client</title>
<path fill="none" stroke="black" d="M2743.88,-173.59C2675.89,-169.77 2560.92,-163.65 2462,-160 2132.02,-147.82 1309.12,-168.87 962.68,-124.13"/>
<polygon fill="black" stroke="black" points="963.19,-120.67 952.81,-122.82 962.26,-127.61 963.19,-120.67"/>
</g>
<!-- book_crud_tester -->
<g id="node48" class="node">
<title>book_crud_tester</title>
<polygon fill="none" stroke="black" points="1079.25,-124 968.75,-124 968.75,-88 1079.25,-88 1079.25,-124"/>
<text xml:space="preserve" text-anchor="middle" x="1024" y="-100.58" font-family="Times,serif" font-size="14.00">book_crud_tester</text>
</g>
<!-- txn_api_logged_in&#45;&gt;book_crud_tester -->
<g id="edge28" class="edge">
<title>txn_api_logged_in&#45;&gt;book_crud_tester</title>
<path fill="none" stroke="black" d="M2743.88,-173.63C2675.89,-169.85 2560.92,-163.76 2462,-160 2160.36,-148.53 1408.22,-167.06 1090.8,-124.16"/>
<polygon fill="black" stroke="black" points="1091.58,-120.74 1081.19,-122.82 1090.61,-127.67 1091.58,-120.74"/>
</g>
<!-- autotask_crud_tester -->
<g id="node49" class="node">
<title>autotask_crud_tester</title>
<polygon fill="none" stroke="black" points="1224.88,-124 1097.12,-124 1097.12,-88 1224.88,-88 1224.88,-124"/>
<text xml:space="preserve" text-anchor="middle" x="1161" y="-100.58" font-family="Times,serif" font-size="14.00">autotask_crud_tester</text>
</g>
<!-- txn_api_logged_in&#45;&gt;autotask_crud_tester -->
<g id="edge29" class="edge">
<title>txn_api_logged_in&#45;&gt;autotask_crud_tester</title>
<path fill="none" stroke="black" d="M2743.88,-173.68C2675.89,-169.96 2560.91,-163.91 2462,-160 2192.8,-149.35 1522.71,-158.88 1236.62,-124.14"/>
<polygon fill="black" stroke="black" points="1237.22,-120.69 1226.86,-122.91 1236.35,-127.63 1237.22,-120.69"/>
</g>
<!-- cooking_technique_crud_tester -->
<g id="node50" class="node">
<title>cooking_technique_crud_tester</title>
<polygon fill="none" stroke="black" points="1429.12,-124 1242.88,-124 1242.88,-88 1429.12,-88 1429.12,-124"/>
<text xml:space="preserve" text-anchor="middle" x="1336" y="-100.58" font-family="Times,serif" font-size="14.00">cooking_technique_crud_tester</text>
</g>
<!-- txn_api_logged_in&#45;&gt;cooking_technique_crud_tester -->
<g id="edge30" class="edge">
<title>txn_api_logged_in&#45;&gt;cooking_technique_crud_tester</title>
<path fill="none" stroke="black" d="M2744.18,-173.81C2676.22,-170.17 2561.05,-164.21 2462,-160 2010.8,-140.82 1893.06,-169.05 1441.01,-124.23"/>
<polygon fill="black" stroke="black" points="1441.4,-120.75 1431.1,-123.23 1440.7,-127.71 1441.4,-120.75"/>
</g>
<!-- pattern_crud_tester -->
<g id="node51" class="node">
<title>pattern_crud_tester</title>
<polygon fill="none" stroke="black" points="1567.12,-124 1446.88,-124 1446.88,-88 1567.12,-88 1567.12,-124"/>
<text xml:space="preserve" text-anchor="middle" x="1507" y="-100.58" font-family="Times,serif" font-size="14.00">pattern_crud_tester</text>
</g>
<!-- txn_api_logged_in&#45;&gt;pattern_crud_tester -->
<g id="edge31" class="edge">
<title>txn_api_logged_in&#45;&gt;pattern_crud_tester</title>
<path fill="none" stroke="black" d="M2744.17,-173.9C2676.22,-170.36 2561.04,-164.48 2462,-160 2072.49,-142.37 1968.8,-178.03 1578.89,-124.06"/>
<polygon fill="black" stroke="black" points="1579.45,-120.61 1569.06,-122.69 1578.48,-127.54 1579.45,-120.61"/>
</g>
<!-- money_wasted_crud_tester -->
<g id="node52" class="node">
<title>money_wasted_crud_tester</title>
<polygon fill="none" stroke="black" points="1748.5,-124 1585.5,-124 1585.5,-88 1748.5,-88 1748.5,-124"/>
<text xml:space="preserve" text-anchor="middle" x="1667" y="-100.58" font-family="Times,serif" font-size="14.00">money_wasted_crud_tester</text>
</g>
<!-- txn_api_logged_in&#45;&gt;money_wasted_crud_tester -->
<g id="edge32" class="edge">
<title>txn_api_logged_in&#45;&gt;money_wasted_crud_tester</title>
<path fill="none" stroke="black" d="M2744.17,-174.07C2538.24,-163.82 1857.5,-129.87 1760.07,-123.76"/>
<polygon fill="black" stroke="black" points="1760.58,-120.29 1750.35,-123.06 1760.07,-127.27 1760.58,-120.29"/>
</g>
<!-- client_with_read_dates -->
<g id="node53" class="node">
<title>client_with_read_dates</title>
<polygon fill="none" stroke="black" points="1907.62,-124 1766.38,-124 1766.38,-88 1907.62,-88 1907.62,-124"/>
<text xml:space="preserve" text-anchor="middle" x="1837" y="-100.58" font-family="Times,serif" font-size="14.00">client_with_read_dates</text>
</g>
<!-- txn_api_logged_in&#45;&gt;client_with_read_dates -->
<g id="edge33" class="edge">
<title>txn_api_logged_in&#45;&gt;client_with_read_dates</title>
<path fill="none" stroke="black" d="M2744.2,-174.01C2565.86,-164.86 2036.57,-137.18 1919.13,-124.17"/>
<polygon fill="black" stroke="black" points="1919.82,-120.73 1909.47,-122.99 1918.97,-127.67 1919.82,-120.73"/>
</g>
<!-- client_with_finish_dates -->
<g id="node54" class="node">
<title>client_with_finish_dates</title>
<polygon fill="none" stroke="black" points="2072.62,-124 1925.38,-124 1925.38,-88 2072.62,-88 2072.62,-124"/>
<text xml:space="preserve" text-anchor="middle" x="1999" y="-100.58" font-family="Times,serif" font-size="14.00">client_with_finish_dates</text>
</g>
<!-- txn_api_logged_in&#45;&gt;client_with_finish_dates -->
<g id="edge34" class="edge">
<title>txn_api_logged_in&#45;&gt;client_with_finish_dates</title>
<path fill="none" stroke="black" d="M2743.92,-173.67C2599.21,-165.34 2228.89,-143.06 2084.36,-124.33"/>
<polygon fill="black" stroke="black" points="2085,-120.89 2074.62,-123.02 2084.06,-127.83 2085,-120.89"/>
</g>
<!-- client_with_completed_tasks -->
<g id="node55" class="node">
<title>client_with_completed_tasks</title>
<polygon fill="none" stroke="black" points="2263.75,-124 2090.25,-124 2090.25,-88 2263.75,-88 2263.75,-124"/>
<text xml:space="preserve" text-anchor="middle" x="2177" y="-100.58" font-family="Times,serif" font-size="14.00">client_with_completed_tasks</text>
</g>
<!-- txn_api_logged_in&#45;&gt;client_with_completed_tasks -->
<g id="edge35" class="edge">
<title>txn_api_logged_in&#45;&gt;client_with_completed_tasks</title>
<path fill="none" stroke="black" d="M2744.01,-172.57C2648.02,-165.03 2451.84,-148.29 2275.4,-124.27"/>
<polygon fill="black" stroke="black" points="2275.96,-120.82 2265.57,-122.92 2275.01,-127.75 2275.96,-120.82"/>
</g>
<!-- client_with_rows -->
<g id="node56" class="node">
<title>client_with_rows</title>
<polygon fill="none" stroke="black" points="2391.88,-124 2282.12,-124 2282.12,-88 2391.88,-88 2391.88,-124"/>
<text xml:space="preserve" text-anchor="middle" x="2337" y="-100.58" font-family="Times,serif" font-size="14.00">client_with_rows</text>
</g>
<!-- txn_api_logged_in&#45;&gt;client_with_rows -->
<g id="edge36" class="edge">
<title>txn_api_logged_in&#45;&gt;client_with_rows</title>
<path fill="none" stroke="black" d="M2744.03,-171.62C2667.56,-164.12 2529.92,-148.81 2403.11,-124.27"/>
<polygon fill="black" stroke="black" points="2404.03,-120.89 2393.54,-122.4 2402.68,-127.76 2404.03,-120.89"/>
</g>
<!-- countdown_crud_tester -->
<g id="node57" class="node">
<title>countdown_crud_tester</title>
<polygon fill="none" stroke="black" points="2552.38,-124 2409.62,-124 2409.62,-88 2552.38,-88 2552.38,-124"/>
<text xml:space="preserve" text-anchor="middle" x="2481" y="-100.58" font-family="Times,serif" font-size="14.00">countdown_crud_tester</text>
</g>
<!-- txn_api_logged_in&#45;&gt;countdown_crud_tester -->
<g id="edge37" class="edge">
<title>txn_api_logged_in&#45;&gt;countdown_crud_tester</title>
<path fill="none" stroke="black" d="M2743.94,-164.16C2693.39,-153.17 2620.06,-137.23 2563.67,-124.97"/>
<polygon fill="black" stroke="black" points="2564.63,-121.6 2554.11,-122.89 2563.14,-128.44 2564.63,-121.6"/>
</g>
<!-- users_logged_in_context -->
<g id="node59" class="node">
<title>users_logged_in_context</title>
<polygon fill="none" stroke="black" points="2721.5,-124 2570.5,-124 2570.5,-88 2721.5,-88 2721.5,-124"/>
<text xml:space="preserve" text-anchor="middle" x="2646" y="-100.58" font-family="Times,serif" font-size="14.00">users_logged_in_context</text>
</g>
<!-- txn_api_logged_in&#45;&gt;users_logged_in_context -->
<g id="edge39" class="edge">
<title>txn_api_logged_in&#45;&gt;users_logged_in_context</title>
<path fill="none" stroke="black" d="M2763.79,-159.52C2743.1,-150.29 2717.52,-138.89 2695.48,-129.06"/>
<polygon fill="black" stroke="black" points="2696.93,-125.87 2686.37,-125 2694.08,-132.27 2696.93,-125.87"/>
</g>
<!-- duration_crud_tester -->
<g id="node63" class="node">
<title>duration_crud_tester</title>
<polygon fill="none" stroke="black" points="2866.88,-124 2739.12,-124 2739.12,-88 2866.88,-88 2866.88,-124"/>
<text xml:space="preserve" text-anchor="middle" x="2803" y="-100.58" font-family="Times,serif" font-size="14.00">duration_crud_tester</text>
</g>
<!-- txn_api_logged_in&#45;&gt;duration_crud_tester -->
<g id="edge43" class="edge">
<title>txn_api_logged_in&#45;&gt;duration_crud_tester</title>
<path fill="none" stroke="black" d="M2803,-159.7C2803,-152.41 2803,-143.73 2803,-135.54"/>
<polygon fill="black" stroke="black" points="2806.5,-135.62 2803,-125.62 2799.5,-135.62 2806.5,-135.62"/>
</g>
<!-- shop_crud_tester -->
<g id="node64" class="node">
<title>shop_crud_tester</title>
<polygon fill="none" stroke="black" points="2992.75,-124 2885.25,-124 2885.25,-88 2992.75,-88 2992.75,-124"/>
<text xml:space="preserve" text-anchor="middle" x="2939" y="-100.58" font-family="Times,serif" font-size="14.00">shop_crud_tester</text>
</g>
<!-- txn_api_logged_in&#45;&gt;shop_crud_tester -->
<g id="edge44" class="edge">
<title>txn_api_logged_in&#45;&gt;shop_crud_tester</title>
<path fill="none" stroke="black" d="M2836.97,-159.52C2854.63,-150.43 2876.41,-139.22 2895.31,-129.49"/>
<polygon fill="black" stroke="black" points="2896.83,-132.64 2904.12,-124.95 2893.63,-126.42 2896.83,-132.64"/>
</g>
<!-- autofun_crud_tester -->
<g id="node65" class="node">
<title>autofun_crud_tester</title>
<polygon fill="none" stroke="black" points="3135,-124 3011,-124 3011,-88 3135,-88 3135,-124"/>
<text xml:space="preserve" text-anchor="middle" x="3073" y="-100.58" font-family="Times,serif" font-size="14.00">autofun_crud_tester</text>
</g>
<!-- txn_api_logged_in&#45;&gt;autofun_crud_tester -->
<g id="edge45" class="edge">
<title>txn_api_logged_in&#45;&gt;autofun_crud_tester</title>
<path fill="none" stroke="black" d="M2861.92,-161.72C2902.46,-151.21 2956.58,-137.18 2999.88,-125.96"/>
<polygon fill="black" stroke="black" points="3000.65,-129.37 3009.46,-123.47 2998.9,-122.6 3000.65,-129.37"/>
</g>
<!-- box_crud_tester -->
<g id="node66" class="node">
<title>box_crud_tester</title>
<polygon fill="none" stroke="black" points="3256.5,-124 3153.5,-124 3153.5,-88 3256.5,-88 3256.5,-124"/>
<text xml:space="preserve" text-anchor="middle" x="3205" y="-100.58" font-family="Times,serif" font-size="14.00">box_crud_tester</text>
</g>
<!-- txn_api_logged_in&#45;&gt;box_crud_tester -->
<g id="edge46" class="edge">
<title>txn_api_logged_in&#45;&gt;box_crud_tester</title>
<path fill="none" stroke="black" d="M2861.92,-169.98C2927.87,-161.65 3038.06,-146.31 3142.16,-124.25"/>
<polygon fill="black" stroke="black" points="3142.67,-127.72 3151.71,-122.2 3141.2,-120.88 3142.67,-127.72"/>
</g>
<!-- article_crud_tester -->
<g id="node67" class="node">
<title>article_crud_tester</title>
<polygon fill="none" stroke="black" points="3391.25,-124 3274.75,-124 3274.75,-88 3391.25,-88 3391.25,-124"/>
<text xml:space="preserve" text-anchor="middle" x="3333" y="-100.58" font-family="Times,serif" font-size="14.00">article_crud_tester</text>
</g>
<!-- txn_api_logged_in&#45;&gt;article_crud_tester -->
<g id="edge47" class="edge">
<title>txn_api_logged_in&#45;&gt;article_crud_tester</title>
<path fill="none" stroke="black" d="M2861.84,-172.81C2947.99,-166.13 3113.62,-151.15 3263.08,-124.41"/>
<polygon fill="black" stroke="black" points="3263.57,-127.88 3272.78,-122.65 3262.32,-120.99 3263.57,-127.88"/>
</g>
<!-- api_with_redis -->
<g id="node69" class="node">
<title>api_with_redis</title>
<polygon fill="none" stroke="black" points="5130.12,-124 5033.88,-124 5033.88,-88 5130.12,-88 5130.12,-124"/>
<text xml:space="preserve" text-anchor="middle" x="5082" y="-100.58" font-family="Times,serif" font-size="14.00">api_with_redis</text>
</g>
<!-- txn_api_logged_in&#45;&gt;api_with_redis -->
<g id="edge48" class="edge">
<title>txn_api_logged_in&#45;&gt;api_with_redis</title>
<path fill="none" stroke="black" d="M2862.04,-175.64C3198.71,-167.91 4866.17,-129.52 5021.91,-123.07"/>
<polygon fill="black" stroke="black" points="5022.08,-126.57 5031.87,-122.51 5021.69,-119.58 5022.08,-126.57"/>
</g>
<!-- task_crud_tester -->
<g id="node70" class="node">
<title>task_crud_tester</title>
<polygon fill="none" stroke="black" points="3639.25,-124 3534.75,-124 3534.75,-88 3639.25,-88 3639.25,-124"/>
<text xml:space="preserve" text-anchor="middle" x="3587" y="-100.58" font-family="Times,serif" font-size="14.00">task_crud_tester</text>
</g>
<!-- txn_api_logged_in&#45;&gt;task_crud_tester -->
<g id="edge50" class="edge">
<title>txn_api_logged_in&#45;&gt;task_crud_tester</title>
<path fill="none" stroke="black" d="M2862.06,-176.63C2984.2,-175 3273.41,-166.75 3523.45,-124.24"/>
<polygon fill="black" stroke="black" points="3523.83,-127.73 3533.09,-122.58 3522.64,-120.83 3523.83,-127.73"/>
</g>
<!-- recipe_crud_tester -->
<g id="node71" class="node">
<title>recipe_crud_tester</title>
<polygon fill="none" stroke="black" points="3772.88,-124 3657.12,-124 3657.12,-88 3772.88,-88 3772.88,-124"/>
<text xml:space="preserve" text-anchor="middle" x="3715" y="-100.58" font-family="Times,serif" font-size="14.00">recipe_crud_tester</text>
</g>
<!-- txn_api_logged_in&#45;&gt;recipe_crud_tester -->
<g id="edge51" class="edge">
<title>txn_api_logged_in&#45;&gt;recipe_crud_tester</title>
<path fill="none" stroke="black" d="M2862.06,-177.05C2998.65,-176.38 3346.93,-170.02 3645.62,-124.2"/>
<polygon fill="black" stroke="black" points="3645.83,-127.71 3655.17,-122.71 3644.75,-120.79 3645.83,-127.71"/>
</g>
<!-- habit_test_data -->
<g id="node72" class="node">
<title>habit_test_data</title>
<polygon fill="none" stroke="black" points="3888.88,-124 3791.12,-124 3791.12,-88 3888.88,-88 3888.88,-124"/>
<text xml:space="preserve" text-anchor="middle" x="3840" y="-100.58" font-family="Times,serif" font-size="14.00">habit_test_data</text>
</g>
<!-- txn_api_logged_in&#45;&gt;habit_test_data -->
<g id="edge52" class="edge">
<title>txn_api_logged_in&#45;&gt;habit_test_data</title>
<path fill="none" stroke="black" d="M2862.11,-175.59C3042.06,-171.02 3582.42,-155.18 3779.72,-124.08"/>
<polygon fill="black" stroke="black" points="3780.03,-127.58 3789.33,-122.5 3778.89,-120.67 3780.03,-127.58"/>
</g>
<!-- message_crud_tester -->
<g id="node73" class="node">
<title>message_crud_tester</title>
<polygon fill="none" stroke="black" points="4035.25,-124 3906.75,-124 3906.75,-88 4035.25,-88 4035.25,-124"/>
<text xml:space="preserve" text-anchor="middle" x="3971" y="-100.58" font-family="Times,serif" font-size="14.00">message_crud_tester</text>
</g>
<!-- txn_api_logged_in&#45;&gt;message_crud_tester -->
<g id="edge53" class="edge">
<title>txn_api_logged_in&#45;&gt;message_crud_tester</title>
<path fill="none" stroke="black" d="M2861.98,-175.55C3055.9,-170.56 3673.52,-152.91 3895.42,-124.16"/>
<polygon fill="black" stroke="black" points="3895.69,-127.66 3905.13,-122.86 3894.75,-120.72 3895.69,-127.66"/>
</g>
<!-- chat_crud_tester -->
<g id="node74" class="node">
<title>chat_crud_tester</title>
<polygon fill="none" stroke="black" points="4158.62,-124 4053.38,-124 4053.38,-88 4158.62,-88 4158.62,-124"/>
<text xml:space="preserve" text-anchor="middle" x="4106" y="-100.58" font-family="Times,serif" font-size="14.00">chat_crud_tester</text>
</g>
<!-- txn_api_logged_in&#45;&gt;chat_crud_tester -->
<g id="edge54" class="edge">
<title>txn_api_logged_in&#45;&gt;chat_crud_tester</title>
<path fill="none" stroke="black" d="M2861.93,-176.24C3072.74,-173.25 3789.74,-160.69 4041.78,-124.06"/>
<polygon fill="black" stroke="black" points="4042.21,-127.54 4051.57,-122.58 4041.16,-120.61 4042.21,-127.54"/>
</g>
<!-- users_admin_context -->
<g id="node60" class="node">
<title>users_admin_context</title>
<polygon fill="none" stroke="black" points="5279.75,-124 5148.25,-124 5148.25,-88 5279.75,-88 5279.75,-124"/>
<text xml:space="preserve" text-anchor="middle" x="5214" y="-100.58" font-family="Times,serif" font-size="14.00">users_admin_context</text>
</g>
<!-- txn_api_logged_in_admin&#45;&gt;users_admin_context -->
<g id="edge40" class="edge">
<title>txn_api_logged_in_admin&#45;&gt;users_admin_context</title>
<path fill="none" stroke="black" d="M3937.48,-161.17C3940.69,-160.74 3943.87,-160.34 3947,-160 4470.12,-102.51 4611.23,-189.64 5136.57,-124.14"/>
<polygon fill="black" stroke="black" points="5136.88,-127.63 5146.37,-122.91 5136.01,-120.68 5136.88,-127.63"/>
</g>
<!-- ruff_clean_output -->
<g id="node20" class="node">
<title>ruff_clean_output</title>
<polygon fill="none" stroke="black" points="4143.38,-196 4030.62,-196 4030.62,-160 4143.38,-160 4143.38,-196"/>
<text xml:space="preserve" text-anchor="middle" x="4087" y="-172.57" font-family="Times,serif" font-size="14.00">ruff_clean_output</text>
</g>
<!-- ruff_with_issues_output -->
<g id="node21" class="node">
<title>ruff_with_issues_output</title>
<polygon fill="none" stroke="black" points="4308.25,-196 4161.75,-196 4161.75,-160 4308.25,-160 4308.25,-196"/>
<text xml:space="preserve" text-anchor="middle" x="4235" y="-172.57" font-family="Times,serif" font-size="14.00">ruff_with_issues_output</text>
</g>
<!-- mypy_clean_output -->
<g id="node22" class="node">
<title>mypy_clean_output</title>
<polygon fill="none" stroke="black" points="4449.62,-196 4326.38,-196 4326.38,-160 4449.62,-160 4449.62,-196"/>
<text xml:space="preserve" text-anchor="middle" x="4388" y="-172.57" font-family="Times,serif" font-size="14.00">mypy_clean_output</text>
</g>
<!-- bandit_with_issues_output -->
<g id="node23" class="node">
<title>bandit_with_issues_output</title>
<polygon fill="none" stroke="black" points="4628,-196 4468,-196 4468,-160 4628,-160 4628,-196"/>
<text xml:space="preserve" text-anchor="middle" x="4548" y="-172.57" font-family="Times,serif" font-size="14.00">bandit_with_issues_output</text>
</g>
<!-- tokei_output -->
<g id="node24" class="node">
<title>tokei_output</title>
<polygon fill="none" stroke="black" points="4730.12,-196 4645.88,-196 4645.88,-160 4730.12,-160 4730.12,-196"/>
<text xml:space="preserve" text-anchor="middle" x="4688" y="-172.57" font-family="Times,serif" font-size="14.00">tokei_output</text>
</g>
<!-- docker_images_output -->
<g id="node25" class="node">
<title>docker_images_output</title>
<polygon fill="none" stroke="black" points="4887.5,-196 4748.5,-196 4748.5,-160 4887.5,-160 4887.5,-196"/>
<text xml:space="preserve" text-anchor="middle" x="4818" y="-172.57" font-family="Times,serif" font-size="14.00">docker_images_output</text>
</g>
<!-- seed_random -->
<g id="node26" class="node">
<title>seed_random</title>
<polygon fill="none" stroke="black" points="4994.38,-196 4905.62,-196 4905.62,-160 4994.38,-160 4994.38,-196"/>
<text xml:space="preserve" text-anchor="middle" x="4950" y="-172.57" font-family="Times,serif" font-size="14.00">seed_random</text>
</g>
<!-- db -->
<g id="node27" class="node">
<title>db</title>
<polygon fill="none" stroke="black" points="5066,-196 5012,-196 5012,-160 5066,-160 5066,-196"/>
<text xml:space="preserve" text-anchor="middle" x="5039" y="-172.57" font-family="Times,serif" font-size="14.00">db</text>
</g>
<!-- clear_verifier_cache -->
<g id="node28" class="node">
<title>clear_verifier_cache</title>
<polygon fill="none" stroke="black" points="5208,-196 5084,-196 5084,-160 5208,-160 5208,-196"/>
<text xml:space="preserve" text-anchor="middle" x="5146" y="-172.57" font-family="Times,serif" font-size="14.00">clear_verifier_cache</text>
</g>
<!-- test_user -->
<g id="node32" class="node">
<title>test_user</title>
<polygon fill="none" stroke="black" points="5408,-196 5344,-196 5344,-160 5408,-160 5408,-196"/>
<text xml:space="preserve" text-anchor="middle" x="5376" y="-172.57" font-family="Times,serif" font-size="14.00">test_user</text>
</g>
<!-- test_admin_user -->
<g id="node33" class="node">
<title>test_admin_user</title>
<polygon fill="none" stroke="black" points="5216.62,-52 5111.38,-52 5111.38,-16 5216.62,-16 5216.62,-52"/>
<text xml:space="preserve" text-anchor="middle" x="5164" y="-28.57" font-family="Times,serif" font-size="14.00">test_admin_user</text>
</g>
<!-- jwt_handler -->
<g id="node34" class="node">
<title>jwt_handler</title>
<polygon fill="none" stroke="black" points="5315.62,-52 5234.38,-52 5234.38,-16 5315.62,-16 5315.62,-52"/>
<text xml:space="preserve" text-anchor="middle" x="5275" y="-28.57" font-family="Times,serif" font-size="14.00">jwt_handler</text>
</g>
<!-- users_test_context&#45;&gt;test_admin_user -->
<g id="edge13" class="edge">
<title>users_test_context&#45;&gt;test_admin_user</title>
<path fill="none" stroke="black" d="M5308.05,-87.52C5282.06,-78.04 5249.75,-66.26 5222.32,-56.26"/>
<polygon fill="black" stroke="black" points="5223.69,-53.04 5213.1,-52.9 5221.29,-59.61 5223.69,-53.04"/>
</g>
<!-- users_test_context&#45;&gt;jwt_handler -->
<g id="edge14" class="edge">
<title>users_test_context&#45;&gt;jwt_handler</title>
<path fill="none" stroke="black" d="M5335.98,-87.7C5326.24,-79.28 5314.36,-69.02 5303.69,-59.79"/>
<polygon fill="black" stroke="black" points="5306.07,-57.23 5296.22,-53.34 5301.5,-62.52 5306.07,-57.23"/>
</g>
<!-- test_regular_user -->
<g id="node61" class="node">
<title>test_regular_user</title>
<polygon fill="none" stroke="black" points="5442.5,-52 5333.5,-52 5333.5,-16 5442.5,-16 5442.5,-52"/>
<text xml:space="preserve" text-anchor="middle" x="5388" y="-28.57" font-family="Times,serif" font-size="14.00">test_regular_user</text>
</g>
<!-- users_test_context&#45;&gt;test_regular_user -->
<g id="edge41" class="edge">
<title>users_test_context&#45;&gt;test_regular_user</title>
<path fill="none" stroke="black" d="M5363.91,-87.7C5367.4,-80.07 5371.58,-70.92 5375.48,-62.4"/>
<polygon fill="black" stroke="black" points="5378.58,-64.03 5379.55,-53.48 5372.21,-61.12 5378.58,-64.03"/>
</g>
<!-- test_regular_user_2 -->
<g id="node62" class="node">
<title>test_regular_user_2</title>
<polygon fill="none" stroke="black" points="5583.25,-52 5460.75,-52 5460.75,-16 5583.25,-16 5583.25,-52"/>
<text xml:space="preserve" text-anchor="middle" x="5522" y="-28.57" font-family="Times,serif" font-size="14.00">test_regular_user_2</text>
</g>
<!-- users_test_context&#45;&gt;test_regular_user_2 -->
<g id="edge42" class="edge">
<title>users_test_context&#45;&gt;test_regular_user_2</title>
<path fill="none" stroke="black" d="M5397.46,-87.52C5419.53,-78.21 5446.88,-66.68 5470.32,-56.79"/>
<polygon fill="black" stroke="black" points="5471.53,-60.08 5479.39,-52.97 5468.81,-53.63 5471.53,-60.08"/>
</g>
<!-- test_redis -->
<g id="node68" class="node">
<title>test_redis</title>
<polygon fill="none" stroke="black" points="3636.88,-196 3569.12,-196 3569.12,-160 3636.88,-160 3636.88,-196"/>
<text xml:space="preserve" text-anchor="middle" x="3603" y="-172.57" font-family="Times,serif" font-size="14.00">test_redis</text>
</g>
<!-- test_redis&#45;&gt;api_with_redis -->
<g id="edge49" class="edge">
<title>test_redis&#45;&gt;api_with_redis</title>
<path fill="none" stroke="black" d="M3636.94,-162.34C3639.96,-161.41 3643.01,-160.61 3646,-160 3942.84,-99.43 4704.15,-170.52 5022.25,-124.12"/>
<polygon fill="black" stroke="black" points="5022.53,-127.62 5031.88,-122.65 5021.47,-120.7 5022.53,-127.62"/>
</g>
<!-- insert_testing_data -->
<g id="node75" class="node">
<title>insert_testing_data</title>
<polygon fill="none" stroke="black" points="5616,-196 5498,-196 5498,-160 5616,-160 5616,-196"/>
<text xml:space="preserve" text-anchor="middle" x="5557" y="-172.57" font-family="Times,serif" font-size="14.00">insert_testing_data</text>
</g>
</g>
</svg>
