<?xml version="1.0" encoding="UTF-8" standalone="no"?>
<!DOCTYPE svg PUBLIC "-//W3C//DTD SVG 1.1//EN"
 "http://www.w3.org/Graphics/SVG/1.1/DTD/svg11.dtd">
<!-- Generated by graphviz version 14.1.1 (20251213.1925)
 -->
<!-- Pages: 1 -->
<svg width="85pt" height="357pt"
 viewBox="0.00 0.00 85.00 357.00" xmlns="http://www.w3.org/2000/svg" xmlns:xlink="http://www.w3.org/1999/xlink">
<g id="graph0" class="graph" transform="scale(1 1) rotate(0) translate(4 353)">
<polygon fill="white" stroke="none" points="-4,4 -4,-353 80.75,-353 80.75,4 -4,4"/>
<!-- session -->
<g id="node1" class="node">
<title>session</title>
<polygon fill="#e6f7ff" stroke="#add8e6" points="76.75,-349 0,-349 0,-308 76.75,-308 76.75,-349"/>
<text xml:space="preserve" text-anchor="middle" x="38.38" y="-331.7" font-family="Times,serif" font-size="14.00">Session</text>
<text xml:space="preserve" text-anchor="middle" x="38.38" y="-315.2" font-family="Times,serif" font-size="14.00">(0 fixtures)</text>
</g>
<!-- package -->
<g id="node2" class="node">
<title>package</title>
<polygon fill="#f5f0f5" stroke="#d8bfd8" points="76.75,-272 0,-272 0,-231 76.75,-231 76.75,-272"/>
<text xml:space="preserve" text-anchor="middle" x="38.38" y="-254.7" font-family="Times,serif" font-size="14.00">Package</text>
<text xml:space="preserve" text-anchor="middle" x="38.38" y="-238.2" font-family="Times,serif" font-size="14.00">(0 fixtures)</text>
</g>
<!-- session&#45;&gt;package -->
<g id="edge1" class="edge">
<title>session&#45;&gt;package</title>
<path fill="none" stroke="black" d="M38.38,-307.79C38.38,-300.45 38.38,-291.91 38.38,-283.78"/>
<polygon fill="black" stroke="black" points="41.88,-283.85 38.38,-273.85 34.88,-283.85 41.88,-283.85"/>
</g>
<!-- module -->
<g id="node3" class="node">
<title>module</title>
<polygon fill="#f0fff0" stroke="#90ee90" points="76.75,-195 0,-195 0,-154 76.75,-154 76.75,-195"/>
<text xml:space="preserve" text-anchor="middle" x="38.38" y="-177.7" font-family="Times,serif" font-size="14.00">Module</text>
<text xml:space="preserve" text-anchor="middle" x="38.38" y="-161.2" font-family="Times,serif" font-size="14.00">(0 fixtures)</text>
</g>
<!-- package&#45;&gt;module -->
<g id="edge2" class="edge">
<title>package&#45;&gt;module</title>
<path fill="none" stroke="black" d="M38.38,-230.79C38.38,-223.45 38.38,-214.91 38.38,-206.78"/>
<polygon fill="black" stroke="black" points="41.88,-206.85 38.38,-196.85 34.88,-206.85 41.88,-206.85"/>
</g>
<!-- class -->
<g id="node4" class="node">
<title>class</title>
<polygon fill="#fff5e6" stroke="#ffdead" points="76.75,-118 0,-118 0,-77 76.75,-77 76.75,-118"/>
<text xml:space="preserve" text-anchor="middle" x="38.38" y="-100.7" font-family="Times,serif" font-size="14.00">Class</text>
<text xml:space="preserve" text-anchor="middle" x="38.38" y="-84.2" font-family="Times,serif" font-size="14.00">(0 fixtures)</text>
</g>
<!-- module&#45;&gt;class -->
<g id="edge3" class="edge">
<title>module&#45;&gt;class</title>
<path fill="none" stroke="black" d="M38.38,-153.79C38.38,-146.45 38.38,-137.91 38.38,-129.78"/>
<polygon fill="black" stroke="black" points="41.88,-129.85 38.38,-119.85 34.88,-129.85 41.88,-129.85"/>
</g>
<!-- function -->
<g id="node5" class="node">
<title>function</title>
<polygon fill="#fff0f5" stroke="#ffb6c1" points="76.75,-41 0,-41 0,0 76.75,0 76.75,-41"/>
<text xml:space="preserve" text-anchor="middle" x="38.38" y="-23.7" font-family="Times,serif" font-size="14.00">Function</text>
<text xml:space="preserve" text-anchor="middle" x="38.38" y="-7.2" font-family="Times,serif" font-size="14.00">(0 fixtures)</text>
</g>
<!-- class&#45;&gt;function -->
<g id="edge4" class="edge">
<title>class&#45;&gt;function</title>
<path fill="none" stroke="black" d="M38.38,-76.79C38.38,-69.45 38.38,-60.91 38.38,-52.78"/>
<polygon fill="black" stroke="black" points="41.88,-52.85 38.38,-42.85 34.88,-52.85 41.88,-52.85"/>
</g>
</g>
</svg>
