<?xml version="1.0" encoding="UTF-8" standalone="no"?>
<!DOCTYPE svg PUBLIC "-//W3C//DTD SVG 1.1//EN"
 "http://www.w3.org/Graphics/SVG/1.1/DTD/svg11.dtd">
<!-- Generated by graphviz version 14.1.2 (0)
 -->
<!-- Pages: 1 -->
<svg width="1014pt" height="241pt"
 viewBox="0.00 0.00 1014.00 241.00" xmlns="http://www.w3.org/2000/svg" xmlns:xlink="http://www.w3.org/1999/xlink">
<g id="graph0" class="graph" transform="scale(1 1) rotate(0) translate(4 237.46)">
<polygon fill="white" stroke="none" points="-4,4 -4,-237.46 1010,-237.46 1010,4 -4,4"/>
<!-- PyTest -->
<g id="node1" class="node">
<title>PyTest</title>
<polygon fill="none" stroke="black" points="54.25,-233.46 0,-233.46 0,-197.46 54.25,-197.46 54.25,-233.46"/>
<text xml:space="preserve" text-anchor="middle" x="27.12" y="-210.03" font-family="Times,serif" font-size="14.00">PyTest</text>
</g>
<!-- TE -->
<g id="node2" class="node">
<title>TE</title>
<polygon fill="none" stroke="black" points="307.25,-233.46 197.5,-233.46 197.5,-197.46 307.25,-197.46 307.25,-233.46"/>
<text xml:space="preserve" text-anchor="middle" x="252.38" y="-210.03" font-family="Times,serif" font-size="14.00">TestEnvironment</text>
</g>
<!-- PyTest&#45;&gt;TE -->
<!-- PyTest&#45;&gt;TE -->
<g id="edge6" class="edge">
<title>PyTest&#45;&gt;TE</title>
<path fill="none" stroke="blue" d="M54.35,-204.8C60.15,-202.89 66.33,-201.2 72.25,-200.21 119.26,-192.31 132.09,-195.23 179.5,-200.21 181.64,-200.43 183.81,-200.69 186,-200.98"/>
<polygon fill="blue" stroke="blue" points="195.81,-202.49 185.25,-205.42 192.07,-201.92 185.93,-200.97 185.93,-200.97 185.93,-200.97 192.07,-201.92 186.61,-196.52 195.81,-202.49"/>
<text xml:space="preserve" text-anchor="middle" x="125.88" y="-201.96" font-family="Times,serif" font-size="10.00">Teardown test environment</text>
</g>
<!-- TE&#45;&gt;PyTest -->
<g id="edge14" class="edge">
<title>TE&#45;&gt;PyTest</title>
<path fill="none" stroke="green" stroke-dasharray="5,2" d="M211.59,-191.97C201.45,-187.12 190.35,-182.72 179.5,-180.21 133.07,-169.43 117.24,-164.44 72.25,-180.21 62.26,-183.71 52.84,-190.53 45.3,-197.24"/>
<polygon fill="green" stroke="green" points="209.89,-195.04 220.39,-196.45 213.07,-188.8 209.89,-195.04"/>
<text xml:space="preserve" text-anchor="middle" x="125.88" y="-181.96" font-family="Times,serif" font-size="10.00">Environment cleaned up</text>
</g>
<!-- Docker -->
<g id="node3" class="node">
<title>Docker</title>
<polygon fill="none" stroke="black" points="506.25,-233.46 450.5,-233.46 450.5,-197.46 506.25,-197.46 506.25,-233.46"/>
<text xml:space="preserve" text-anchor="middle" x="478.38" y="-210.03" font-family="Times,serif" font-size="14.00">Docker</text>
</g>
<!-- TE&#45;&gt;Docker -->
<!-- TE&#45;&gt;Docker -->
<g id="edge7" class="edge">
<title>TE&#45;&gt;Docker</title>
<path fill="none" stroke="blue" d="M307.73,-202.67C313.62,-201.66 319.54,-200.8 325.25,-200.21 372.66,-195.23 385.47,-192.43 432.5,-200.21 434.78,-200.58 437.11,-201.06 439.43,-201.61"/>
<polygon fill="blue" stroke="blue" points="449.04,-204.31 438.19,-205.94 445.4,-203.29 439.41,-201.61 439.41,-201.61 439.41,-201.61 445.4,-203.29 440.63,-197.28 449.04,-204.31"/>
<text xml:space="preserve" text-anchor="middle" x="378.88" y="-201.96" font-family="Times,serif" font-size="10.00">Stop PostgreSQL container</text>
</g>
<!-- API -->
<g id="node5" class="node">
<title>API</title>
<polygon fill="none" stroke="black" points="884.75,-233.46 785.5,-233.46 785.5,-197.46 884.75,-197.46 884.75,-233.46"/>
<text xml:space="preserve" text-anchor="middle" x="835.12" y="-210.03" font-family="Times,serif" font-size="14.00">FastAPI Server</text>
</g>
<!-- TE&#45;&gt;API -->
<g id="edge10" class="edge">
<title>TE&#45;&gt;API</title>
<path fill="none" stroke="blue" d="M305.18,-197.01C378.19,-173.31 515.57,-137.16 633,-154.21 683.07,-161.47 737.88,-178.83 777.62,-193.21"/>
<polygon fill="blue" stroke="blue" points="786.76,-196.57 775.82,-197.35 783.21,-195.27 777.37,-193.12 777.37,-193.12 777.37,-193.12 783.21,-195.27 778.93,-188.9 786.76,-196.57"/>
<text xml:space="preserve" text-anchor="middle" x="578.62" y="-155.96" font-family="Times,serif" font-size="10.00">Kill FastAPI server process</text>
</g>
<!-- APP -->
<g id="node6" class="node">
<title>APP</title>
<polygon fill="none" stroke="black" points="1006,-233.46 921.75,-233.46 921.75,-197.46 1006,-197.46 1006,-233.46"/>
<text xml:space="preserve" text-anchor="middle" x="963.88" y="-210.03" font-family="Times,serif" font-size="14.00">Flask Server</text>
</g>
<!-- TE&#45;&gt;APP -->
<g id="edge12" class="edge">
<title>TE&#45;&gt;APP</title>
<path fill="none" stroke="blue" d="M271.35,-196.99C284.89,-184.35 304.6,-168.47 325.25,-160.46 500.77,-92.3 562.73,-111.54 748.5,-142.21 806.4,-151.76 869.62,-175.06 912.3,-192.84"/>
<polygon fill="blue" stroke="blue" points="921.3,-196.64 910.34,-196.89 917.82,-195.17 912.09,-192.75 912.09,-192.75 912.09,-192.75 917.82,-195.17 913.84,-188.6 921.3,-196.64"/>
<text xml:space="preserve" text-anchor="middle" x="699.75" y="-143.96" font-family="Times,serif" font-size="10.00">Kill Flask server process</text>
</g>
<!-- DB -->
<g id="node4" class="node">
<title>DB</title>
<polygon fill="none" stroke="black" points="740.75,-233.46 658.75,-233.46 658.75,-197.46 740.75,-197.46 740.75,-233.46"/>
<text xml:space="preserve" text-anchor="middle" x="699.75" y="-210.03" font-family="Times,serif" font-size="14.00">PostgreSQL</text>
</g>
<!-- Docker&#45;&gt;DB -->
<!-- Docker&#45;&gt;DB -->
<g id="edge8" class="edge">
<title>Docker&#45;&gt;DB</title>
<path fill="none" stroke="blue" d="M506.54,-204.64C512.3,-202.8 518.4,-201.17 524.25,-200.21 571.94,-192.32 584.98,-194.71 633,-200.21 637.78,-200.75 642.72,-201.52 647.64,-202.41"/>
<polygon fill="blue" stroke="blue" points="657.12,-204.32 646.43,-206.76 653.41,-203.57 647.32,-202.35 647.32,-202.35 647.32,-202.35 653.41,-203.57 648.2,-197.94 657.12,-204.32"/>
<text xml:space="preserve" text-anchor="middle" x="578.62" y="-201.96" font-family="Times,serif" font-size="10.00">Stop PostgreSQL</text>
</g>
<!-- DB&#45;&gt;Docker -->
<g id="edge9" class="edge">
<title>DB&#45;&gt;Docker</title>
<path fill="none" stroke="green" stroke-dasharray="5,2" d="M661.71,-191.55C652.66,-186.87 642.77,-182.66 633,-180.21 586.12,-168.43 569.93,-164.41 524.25,-180.21 514.14,-183.7 504.57,-190.52 496.89,-197.24"/>
<polygon fill="green" stroke="green" points="659.75,-194.46 670.19,-196.23 663.13,-188.33 659.75,-194.46"/>
<text xml:space="preserve" text-anchor="middle" x="578.62" y="-181.96" font-family="Times,serif" font-size="10.00">Stopped</text>
</g>
<!-- DB&#45;&gt;API -->
<!-- API&#45;&gt;TE -->
<g id="edge11" class="edge">
<title>API&#45;&gt;TE</title>
<path fill="none" stroke="green" stroke-dasharray="5,2" d="M818.52,-187.44C803.48,-162.76 778.61,-127.41 748.5,-105.46 704.33,-73.25 686.82,-72.74 633,-63.21 564.87,-51.14 382.28,-71.28 325.25,-110.46 293.38,-132.34 271.5,-173.37 260.84,-197.15"/>
<polygon fill="green" stroke="green" points="815.47,-189.17 823.58,-195.99 821.5,-185.6 815.47,-189.17"/>
<text xml:space="preserve" text-anchor="middle" x="578.62" y="-64.96" font-family="Times,serif" font-size="10.00">Process terminated</text>
</g>
<!-- API&#45;&gt;APP -->
<!-- APP&#45;&gt;TE -->
<g id="edge13" class="edge">
<title>APP&#45;&gt;TE</title>
<path fill="none" stroke="green" stroke-dasharray="5,2" d="M940.04,-188.73C904.12,-149.1 830.05,-76.66 748.5,-51.21 568.73,4.91 480.5,35.14 325.25,-71.46 281.72,-101.35 263.29,-165.59 256.62,-197.17"/>
<polygon fill="green" stroke="green" points="937.25,-190.86 946.52,-196 942.48,-186.21 937.25,-190.86"/>
<text xml:space="preserve" text-anchor="middle" x="699.75" y="-52.96" font-family="Times,serif" font-size="10.00">Process terminated</text>
</g>
</g>
</svg>
