<?xml version="1.0" encoding="UTF-8" standalone="no"?>
<!DOCTYPE svg PUBLIC "-//W3C//DTD SVG 1.1//EN"
 "http://www.w3.org/Graphics/SVG/1.1/DTD/svg11.dtd">
<!-- Generated by graphviz version 14.1.1 (20251213.1925)
 -->
<!-- Pages: 1 -->
<svg width="1156pt" height="323pt"
 viewBox="0.00 0.00 1156.00 323.00" xmlns="http://www.w3.org/2000/svg" xmlns:xlink="http://www.w3.org/1999/xlink">
<g id="graph0" class="graph" transform="scale(1 1) rotate(0) translate(4 318.5)">
<polygon fill="white" stroke="none" points="-4,4 -4,-318.5 1152,-318.5 1152,4 -4,4"/>
<g id="clust1" class="cluster">
<title>cluster_groups</title>
<polygon fill="#e8f7ff" stroke="#4682b4" points="326,-230 326,-306.5 708,-306.5 708,-230 326,-230"/>
<text xml:space="preserve" text-anchor="middle" x="517" y="-289.2" font-family="Times,serif" font-size="14.00">AWS Groups</text>
</g>
<g id="clust2" class="cluster">
<title>cluster_policies</title>
<polygon fill="#f0fff0" stroke="#228b22" points="8,-119 8,-195.5 1140,-195.5 1140,-119 8,-119"/>
<text xml:space="preserve" text-anchor="middle" x="574" y="-178.2" font-family="Times,serif" font-size="14.00">Policies</text>
</g>
<g id="clust3" class="cluster">
<title>cluster_roles</title>
<polygon fill="#fff0f0" stroke="#b22222" points="8,-8 8,-84.5 410,-84.5 410,-8 8,-8"/>
<text xml:space="preserve" text-anchor="middle" x="209" y="-67.2" font-family="Times,serif" font-size="14.00">Roles</text>
</g>
<!-- admin -->
<g id="node1" class="node">
<title>admin</title>
<path fill="#e8f7ff" stroke="black" d="M491.88,-274C491.88,-274 346.12,-274 346.12,-274 340.12,-274 334.12,-268 334.12,-262 334.12,-262 334.12,-250 334.12,-250 334.12,-244 340.12,-238 346.12,-238 346.12,-238 491.88,-238 491.88,-238 497.88,-238 503.88,-244 503.88,-250 503.88,-250 503.88,-262 503.88,-262 503.88,-268 497.88,-274 491.88,-274"/>
<text xml:space="preserve" text-anchor="middle" x="419" y="-251.72" font-family="Arial" font-size="12.00">admin &#45; Administrator access</text>
</g>
<!-- AWSAdministratorAccess -->
<g id="node3" class="node">
<title>AWSAdministratorAccess</title>
<path fill="#e8f7ff" stroke="black" d="M156.25,-163C156.25,-163 27.75,-163 27.75,-163 21.75,-163 15.75,-157 15.75,-151 15.75,-151 15.75,-139 15.75,-139 15.75,-133 21.75,-127 27.75,-127 27.75,-127 156.25,-127 156.25,-127 162.25,-127 168.25,-133 168.25,-139 168.25,-139 168.25,-151 168.25,-151 168.25,-157 162.25,-163 156.25,-163"/>
<text xml:space="preserve" text-anchor="middle" x="92" y="-140.72" font-family="Arial" font-size="12.00">AWSAdministratorAccess</text>
</g>
<!-- admin&#45;&gt;AWSAdministratorAccess -->
<g id="edge1" class="edge">
<title>admin&#45;&gt;AWSAdministratorAccess</title>
<path fill="none" stroke="black" d="M333.7,-240.24C286.48,-230.55 227.34,-215.85 177,-195.5 159.73,-188.52 141.74,-178.49 126.78,-169.29"/>
<polygon fill="black" stroke="black" points="129.04,-166.58 118.71,-164.21 125.31,-172.5 129.04,-166.58"/>
<text xml:space="preserve" text-anchor="middle" x="291.72" y="-206.7" font-family="Times,serif" font-size="14.00">Attached Policy</text>
</g>
<!-- developer -->
<g id="node2" class="node">
<title>developer</title>
<path fill="#e8f7ff" stroke="black" d="M688,-274C688,-274 534,-274 534,-274 528,-274 522,-268 522,-262 522,-262 522,-250 522,-250 522,-244 528,-238 534,-238 534,-238 688,-238 688,-238 694,-238 700,-244 700,-250 700,-250 700,-262 700,-262 700,-268 694,-274 688,-274"/>
<text xml:space="preserve" text-anchor="middle" x="611" y="-251.72" font-family="Arial" font-size="12.00">developer &#45; Access to services</text>
</g>
<!-- AllowPassRoleS3DatabaseBackups -->
<g id="node4" class="node">
<title>AllowPassRoleS3DatabaseBackups</title>
<polygon fill="gray" stroke="#333333" stroke-width="2" points="397.88,-163 186.12,-163 186.12,-127 397.88,-127 397.88,-163"/>
<text xml:space="preserve" text-anchor="middle" x="292" y="-140.72" font-family="Arial" font-size="12.00">AllowPassRoleS3DatabaseBackups</text>
</g>
<!-- developer&#45;&gt;AllowPassRoleS3DatabaseBackups -->
<g id="edge2" class="edge">
<title>developer&#45;&gt;AllowPassRoleS3DatabaseBackups</title>
<path fill="none" stroke="black" d="M543.02,-237.56C532.96,-235.01 522.71,-232.42 513,-230 494.8,-225.46 489.92,-225.54 472,-220 426.17,-205.83 375.8,-184.61 340.04,-168.53"/>
<polygon fill="black" stroke="black" points="341.82,-165.49 331.27,-164.55 338.93,-171.87 341.82,-165.49"/>
<text xml:space="preserve" text-anchor="middle" x="515.5" y="-206.7" font-family="Times,serif" font-size="14.00">Attached Policy</text>
</g>
<!-- AWSKeyManagementServiceUser -->
<g id="node5" class="node">
<title>AWSKeyManagementServiceUser</title>
<path fill="#e8f7ff" stroke="black" d="M603.88,-163C603.88,-163 428.12,-163 428.12,-163 422.12,-163 416.12,-157 416.12,-151 416.12,-151 416.12,-139 416.12,-139 416.12,-133 422.12,-127 428.12,-127 428.12,-127 603.88,-127 603.88,-127 609.88,-127 615.88,-133 615.88,-139 615.88,-139 615.88,-151 615.88,-151 615.88,-157 609.88,-163 603.88,-163"/>
<text xml:space="preserve" text-anchor="middle" x="516" y="-140.72" font-family="Arial" font-size="12.00">AWSKeyManagementServiceUser</text>
</g>
<!-- developer&#45;&gt;AWSKeyManagementServiceUser -->
<g id="edge3" class="edge">
<title>developer&#45;&gt;AWSKeyManagementServiceUser</title>
<path fill="none" stroke="black" d="M593.77,-237.82C588.31,-232.23 582.31,-225.93 577,-220 563.15,-204.53 548.32,-186.58 536.75,-172.23"/>
<polygon fill="black" stroke="black" points="539.6,-170.18 530.61,-164.56 534.13,-174.55 539.6,-170.18"/>
<text xml:space="preserve" text-anchor="middle" x="620.5" y="-206.7" font-family="Times,serif" font-size="14.00">Attached Policy</text>
</g>
<!-- AmazonRDSFullAccess -->
<g id="node6" class="node">
<title>AmazonRDSFullAccess</title>
<path fill="#e8f7ff" stroke="black" d="M767.88,-163C767.88,-163 646.12,-163 646.12,-163 640.12,-163 634.12,-157 634.12,-151 634.12,-151 634.12,-139 634.12,-139 634.12,-133 640.12,-127 646.12,-127 646.12,-127 767.88,-127 767.88,-127 773.88,-127 779.88,-133 779.88,-139 779.88,-139 779.88,-151 779.88,-151 779.88,-157 773.88,-163 767.88,-163"/>
<text xml:space="preserve" text-anchor="middle" x="707" y="-140.72" font-family="Arial" font-size="12.00">AmazonRDSFullAccess</text>
</g>
<!-- developer&#45;&gt;AmazonRDSFullAccess -->
<g id="edge4" class="edge">
<title>developer&#45;&gt;AmazonRDSFullAccess</title>
<path fill="none" stroke="black" d="M642.57,-237.58C650.12,-232.53 657.79,-226.57 664,-220 676.81,-206.44 687.39,-188.38 694.86,-173.5"/>
<polygon fill="black" stroke="black" points="697.91,-175.23 699.07,-164.7 691.6,-172.21 697.91,-175.23"/>
<text xml:space="preserve" text-anchor="middle" x="720.66" y="-206.7" font-family="Times,serif" font-size="14.00">Attached Policy</text>
</g>
<!-- AmazonS3FullAccess -->
<g id="node7" class="node">
<title>AmazonS3FullAccess</title>
<path fill="#e8f7ff" stroke="black" d="M920.25,-163C920.25,-163 809.75,-163 809.75,-163 803.75,-163 797.75,-157 797.75,-151 797.75,-151 797.75,-139 797.75,-139 797.75,-133 803.75,-127 809.75,-127 809.75,-127 920.25,-127 920.25,-127 926.25,-127 932.25,-133 932.25,-139 932.25,-139 932.25,-151 932.25,-151 932.25,-157 926.25,-163 920.25,-163"/>
<text xml:space="preserve" text-anchor="middle" x="865" y="-140.72" font-family="Arial" font-size="12.00">AmazonS3FullAccess</text>
</g>
<!-- developer&#45;&gt;AmazonS3FullAccess -->
<g id="edge5" class="edge">
<title>developer&#45;&gt;AmazonS3FullAccess</title>
<path fill="none" stroke="black" d="M700.4,-242.05C723.09,-236.9 746.99,-229.78 768,-220 794.41,-207.71 820.43,-187.28 838.86,-170.99"/>
<polygon fill="black" stroke="black" points="841.08,-173.7 846.15,-164.4 836.39,-168.51 841.08,-173.7"/>
<text xml:space="preserve" text-anchor="middle" x="840.47" y="-206.7" font-family="Times,serif" font-size="14.00">Attached Policy</text>
</g>
<!-- AmazonDynamoDBFullAccess -->
<g id="node8" class="node">
<title>AmazonDynamoDBFullAccess</title>
<path fill="#e8f7ff" stroke="black" d="M1119.88,-163C1119.88,-163 962.12,-163 962.12,-163 956.12,-163 950.12,-157 950.12,-151 950.12,-151 950.12,-139 950.12,-139 950.12,-133 956.12,-127 962.12,-127 962.12,-127 1119.88,-127 1119.88,-127 1125.88,-127 1131.88,-133 1131.88,-139 1131.88,-139 1131.88,-151 1131.88,-151 1131.88,-157 1125.88,-163 1119.88,-163"/>
<text xml:space="preserve" text-anchor="middle" x="1041" y="-140.72" font-family="Arial" font-size="12.00">AmazonDynamoDBFullAccess</text>
</g>
<!-- developer&#45;&gt;AmazonDynamoDBFullAccess -->
<g id="edge6" class="edge">
<title>developer&#45;&gt;AmazonDynamoDBFullAccess</title>
<path fill="none" stroke="black" d="M700.35,-250.69C755.32,-246.33 826.73,-237.58 888,-220 912.94,-212.84 917.59,-206.7 941,-195.5 959.26,-186.76 979.27,-176.91 996.57,-168.31"/>
<polygon fill="black" stroke="black" points="997.66,-171.68 1005.05,-164.08 994.54,-165.41 997.66,-171.68"/>
<text xml:space="preserve" text-anchor="middle" x="968.39" y="-206.7" font-family="Times,serif" font-size="14.00">Attached Policy</text>
</g>
<!-- S3DatabaseBackups -->
<g id="node10" class="node">
<title>S3DatabaseBackups</title>
<polygon fill="gray" stroke="#ff6666" stroke-width="2" points="401.62,-52 182.38,-52 182.38,-16 401.62,-16 401.62,-52"/>
<text xml:space="preserve" text-anchor="middle" x="292" y="-29.73" font-family="Arial" font-size="12.00">S3DatabaseBackups &#45; S3 Full Access</text>
</g>
<!-- AllowPassRoleS3DatabaseBackups&#45;&gt;S3DatabaseBackups -->
<g id="edge7" class="edge">
<title>AllowPassRoleS3DatabaseBackups&#45;&gt;S3DatabaseBackups</title>
<path fill="none" stroke="black" stroke-dasharray="5,2" d="M292,-126C292,-109.18 292,-83.76 292,-64.06"/>
<polygon fill="black" stroke="black" points="295.5,-64.18 292,-54.18 288.5,-64.18 295.5,-64.18"/>
<text xml:space="preserve" text-anchor="middle" x="328.75" y="-95.7" font-family="Times,serif" font-size="14.00">Assume Role</text>
</g>
<!-- AWSTrustedAdvisorRole -->
<g id="node9" class="node">
<title>AWSTrustedAdvisorRole</title>
<path fill="#e8f7ff" stroke="black" d="M152.38,-52C152.38,-52 27.62,-52 27.62,-52 21.62,-52 15.62,-46 15.62,-40 15.62,-40 15.62,-28 15.62,-28 15.62,-22 21.62,-16 27.62,-16 27.62,-16 152.38,-16 152.38,-16 158.38,-16 164.38,-22 164.38,-28 164.38,-28 164.38,-40 164.38,-40 164.38,-46 158.38,-52 152.38,-52"/>
<text xml:space="preserve" text-anchor="middle" x="90" y="-29.73" font-family="Arial" font-size="12.00">AWSTrustedAdvisorRole</text>
</g>
</g>
</svg>
