<?xml version="1.0" encoding="UTF-8" standalone="no"?>
<!DOCTYPE svg PUBLIC "-//W3C//DTD SVG 1.1//EN"
 "http://www.w3.org/Graphics/SVG/1.1/DTD/svg11.dtd">
<!-- Generated by graphviz version 14.1.1 (20251213.1925)
 -->
<!-- Pages: 1 -->
<svg width="2857pt" height="267pt"
 viewBox="0.00 0.00 2857.00 267.00" xmlns="http://www.w3.org/2000/svg" xmlns:xlink="http://www.w3.org/1999/xlink">
<g id="graph0" class="graph" transform="scale(1 1) rotate(0) translate(4 263.46)">
<polygon fill="white" stroke="none" points="-4,4 -4,-263.46 2853,-263.46 2853,4 -4,4"/>
<g id="clust1" class="cluster">
<title>cluster_hierarchy</title>
<polygon fill="#f5f5f5" stroke="lightgrey" points="8,-8 8,-228.5 158,-228.5 158,-8 8,-8"/>
<text xml:space="preserve" text-anchor="middle" x="83" y="-211.2" font-family="Times,serif" font-size="14.00">Fixture Scope Hierarchy</text>
</g>
<g id="clust2" class="cluster">
<title>cluster_session</title>
<polygon fill="#e6f7ff" stroke="#add8e6" points="2137,-80 2137,-228.5 2299,-228.5 2299,-80 2137,-80"/>
<text xml:space="preserve" text-anchor="middle" x="2218" y="-211.2" font-family="Times,serif" font-size="14.00">Session Fixtures</text>
</g>
<g id="clust3" class="cluster">
<title>cluster_module</title>
<polygon fill="#f0fff0" stroke="#90ee90" points="1341,-8 1341,-228.5 2129,-228.5 2129,-8 1341,-8"/>
<text xml:space="preserve" text-anchor="middle" x="1735" y="-211.2" font-family="Times,serif" font-size="14.00">Module Fixtures</text>
</g>
<g id="clust4" class="cluster">
<title>cluster_function</title>
<polygon fill="#fff0f5" stroke="#ffb6c1" points="166,-80 166,-228.5 1265,-228.5 1265,-80 166,-80"/>
<text xml:space="preserve" text-anchor="middle" x="715.5" y="-211.2" font-family="Times,serif" font-size="14.00">Function Fixtures</text>
</g>
<g id="clust5" class="cluster">
<title>cluster_test_data</title>
<polygon fill="#fff8dc" stroke="#ffa500" points="2307,-152 2307,-228.5 2841,-228.5 2841,-152 2307,-152"/>
<text xml:space="preserve" text-anchor="middle" x="2574" y="-211.2" font-family="Times,serif" font-size="14.00">Test Data Fixtures</text>
</g>
<!-- SessionScope -->
<g id="node1" class="node">
<title>SessionScope</title>
<polygon fill="none" stroke="black" points="130,-196 36,-196 36,-160 130,-160 130,-196"/>
<text xml:space="preserve" text-anchor="middle" x="83" y="-172.95" font-family="Times,serif" font-size="14.00">Session Scope</text>
</g>
<!-- ModuleScope -->
<g id="node2" class="node">
<title>ModuleScope</title>
<polygon fill="none" stroke="black" points="130.75,-124 35.25,-124 35.25,-88 130.75,-88 130.75,-124"/>
<text xml:space="preserve" text-anchor="middle" x="83" y="-100.95" font-family="Times,serif" font-size="14.00">Module Scope</text>
</g>
<!-- SessionScope&#45;&gt;ModuleScope -->
<g id="edge1" class="edge">
<title>SessionScope&#45;&gt;ModuleScope</title>
<path fill="none" stroke="black" d="M83,-159.7C83,-152.41 83,-143.73 83,-135.54"/>
<polygon fill="black" stroke="black" points="86.5,-135.62 83,-125.62 79.5,-135.62 86.5,-135.62"/>
</g>
<!-- setup_test_env -->
<g id="node4" class="node">
<title>setup_test_env</title>
<polygon fill="none" stroke="black" points="2290.88,-196 2145.12,-196 2145.12,-160 2290.88,-160 2290.88,-196"/>
<text xml:space="preserve" text-anchor="middle" x="2218" y="-172.95" font-family="Times,serif" font-size="14.00">setup_test_environment</text>
</g>
<!-- SessionScope&#45;&gt;setup_test_env -->
<g id="edge18" class="edge">
<title>SessionScope&#45;&gt;setup_test_env</title>
<path fill="none" stroke="black" stroke-dasharray="5,2" d="M99.4,-196.38C115.67,-213.1 142.25,-236.63 171,-246.5 222.31,-264.12 2072.42,-263.3 2124,-246.5 2149.91,-238.06 2174.61,-219.49 2192.19,-203.81"/>
<polygon fill="black" stroke="black" points="2194.13,-206.78 2199.11,-197.43 2189.39,-201.64 2194.13,-206.78"/>
</g>
<!-- FunctionScope -->
<g id="node3" class="node">
<title>FunctionScope</title>
<polygon fill="none" stroke="black" points="133.38,-52 32.62,-52 32.62,-16 133.38,-16 133.38,-52"/>
<text xml:space="preserve" text-anchor="middle" x="83" y="-28.95" font-family="Times,serif" font-size="14.00">Function Scope</text>
</g>
<!-- ModuleScope&#45;&gt;FunctionScope -->
<g id="edge2" class="edge">
<title>ModuleScope&#45;&gt;FunctionScope</title>
<path fill="none" stroke="black" d="M83,-87.7C83,-80.41 83,-71.73 83,-63.54"/>
<polygon fill="black" stroke="black" points="86.5,-63.62 83,-53.62 79.5,-63.62 86.5,-63.62"/>
</g>
<!-- create_drop_tables -->
<g id="node6" class="node">
<title>create_drop_tables</title>
<polygon fill="none" stroke="black" points="1775,-196 1657,-196 1657,-160 1775,-160 1775,-196"/>
<text xml:space="preserve" text-anchor="middle" x="1716" y="-172.95" font-family="Times,serif" font-size="14.00">create_drop_tables</text>
</g>
<!-- ModuleScope&#45;&gt;create_drop_tables -->
<g id="edge19" class="edge">
<title>ModuleScope&#45;&gt;create_drop_tables</title>
<path fill="none" stroke="black" stroke-dasharray="5,2" d="M131.22,-118.87C141.33,-120.94 151.97,-122.8 162,-124 406.35,-153.12 1023.12,-142.02 1269,-152 1402.04,-157.4 1557.19,-166.77 1645.28,-172.38"/>
<polygon fill="black" stroke="black" points="1645.02,-175.87 1655.23,-173.01 1645.47,-168.88 1645.02,-175.87"/>
</g>
<!-- api_clients -->
<g id="node8" class="node">
<title>api_clients</title>
<path fill="none" stroke="black" d="M1533.25,-124C1533.25,-124 1434.75,-124 1434.75,-124 1428.75,-124 1422.75,-118 1422.75,-112 1422.75,-112 1422.75,-100 1422.75,-100 1422.75,-94 1428.75,-88 1434.75,-88 1434.75,-88 1533.25,-88 1533.25,-88 1539.25,-88 1545.25,-94 1545.25,-100 1545.25,-100 1545.25,-112 1545.25,-112 1545.25,-118 1539.25,-124 1533.25,-124"/>
<text xml:space="preserve" text-anchor="middle" x="1484" y="-100.95" font-family="Times,serif" font-size="14.00">API Client Fixtures</text>
</g>
<!-- ModuleScope&#45;&gt;api_clients -->
<g id="edge20" class="edge">
<title>ModuleScope&#45;&gt;api_clients</title>
<path fill="none" stroke="black" stroke-dasharray="5,2" d="M124.26,-124.36C138.74,-129.9 155.31,-135.24 171,-138 297.61,-160.3 1200.1,-150.98 1328,-138 1355.56,-135.2 1385.44,-129.69 1411.6,-124.02"/>
<polygon fill="black" stroke="black" points="1412.09,-127.5 1421.09,-121.92 1410.57,-120.67 1412.09,-127.5"/>
</g>
<!-- app_clients -->
<g id="node12" class="node">
<title>app_clients</title>
<path fill="none" stroke="black" d="M1991,-124C1991,-124 1891,-124 1891,-124 1885,-124 1879,-118 1879,-112 1879,-112 1879,-100 1879,-100 1879,-94 1885,-88 1891,-88 1891,-88 1991,-88 1991,-88 1997,-88 2003,-94 2003,-100 2003,-100 2003,-112 2003,-112 2003,-118 1997,-124 1991,-124"/>
<text xml:space="preserve" text-anchor="middle" x="1941" y="-100.95" font-family="Times,serif" font-size="14.00">App Client Fixtures</text>
</g>
<!-- ModuleScope&#45;&gt;app_clients -->
<g id="edge21" class="edge">
<title>ModuleScope&#45;&gt;app_clients</title>
<path fill="none" stroke="black" stroke-dasharray="5,2" d="M124.26,-124.36C138.74,-129.9 155.31,-135.24 171,-138 259.31,-153.56 1695.79,-147.06 1785,-138 1812.32,-135.23 1841.92,-129.79 1867.92,-124.17"/>
<polygon fill="black" stroke="black" points="1868.34,-127.66 1877.34,-122.09 1866.82,-120.83 1868.34,-127.66"/>
</g>
<!-- other_mod -->
<g id="node16" class="node">
<title>other_mod</title>
<path fill="none" stroke="black" d="M2108.62,-196C2108.62,-196 1991.38,-196 1991.38,-196 1985.38,-196 1979.38,-190 1979.38,-184 1979.38,-184 1979.38,-172 1979.38,-172 1979.38,-166 1985.38,-160 1991.38,-160 1991.38,-160 2108.62,-160 2108.62,-160 2114.62,-160 2120.62,-166 2120.62,-172 2120.62,-172 2120.62,-184 2120.62,-184 2120.62,-190 2114.62,-196 2108.62,-196"/>
<text xml:space="preserve" text-anchor="middle" x="2050" y="-172.95" font-family="Times,serif" font-size="14.00">Other Module Fixtures</text>
</g>
<!-- ModuleScope&#45;&gt;other_mod -->
<g id="edge22" class="edge">
<title>ModuleScope&#45;&gt;other_mod</title>
<path fill="none" stroke="black" stroke-dasharray="5,2" d="M131.22,-118.93C141.33,-120.99 151.97,-122.84 162,-124 520.13,-165.23 1424.06,-132.01 1784,-152 1845.7,-155.43 1915.22,-162.06 1967.71,-167.63"/>
<polygon fill="black" stroke="black" points="1967.16,-171.09 1977.48,-168.68 1967.91,-164.13 1967.16,-171.09"/>
</g>
<!-- func_api -->
<g id="node18" class="node">
<title>func_api</title>
<path fill="none" stroke="black" d="M521.75,-196C521.75,-196 414.25,-196 414.25,-196 408.25,-196 402.25,-190 402.25,-184 402.25,-184 402.25,-172 402.25,-172 402.25,-166 408.25,-160 414.25,-160 414.25,-160 521.75,-160 521.75,-160 527.75,-160 533.75,-166 533.75,-172 533.75,-172 533.75,-184 533.75,-184 533.75,-190 527.75,-196 521.75,-196"/>
<text xml:space="preserve" text-anchor="middle" x="468" y="-172.95" font-family="Times,serif" font-size="14.00">API Function Clients</text>
</g>
<!-- FunctionScope&#45;&gt;func_api -->
<g id="edge23" class="edge">
<title>FunctionScope&#45;&gt;func_api</title>
<path fill="none" stroke="black" stroke-dasharray="5,2" d="M133.8,-34.99C355.17,-35.2 1226.2,-38.66 1266,-80 1279.56,-94.09 1279.36,-109.72 1266,-124 1253.78,-137.06 743.8,-163.45 545.62,-173.24"/>
<polygon fill="black" stroke="black" points="545.48,-169.74 535.67,-173.73 545.83,-176.73 545.48,-169.74"/>
</g>
<!-- func_app -->
<g id="node22" class="node">
<title>func_app</title>
<path fill="none" stroke="black" d="M1073.5,-196C1073.5,-196 964.5,-196 964.5,-196 958.5,-196 952.5,-190 952.5,-184 952.5,-184 952.5,-172 952.5,-172 952.5,-166 958.5,-160 964.5,-160 964.5,-160 1073.5,-160 1073.5,-160 1079.5,-160 1085.5,-166 1085.5,-172 1085.5,-172 1085.5,-184 1085.5,-184 1085.5,-190 1079.5,-196 1073.5,-196"/>
<text xml:space="preserve" text-anchor="middle" x="1019" y="-172.95" font-family="Times,serif" font-size="14.00">App Function Clients</text>
</g>
<!-- FunctionScope&#45;&gt;func_app -->
<g id="edge24" class="edge">
<title>FunctionScope&#45;&gt;func_app</title>
<path fill="none" stroke="black" stroke-dasharray="5,2" d="M133.87,-34.96C357.55,-35.03 1244.5,-37.96 1285,-80 1345.19,-142.49 1195.92,-164.92 1097.42,-172.83"/>
<polygon fill="black" stroke="black" points="1097.19,-169.33 1087.48,-173.58 1097.72,-176.31 1097.19,-169.33"/>
</g>
<!-- test_env -->
<g id="node5" class="node">
<title>test_env</title>
<polygon fill="none" stroke="black" points="2273.25,-124 2162.75,-124 2162.75,-88 2273.25,-88 2273.25,-124"/>
<text xml:space="preserve" text-anchor="middle" x="2218" y="-100.95" font-family="Times,serif" font-size="14.00">TestEnvironment</text>
</g>
<!-- setup_test_env&#45;&gt;test_env -->
<g id="edge3" class="edge">
<title>setup_test_env&#45;&gt;test_env</title>
<path fill="none" stroke="black" d="M2218,-159.7C2218,-152.41 2218,-143.73 2218,-135.54"/>
<polygon fill="black" stroke="black" points="2221.5,-135.62 2218,-125.62 2214.5,-135.62 2221.5,-135.62"/>
</g>
<!-- insert_users_for_login -->
<g id="node7" class="node">
<title>insert_users_for_login</title>
<polygon fill="none" stroke="black" points="1784.75,-124 1647.25,-124 1647.25,-88 1784.75,-88 1784.75,-124"/>
<text xml:space="preserve" text-anchor="middle" x="1716" y="-100.95" font-family="Times,serif" font-size="14.00">insert_users_for_login</text>
</g>
<!-- create_drop_tables&#45;&gt;insert_users_for_login -->
<g id="edge4" class="edge">
<title>create_drop_tables&#45;&gt;insert_users_for_login</title>
<path fill="none" stroke="black" d="M1716,-159.7C1716,-152.41 1716,-143.73 1716,-135.54"/>
<polygon fill="black" stroke="black" points="1719.5,-135.62 1716,-125.62 1712.5,-135.62 1719.5,-135.62"/>
</g>
<!-- test_api_logged_in -->
<g id="node10" class="node">
<title>test_api_logged_in</title>
<polygon fill="none" stroke="black" points="1543.38,-52 1424.62,-52 1424.62,-16 1543.38,-16 1543.38,-52"/>
<text xml:space="preserve" text-anchor="middle" x="1484" y="-28.95" font-family="Times,serif" font-size="14.00">test_api_logged_in</text>
</g>
<!-- insert_users_for_login&#45;&gt;test_api_logged_in -->
<g id="edge25" class="edge">
<title>insert_users_for_login&#45;&gt;test_api_logged_in</title>
<path fill="none" stroke="black" d="M1658.06,-87.52C1625.96,-77.83 1585.88,-65.74 1552.27,-55.6"/>
<polygon fill="black" stroke="black" points="1553.64,-52.36 1543.06,-52.82 1551.62,-59.06 1553.64,-52.36"/>
</g>
<!-- test_api_logged_in_admin -->
<g id="node11" class="node">
<title>test_api_logged_in_admin</title>
<polygon fill="none" stroke="black" points="1721,-52 1561,-52 1561,-16 1721,-16 1721,-52"/>
<text xml:space="preserve" text-anchor="middle" x="1641" y="-28.95" font-family="Times,serif" font-size="14.00">test_api_logged_in_admin</text>
</g>
<!-- insert_users_for_login&#45;&gt;test_api_logged_in_admin -->
<g id="edge26" class="edge">
<title>insert_users_for_login&#45;&gt;test_api_logged_in_admin</title>
<path fill="none" stroke="black" d="M1697.46,-87.7C1688.54,-79.37 1677.67,-69.22 1667.86,-60.07"/>
<polygon fill="black" stroke="black" points="1670.39,-57.64 1660.69,-53.38 1665.61,-62.76 1670.39,-57.64"/>
</g>
<!-- test_app_logged_in -->
<g id="node14" class="node">
<title>test_app_logged_in</title>
<polygon fill="none" stroke="black" points="1860.88,-52 1739.12,-52 1739.12,-16 1860.88,-16 1860.88,-52"/>
<text xml:space="preserve" text-anchor="middle" x="1800" y="-28.95" font-family="Times,serif" font-size="14.00">test_app_logged_in</text>
</g>
<!-- insert_users_for_login&#45;&gt;test_app_logged_in -->
<g id="edge27" class="edge">
<title>insert_users_for_login&#45;&gt;test_app_logged_in</title>
<path fill="none" stroke="black" d="M1736.76,-87.7C1746.96,-79.2 1759.42,-68.81 1770.58,-59.51"/>
<polygon fill="black" stroke="black" points="1772.58,-62.41 1778.02,-53.32 1768.1,-57.03 1772.58,-62.41"/>
</g>
<!-- test_app_logged_in_admin -->
<g id="node15" class="node">
<title>test_app_logged_in_admin</title>
<polygon fill="none" stroke="black" points="2041.5,-52 1878.5,-52 1878.5,-16 2041.5,-16 2041.5,-52"/>
<text xml:space="preserve" text-anchor="middle" x="1960" y="-28.95" font-family="Times,serif" font-size="14.00">test_app_logged_in_admin</text>
</g>
<!-- insert_users_for_login&#45;&gt;test_app_logged_in_admin -->
<g id="edge28" class="edge">
<title>insert_users_for_login&#45;&gt;test_app_logged_in_admin</title>
<path fill="none" stroke="black" d="M1776.94,-87.52C1810.84,-77.79 1853.21,-65.64 1888.65,-55.47"/>
<polygon fill="black" stroke="black" points="1889.31,-58.92 1897.96,-52.8 1887.38,-52.19 1889.31,-58.92"/>
</g>
<!-- test_api -->
<g id="node9" class="node">
<title>test_api</title>
<polygon fill="none" stroke="black" points="1407,-52 1349,-52 1349,-16 1407,-16 1407,-52"/>
<text xml:space="preserve" text-anchor="middle" x="1378" y="-28.95" font-family="Times,serif" font-size="14.00">test_api</text>
</g>
<!-- api_clients&#45;&gt;test_api -->
<g id="edge5" class="edge">
<title>api_clients&#45;&gt;test_api</title>
<path fill="none" stroke="black" stroke-dasharray="1,5" d="M1457.53,-87.52C1444.27,-78.76 1428.04,-68.04 1413.7,-58.58"/>
<polygon fill="black" stroke="black" points="1415.67,-55.68 1405.4,-53.09 1411.82,-61.53 1415.67,-55.68"/>
</g>
<!-- api_clients&#45;&gt;test_api_logged_in -->
<g id="edge6" class="edge">
<title>api_clients&#45;&gt;test_api_logged_in</title>
<path fill="none" stroke="black" stroke-dasharray="1,5" d="M1484,-87.7C1484,-80.41 1484,-71.73 1484,-63.54"/>
<polygon fill="black" stroke="black" points="1487.5,-63.62 1484,-53.62 1480.5,-63.62 1487.5,-63.62"/>
</g>
<!-- api_clients&#45;&gt;test_api_logged_in_admin -->
<g id="edge7" class="edge">
<title>api_clients&#45;&gt;test_api_logged_in_admin</title>
<path fill="none" stroke="black" stroke-dasharray="1,5" d="M1523.21,-87.52C1543.9,-78.29 1569.48,-66.89 1591.52,-57.06"/>
<polygon fill="black" stroke="black" points="1592.92,-60.27 1600.63,-53 1590.07,-53.87 1592.92,-60.27"/>
</g>
<!-- test_app -->
<g id="node13" class="node">
<title>test_app</title>
<polygon fill="none" stroke="black" points="2120.5,-52 2059.5,-52 2059.5,-16 2120.5,-16 2120.5,-52"/>
<text xml:space="preserve" text-anchor="middle" x="2090" y="-28.95" font-family="Times,serif" font-size="14.00">test_app</text>
</g>
<!-- app_clients&#45;&gt;test_app -->
<g id="edge8" class="edge">
<title>app_clients&#45;&gt;test_app</title>
<path fill="none" stroke="black" stroke-dasharray="1,5" d="M1978.21,-87.52C1999.7,-77.42 2026.75,-64.71 2048.86,-54.33"/>
<polygon fill="black" stroke="black" points="2050.34,-57.5 2057.91,-50.08 2047.37,-51.16 2050.34,-57.5"/>
</g>
<!-- app_clients&#45;&gt;test_app_logged_in -->
<g id="edge9" class="edge">
<title>app_clients&#45;&gt;test_app_logged_in</title>
<path fill="none" stroke="black" stroke-dasharray="1,5" d="M1905.78,-87.52C1887.39,-78.39 1864.68,-67.11 1845.03,-57.35"/>
<polygon fill="black" stroke="black" points="1846.64,-54.25 1836.12,-52.93 1843.52,-60.52 1846.64,-54.25"/>
</g>
<!-- app_clients&#45;&gt;test_app_logged_in_admin -->
<g id="edge10" class="edge">
<title>app_clients&#45;&gt;test_app_logged_in_admin</title>
<path fill="none" stroke="black" stroke-dasharray="1,5" d="M1945.7,-87.7C1947.72,-80.24 1950.14,-71.32 1952.41,-62.97"/>
<polygon fill="black" stroke="black" points="1955.72,-64.13 1954.96,-53.57 1948.96,-62.3 1955.72,-64.13"/>
</g>
<!-- test_jobstore -->
<g id="node17" class="node">
<title>test_jobstore</title>
<polygon fill="none" stroke="black" points="2106.5,-124 2021.5,-124 2021.5,-88 2106.5,-88 2106.5,-124"/>
<text xml:space="preserve" text-anchor="middle" x="2064" y="-100.95" font-family="Times,serif" font-size="14.00">test_jobstore</text>
</g>
<!-- other_mod&#45;&gt;test_jobstore -->
<g id="edge11" class="edge">
<title>other_mod&#45;&gt;test_jobstore</title>
<path fill="none" stroke="black" stroke-dasharray="1,5" d="M2053.46,-159.7C2054.94,-152.32 2056.7,-143.52 2058.35,-135.25"/>
<polygon fill="black" stroke="black" points="2061.75,-136.08 2060.28,-125.59 2054.89,-134.71 2061.75,-136.08"/>
</g>
<!-- test_api_function -->
<g id="node19" class="node">
<title>test_api_function</title>
<polygon fill="none" stroke="black" points="701.88,-124 592.12,-124 592.12,-88 701.88,-88 701.88,-124"/>
<text xml:space="preserve" text-anchor="middle" x="647" y="-100.95" font-family="Times,serif" font-size="14.00">test_api_function</text>
</g>
<!-- func_api&#45;&gt;test_api_function -->
<g id="edge12" class="edge">
<title>func_api&#45;&gt;test_api_function</title>
<path fill="none" stroke="black" stroke-dasharray="1,5" d="M512.71,-159.52C536.72,-150.13 566.52,-138.47 591.95,-128.53"/>
<polygon fill="black" stroke="black" points="593.1,-131.83 601.14,-124.93 590.55,-125.32 593.1,-131.83"/>
</g>
<!-- test_api_logged_in_function -->
<g id="node20" class="node">
<title>test_api_logged_in_function</title>
<polygon fill="none" stroke="black" points="344.25,-124 173.75,-124 173.75,-88 344.25,-88 344.25,-124"/>
<text xml:space="preserve" text-anchor="middle" x="259" y="-100.95" font-family="Times,serif" font-size="14.00">test_api_logged_in_function</text>
</g>
<!-- func_api&#45;&gt;test_api_logged_in_function -->
<g id="edge13" class="edge">
<title>func_api&#45;&gt;test_api_logged_in_function</title>
<path fill="none" stroke="black" stroke-dasharray="1,5" d="M415.8,-159.52C387.26,-149.96 351.72,-138.05 321.69,-128"/>
<polygon fill="black" stroke="black" points="322.93,-124.72 312.33,-124.86 320.7,-131.36 322.93,-124.72"/>
</g>
<!-- test_api_logged_in_admin_function -->
<g id="node21" class="node">
<title>test_api_logged_in_admin_function</title>
<polygon fill="none" stroke="black" points="573.88,-124 362.12,-124 362.12,-88 573.88,-88 573.88,-124"/>
<text xml:space="preserve" text-anchor="middle" x="468" y="-100.95" font-family="Times,serif" font-size="14.00">test_api_logged_in_admin_function</text>
</g>
<!-- func_api&#45;&gt;test_api_logged_in_admin_function -->
<g id="edge14" class="edge">
<title>func_api&#45;&gt;test_api_logged_in_admin_function</title>
<path fill="none" stroke="black" stroke-dasharray="1,5" d="M468,-159.7C468,-152.41 468,-143.73 468,-135.54"/>
<polygon fill="black" stroke="black" points="471.5,-135.62 468,-125.62 464.5,-135.62 471.5,-135.62"/>
</g>
<!-- test_app_function -->
<g id="node23" class="node">
<title>test_app_function</title>
<polygon fill="none" stroke="black" points="1257.38,-124 1144.62,-124 1144.62,-88 1257.38,-88 1257.38,-124"/>
<text xml:space="preserve" text-anchor="middle" x="1201" y="-100.95" font-family="Times,serif" font-size="14.00">test_app_function</text>
</g>
<!-- func_app&#45;&gt;test_app_function -->
<g id="edge15" class="edge">
<title>func_app&#45;&gt;test_app_function</title>
<path fill="none" stroke="black" stroke-dasharray="1,5" d="M1064.46,-159.52C1088.98,-150.08 1119.45,-138.37 1145.38,-128.39"/>
<polygon fill="black" stroke="black" points="1146.32,-131.78 1154.39,-124.93 1143.8,-125.25 1146.32,-131.78"/>
</g>
<!-- test_app_logged_in_function -->
<g id="node24" class="node">
<title>test_app_logged_in_function</title>
<polygon fill="none" stroke="black" points="893.75,-124 720.25,-124 720.25,-88 893.75,-88 893.75,-124"/>
<text xml:space="preserve" text-anchor="middle" x="807" y="-100.95" font-family="Times,serif" font-size="14.00">test_app_logged_in_function</text>
</g>
<!-- func_app&#45;&gt;test_app_logged_in_function -->
<g id="edge16" class="edge">
<title>func_app&#45;&gt;test_app_logged_in_function</title>
<path fill="none" stroke="black" stroke-dasharray="1,5" d="M966.05,-159.52C936.98,-149.92 900.73,-137.95 870.19,-127.86"/>
<polygon fill="black" stroke="black" points="871.67,-124.67 861.08,-124.86 869.48,-131.32 871.67,-124.67"/>
</g>
<!-- test_app_logged_in_admin_function -->
<g id="node25" class="node">
<title>test_app_logged_in_admin_function</title>
<polygon fill="none" stroke="black" points="1126.38,-124 911.62,-124 911.62,-88 1126.38,-88 1126.38,-124"/>
<text xml:space="preserve" text-anchor="middle" x="1019" y="-100.95" font-family="Times,serif" font-size="14.00">test_app_logged_in_admin_function</text>
</g>
<!-- func_app&#45;&gt;test_app_logged_in_admin_function -->
<g id="edge17" class="edge">
<title>func_app&#45;&gt;test_app_logged_in_admin_function</title>
<path fill="none" stroke="black" stroke-dasharray="1,5" d="M1019,-159.7C1019,-152.41 1019,-143.73 1019,-135.54"/>
<polygon fill="black" stroke="black" points="1022.5,-135.62 1019,-125.62 1015.5,-135.62 1022.5,-135.62"/>
</g>
<!-- insert_testing_data -->
<g id="node26" class="node">
<title>insert_testing_data</title>
<polygon fill="none" stroke="black" points="2433,-196 2315,-196 2315,-160 2433,-160 2433,-196"/>
<text xml:space="preserve" text-anchor="middle" x="2374" y="-172.95" font-family="Times,serif" font-size="14.00">insert_testing_data</text>
</g>
<!-- insert_jobs_in_test_scheduler -->
<g id="node27" class="node">
<title>insert_jobs_in_test_scheduler</title>
<polygon fill="none" stroke="black" points="2627.25,-196 2450.75,-196 2450.75,-160 2627.25,-160 2627.25,-196"/>
<text xml:space="preserve" text-anchor="middle" x="2539" y="-172.95" font-family="Times,serif" font-size="14.00">insert_jobs_in_test_scheduler</text>
</g>
<!-- test_user -->
<g id="node28" class="node">
<title>test_user</title>
<polygon fill="none" stroke="black" points="2709,-196 2645,-196 2645,-160 2709,-160 2709,-196"/>
<text xml:space="preserve" text-anchor="middle" x="2677" y="-172.95" font-family="Times,serif" font-size="14.00">test_user</text>
</g>
<!-- test_admin_user -->
<g id="node29" class="node">
<title>test_admin_user</title>
<polygon fill="none" stroke="black" points="2832.62,-196 2727.38,-196 2727.38,-160 2832.62,-160 2832.62,-196"/>
<text xml:space="preserve" text-anchor="middle" x="2780" y="-172.95" font-family="Times,serif" font-size="14.00">test_admin_user</text>
</g>
</g>
</svg>
