<?xml version="1.0" encoding="UTF-8" standalone="no"?>
<!DOCTYPE svg PUBLIC "-//W3C//DTD SVG 1.1//EN"
 "http://www.w3.org/Graphics/SVG/1.1/DTD/svg11.dtd">
<!-- Generated by graphviz version 15.1.1 (0)
 -->
<!-- Pages: 1 -->
<svg width="5262pt" height="256pt"
 viewBox="0.00 0.00 5262.00 256.00" xmlns="http://www.w3.org/2000/svg" xmlns:xlink="http://www.w3.org/1999/xlink">
<g id="graph0" class="graph" transform="scale(1 1) rotate(0) translate(4 251.5)">
<polygon fill="white" stroke="none" points="-4,4 -4,-251.5 5258,-251.5 5258,4 -4,4"/>
<g id="clust1" class="cluster">
<title>cluster_database</title>
<polygon fill="white" stroke="lightgrey" points="8,-163.75 8,-239.5 196,-239.5 196,-163.75 8,-163.75"/>
<text xml:space="preserve" text-anchor="middle" x="102" y="-222.2" font-family="Times,serif" font-size="14.00">Database</text>
</g>
<g id="clust2" class="cluster">
<title>cluster_test_data</title>
<polygon fill="white" stroke="lightgrey" points="4862,-80 4862,-155.75 5246,-155.75 5246,-80 4862,-80"/>
<text xml:space="preserve" text-anchor="middle" x="5054" y="-138.45" font-family="Times,serif" font-size="14.00">Test Data</text>
</g>
<g id="clust3" class="cluster">
<title>cluster_other</title>
<polygon fill="white" stroke="lightgrey" points="204,-8 204,-239.5 4854,-239.5 4854,-8 204,-8"/>
<text xml:space="preserve" text-anchor="middle" x="2529" y="-222.2" font-family="Times,serif" font-size="14.00">Other</text>
</g>
<!-- factory_session -->
<g id="node1" class="node">
<title>factory_session</title>
<polygon fill="#fff0f5" stroke="#ffb6c1" points="116,-207.75 16,-207.75 16,-171.75 116,-171.75 116,-207.75"/>
<text xml:space="preserve" text-anchor="middle" x="66" y="-184.32" font-family="Times,serif" font-size="14.00">factory_session</text>
</g>
<!-- db -->
<g id="node2" class="node">
<title>db</title>
<polygon fill="#fff0f5" stroke="#ffb6c1" points="188,-207.75 134,-207.75 134,-171.75 188,-171.75 188,-207.75"/>
<text xml:space="preserve" text-anchor="middle" x="161" y="-184.32" font-family="Times,serif" font-size="14.00">db</text>
</g>
<!-- boxitem_test_data -->
<g id="node3" class="node">
<title>boxitem_test_data</title>
<polygon fill="#fff0f5" stroke="#ffb6c1" points="4985.88,-124 4870.12,-124 4870.12,-88 4985.88,-88 4985.88,-124"/>
<text xml:space="preserve" text-anchor="middle" x="4928" y="-100.58" font-family="Times,serif" font-size="14.00">boxitem_test_data</text>
</g>
<!-- habit_test_data -->
<g id="node4" class="node">
<title>habit_test_data</title>
<polygon fill="#fff0f5" stroke="#ffb6c1" points="5101.88,-124 5004.12,-124 5004.12,-88 5101.88,-88 5101.88,-124"/>
<text xml:space="preserve" text-anchor="middle" x="5053" y="-100.58" font-family="Times,serif" font-size="14.00">habit_test_data</text>
</g>
<!-- insert_testing_data -->
<g id="node5" class="node">
<title>insert_testing_data</title>
<polygon fill="#fff0f5" stroke="#ffb6c1" points="5238,-124 5120,-124 5120,-88 5238,-88 5238,-124"/>
<text xml:space="preserve" text-anchor="middle" x="5179" y="-100.58" font-family="Times,serif" font-size="14.00">insert_testing_data</text>
</g>
<!-- test_api_function -->
<g id="node6" class="node">
<title>test_api_function</title>
<polygon fill="#fff0f5" stroke="#ffb6c1" points="321.88,-207.75 212.12,-207.75 212.12,-171.75 321.88,-171.75 321.88,-207.75"/>
<text xml:space="preserve" text-anchor="middle" x="267" y="-184.32" font-family="Times,serif" font-size="14.00">test_api_function</text>
</g>
<!-- test_api_logged_in_function -->
<g id="node7" class="node">
<title>test_api_logged_in_function</title>
<polygon fill="#fff0f5" stroke="#ffb6c1" points="510.25,-207.75 339.75,-207.75 339.75,-171.75 510.25,-171.75 510.25,-207.75"/>
<text xml:space="preserve" text-anchor="middle" x="425" y="-184.32" font-family="Times,serif" font-size="14.00">test_api_logged_in_function</text>
</g>
<!-- test_api_logged_in_admin_function -->
<g id="node8" class="node">
<title>test_api_logged_in_admin_function</title>
<polygon fill="#fff0f5" stroke="#ffb6c1" points="739.88,-207.75 528.12,-207.75 528.12,-171.75 739.88,-171.75 739.88,-207.75"/>
<text xml:space="preserve" text-anchor="middle" x="634" y="-184.32" font-family="Times,serif" font-size="14.00">test_api_logged_in_admin_function</text>
</g>
<!-- txn_api -->
<g id="node9" class="node">
<title>txn_api</title>
<polygon fill="#fff0f5" stroke="#ffb6c1" points="814.25,-207.75 757.75,-207.75 757.75,-171.75 814.25,-171.75 814.25,-207.75"/>
<text xml:space="preserve" text-anchor="middle" x="786" y="-184.32" font-family="Times,serif" font-size="14.00">txn_api</text>
</g>
<!-- auth_test_context -->
<g id="node23" class="node">
<title>auth_test_context</title>
<polygon fill="#fff0f5" stroke="#ffb6c1" points="457.62,-124 346.38,-124 346.38,-88 457.62,-88 457.62,-124"/>
<text xml:space="preserve" text-anchor="middle" x="402" y="-100.58" font-family="Times,serif" font-size="14.00">auth_test_context</text>
</g>
<!-- txn_api&#45;&gt;auth_test_context -->
<g id="edge2" class="edge">
<title>txn_api&#45;&gt;auth_test_context</title>
<path fill="none" stroke="black" d="M764.77,-171.47C759.86,-168.34 754.46,-165.51 749,-163.75 689.32,-144.55 526.19,-176.42 467,-155.75 452.5,-150.69 438.57,-141.11 427.36,-131.78"/>
<polygon fill="black" stroke="black" points="429.95,-129.39 420.12,-125.43 425.33,-134.66 429.95,-129.39"/>
</g>
<!-- users_test_context -->
<g id="node45" class="node">
<title>users_test_context</title>
<polygon fill="#fff0f5" stroke="#ffb6c1" points="327.88,-124 212.12,-124 212.12,-88 327.88,-88 327.88,-124"/>
<text xml:space="preserve" text-anchor="middle" x="270" y="-100.58" font-family="Times,serif" font-size="14.00">users_test_context</text>
</g>
<!-- txn_api&#45;&gt;users_test_context -->
<g id="edge24" class="edge">
<title>txn_api&#45;&gt;users_test_context</title>
<path fill="none" stroke="black" d="M764.78,-171.44C759.87,-168.3 754.47,-165.48 749,-163.75 705.35,-149.92 380.4,-170.34 337,-155.75 322.15,-150.76 307.81,-141.19 296.24,-131.85"/>
<polygon fill="black" stroke="black" points="298.63,-129.29 288.74,-125.47 294.09,-134.62 298.63,-129.29"/>
</g>
<!-- txn_api_logged_in -->
<g id="node10" class="node">
<title>txn_api_logged_in</title>
<polygon fill="#fff0f5" stroke="#ffb6c1" points="2724.62,-207.75 2607.38,-207.75 2607.38,-171.75 2724.62,-171.75 2724.62,-207.75"/>
<text xml:space="preserve" text-anchor="middle" x="2666" y="-184.32" font-family="Times,serif" font-size="14.00">txn_api_logged_in</text>
</g>
<!-- txn_api_logged_in&#45;&gt;boxitem_test_data -->
<g id="edge6" class="edge">
<title>txn_api_logged_in&#45;&gt;boxitem_test_data</title>
<path fill="none" stroke="black" d="M2724.74,-185.14C2821.91,-179.35 3022.24,-168.19 3192,-163.75 3215.13,-163.15 4835.94,-162.73 4858,-155.75 4873.64,-150.8 4888.85,-141.01 4901.07,-131.49"/>
<polygon fill="black" stroke="black" points="4903.11,-134.35 4908.63,-125.31 4898.67,-128.93 4903.11,-134.35"/>
</g>
<!-- txn_api_logged_in&#45;&gt;habit_test_data -->
<g id="edge38" class="edge">
<title>txn_api_logged_in&#45;&gt;habit_test_data</title>
<path fill="none" stroke="black" d="M2724.74,-185.13C2821.91,-179.33 3022.24,-168.16 3192,-163.75 3217.03,-163.1 4971.49,-164.38 4995,-155.75 5008.37,-150.84 5020.81,-141.37 5030.71,-132.06"/>
<polygon fill="black" stroke="black" points="5033.05,-134.67 5037.65,-125.12 5028.1,-129.72 5033.05,-134.67"/>
</g>
<!-- bean_crud_tester -->
<g id="node22" class="node">
<title>bean_crud_tester</title>
<polygon fill="#fff0f5" stroke="#ffb6c1" points="4582.12,-124 4473.88,-124 4473.88,-88 4582.12,-88 4582.12,-124"/>
<text xml:space="preserve" text-anchor="middle" x="4528" y="-100.58" font-family="Times,serif" font-size="14.00">bean_crud_tester</text>
</g>
<!-- txn_api_logged_in&#45;&gt;bean_crud_tester -->
<g id="edge1" class="edge">
<title>txn_api_logged_in&#45;&gt;bean_crud_tester</title>
<path fill="none" stroke="black" d="M2724.74,-185.17C2821.91,-179.42 3022.24,-168.32 3192,-163.75 3209.67,-163.27 4448.29,-161.52 4465,-155.75 4479.2,-150.85 4492.68,-141.33 4503.51,-132"/>
<polygon fill="black" stroke="black" points="4505.79,-134.66 4510.82,-125.33 4501.07,-129.49 4505.79,-134.66"/>
</g>
<!-- event_crud_tester -->
<g id="node27" class="node">
<title>event_crud_tester</title>
<polygon fill="#fff0f5" stroke="#ffb6c1" points="1112.62,-124 1001.38,-124 1001.38,-88 1112.62,-88 1112.62,-124"/>
<text xml:space="preserve" text-anchor="middle" x="1057" y="-100.58" font-family="Times,serif" font-size="14.00">event_crud_tester</text>
</g>
<!-- txn_api_logged_in&#45;&gt;event_crud_tester -->
<g id="edge5" class="edge">
<title>txn_api_logged_in&#45;&gt;event_crud_tester</title>
<path fill="none" stroke="black" d="M2607.11,-188.51C2332.99,-187.28 1192.27,-180.65 1121,-155.75 1106.78,-150.78 1093.19,-141.35 1082.22,-132.1"/>
<polygon fill="black" stroke="black" points="1084.58,-129.52 1074.79,-125.48 1079.93,-134.75 1084.58,-129.52"/>
</g>
<!-- project_crud_tester -->
<g id="node28" class="node">
<title>project_crud_tester</title>
<polygon fill="#fff0f5" stroke="#ffb6c1" points="1249.75,-124 1130.25,-124 1130.25,-88 1249.75,-88 1249.75,-124"/>
<text xml:space="preserve" text-anchor="middle" x="1190" y="-100.58" font-family="Times,serif" font-size="14.00">project_crud_tester</text>
</g>
<!-- txn_api_logged_in&#45;&gt;project_crud_tester -->
<g id="edge7" class="edge">
<title>txn_api_logged_in&#45;&gt;project_crud_tester</title>
<path fill="none" stroke="black" d="M2607.3,-188.33C2349.03,-186.35 1323.85,-177.19 1259,-155.75 1243.69,-150.69 1228.8,-140.98 1216.79,-131.55"/>
<polygon fill="black" stroke="black" points="1219.32,-129.1 1209.38,-125.44 1214.87,-134.5 1219.32,-129.1"/>
</g>
<!-- client_with_projects -->
<g id="node29" class="node">
<title>client_with_projects</title>
<polygon fill="#fff0f5" stroke="#ffb6c1" points="1393.75,-124 1268.25,-124 1268.25,-88 1393.75,-88 1393.75,-124"/>
<text xml:space="preserve" text-anchor="middle" x="1331" y="-100.58" font-family="Times,serif" font-size="14.00">client_with_projects</text>
</g>
<!-- txn_api_logged_in&#45;&gt;client_with_projects -->
<g id="edge8" class="edge">
<title>txn_api_logged_in&#45;&gt;client_with_projects</title>
<path fill="none" stroke="black" d="M2606.91,-189.15C2372.9,-190.48 1518.19,-192.73 1403,-155.75 1387.19,-150.68 1371.68,-140.97 1359.13,-131.54"/>
<polygon fill="black" stroke="black" points="1361.36,-128.84 1351.34,-125.4 1357.03,-134.34 1361.36,-128.84"/>
</g>
<!-- project_with_mixed_items -->
<g id="node30" class="node">
<title>project_with_mixed_items</title>
<polygon fill="#fff0f5" stroke="#ffb6c1" points="1572,-124 1412,-124 1412,-88 1572,-88 1572,-124"/>
<text xml:space="preserve" text-anchor="middle" x="1492" y="-100.58" font-family="Times,serif" font-size="14.00">project_with_mixed_items</text>
</g>
<!-- txn_api_logged_in&#45;&gt;project_with_mixed_items -->
<g id="edge9" class="edge">
<title>txn_api_logged_in&#45;&gt;project_with_mixed_items</title>
<path fill="none" stroke="black" d="M2606.9,-188.55C2395.02,-187.59 1680.9,-182.42 1582,-155.75 1562.39,-150.46 1542.36,-140.18 1526.18,-130.42"/>
<polygon fill="black" stroke="black" points="1528.26,-127.59 1517.93,-125.26 1524.55,-133.53 1528.26,-127.59"/>
</g>
<!-- project_with_item -->
<g id="node31" class="node">
<title>project_with_item</title>
<polygon fill="#fff0f5" stroke="#ffb6c1" points="1705.5,-124 1590.5,-124 1590.5,-88 1705.5,-88 1705.5,-124"/>
<text xml:space="preserve" text-anchor="middle" x="1648" y="-100.58" font-family="Times,serif" font-size="14.00">project_with_item</text>
</g>
<!-- txn_api_logged_in&#45;&gt;project_with_item -->
<g id="edge10" class="edge">
<title>txn_api_logged_in&#45;&gt;project_with_item</title>
<path fill="none" stroke="black" d="M2607.09,-188.71C2412.67,-188.29 1798.95,-184.68 1715,-155.75 1700.19,-150.65 1685.86,-141.06 1674.28,-131.74"/>
<polygon fill="black" stroke="black" points="1676.67,-129.18 1666.77,-125.38 1672.14,-134.52 1676.67,-129.18"/>
</g>
<!-- project_id -->
<g id="node32" class="node">
<title>project_id</title>
<polygon fill="#fff0f5" stroke="#ffb6c1" points="1794,-124 1724,-124 1724,-88 1794,-88 1794,-124"/>
<text xml:space="preserve" text-anchor="middle" x="1759" y="-100.58" font-family="Times,serif" font-size="14.00">project_id</text>
</g>
<!-- txn_api_logged_in&#45;&gt;project_id -->
<g id="edge11" class="edge">
<title>txn_api_logged_in&#45;&gt;project_id</title>
<path fill="none" stroke="black" d="M2606.93,-189.13C2424.09,-189.96 1875.28,-189.55 1803,-155.75 1792.42,-150.8 1783.27,-142.01 1776.09,-133.24"/>
<polygon fill="black" stroke="black" points="1779.06,-131.38 1770.25,-125.49 1773.47,-135.58 1779.06,-131.38"/>
</g>
<!-- seeded -->
<g id="node33" class="node">
<title>seeded</title>
<polygon fill="#fff0f5" stroke="#ffb6c1" points="1866,-124 1812,-124 1812,-88 1866,-88 1866,-124"/>
<text xml:space="preserve" text-anchor="middle" x="1839" y="-100.58" font-family="Times,serif" font-size="14.00">seeded</text>
</g>
<!-- txn_api_logged_in&#45;&gt;seeded -->
<g id="edge12" class="edge">
<title>txn_api_logged_in&#45;&gt;seeded</title>
<path fill="none" stroke="black" d="M2606.9,-189.2C2434.28,-190.12 1938.99,-189.74 1875,-155.75 1865.78,-150.86 1858.3,-142.44 1852.6,-133.96"/>
<polygon fill="black" stroke="black" points="1855.66,-132.25 1847.5,-125.48 1849.66,-135.85 1855.66,-132.25"/>
</g>
<!-- item_with_tasks -->
<g id="node34" class="node">
<title>item_with_tasks</title>
<polygon fill="#fff0f5" stroke="#ffb6c1" points="1988.25,-124 1883.75,-124 1883.75,-88 1988.25,-88 1988.25,-124"/>
<text xml:space="preserve" text-anchor="middle" x="1936" y="-100.58" font-family="Times,serif" font-size="14.00">item_with_tasks</text>
</g>
<!-- txn_api_logged_in&#45;&gt;item_with_tasks -->
<g id="edge13" class="edge">
<title>txn_api_logged_in&#45;&gt;item_with_tasks</title>
<path fill="none" stroke="black" d="M2606.93,-187.91C2454.01,-185.44 2053.15,-177 1997,-155.75 1983.33,-150.58 1970.36,-141.11 1959.91,-131.89"/>
<polygon fill="black" stroke="black" points="1962.59,-129.6 1952.89,-125.34 1957.81,-134.72 1962.59,-129.6"/>
</g>
<!-- one_of_each_state -->
<g id="node35" class="node">
<title>one_of_each_state</title>
<polygon fill="#fff0f5" stroke="#ffb6c1" points="2123.62,-124 2006.38,-124 2006.38,-88 2123.62,-88 2123.62,-124"/>
<text xml:space="preserve" text-anchor="middle" x="2065" y="-100.58" font-family="Times,serif" font-size="14.00">one_of_each_state</text>
</g>
<!-- txn_api_logged_in&#45;&gt;one_of_each_state -->
<g id="edge14" class="edge">
<title>txn_api_logged_in&#45;&gt;one_of_each_state</title>
<path fill="none" stroke="black" d="M2607.24,-189.24C2487.22,-189.56 2217.98,-186.68 2132,-155.75 2117.37,-150.49 2103.15,-140.97 2091.6,-131.74"/>
<polygon fill="black" stroke="black" points="2094.02,-129.21 2084.11,-125.46 2089.52,-134.57 2094.02,-129.21"/>
</g>
<!-- item_with_dependency_and_task -->
<g id="node36" class="node">
<title>item_with_dependency_and_task</title>
<polygon fill="#fff0f5" stroke="#ffb6c1" points="2338.75,-124 2141.25,-124 2141.25,-88 2338.75,-88 2338.75,-124"/>
<text xml:space="preserve" text-anchor="middle" x="2240" y="-100.58" font-family="Times,serif" font-size="14.00">item_with_dependency_and_task</text>
</g>
<!-- txn_api_logged_in&#45;&gt;item_with_dependency_and_task -->
<g id="edge15" class="edge">
<title>txn_api_logged_in&#45;&gt;item_with_dependency_and_task</title>
<path fill="none" stroke="black" d="M2606.95,-188.24C2542.32,-186.39 2436.15,-179.55 2348,-155.75 2325.1,-149.57 2300.93,-139.07 2281.27,-129.39"/>
<polygon fill="black" stroke="black" points="2283,-126.34 2272.49,-124.97 2279.84,-132.59 2283,-126.34"/>
</g>
<!-- project_with_ordered_items -->
<g id="node37" class="node">
<title>project_with_ordered_items</title>
<polygon fill="#fff0f5" stroke="#ffb6c1" points="2524.75,-124 2357.25,-124 2357.25,-88 2524.75,-88 2524.75,-124"/>
<text xml:space="preserve" text-anchor="middle" x="2441" y="-100.58" font-family="Times,serif" font-size="14.00">project_with_ordered_items</text>
</g>
<!-- txn_api_logged_in&#45;&gt;project_with_ordered_items -->
<g id="edge16" class="edge">
<title>txn_api_logged_in&#45;&gt;project_with_ordered_items</title>
<path fill="none" stroke="black" d="M2606.92,-177.14C2583.8,-171.78 2557.29,-164.62 2534,-155.75 2515.52,-148.71 2496,-138.88 2479.64,-129.89"/>
<polygon fill="black" stroke="black" points="2481.66,-127.01 2471.22,-125.18 2478.24,-133.12 2481.66,-127.01"/>
</g>
<!-- project_and_client -->
<g id="node38" class="node">
<title>project_and_client</title>
<polygon fill="#fff0f5" stroke="#ffb6c1" points="2658.88,-124 2543.12,-124 2543.12,-88 2658.88,-88 2658.88,-124"/>
<text xml:space="preserve" text-anchor="middle" x="2601" y="-100.58" font-family="Times,serif" font-size="14.00">project_and_client</text>
</g>
<!-- txn_api_logged_in&#45;&gt;project_and_client -->
<g id="edge17" class="edge">
<title>txn_api_logged_in&#45;&gt;project_and_client</title>
<path fill="none" stroke="black" d="M2652.22,-171.41C2643.34,-160.25 2631.64,-145.53 2621.66,-132.98"/>
<polygon fill="black" stroke="black" points="2624.67,-131.15 2615.71,-125.5 2619.19,-135.5 2624.67,-131.15"/>
</g>
<!-- book_crud_tester -->
<g id="node39" class="node">
<title>book_crud_tester</title>
<polygon fill="#fff0f5" stroke="#ffb6c1" points="2787.25,-124 2676.75,-124 2676.75,-88 2787.25,-88 2787.25,-124"/>
<text xml:space="preserve" text-anchor="middle" x="2732" y="-100.58" font-family="Times,serif" font-size="14.00">book_crud_tester</text>
</g>
<!-- txn_api_logged_in&#45;&gt;book_crud_tester -->
<g id="edge18" class="edge">
<title>txn_api_logged_in&#45;&gt;book_crud_tester</title>
<path fill="none" stroke="black" d="M2680,-171.41C2689.01,-160.25 2700.89,-145.53 2711.02,-132.98"/>
<polygon fill="black" stroke="black" points="2713.51,-135.47 2717.07,-125.49 2708.07,-131.07 2713.51,-135.47"/>
</g>
<!-- autotask_crud_tester -->
<g id="node40" class="node">
<title>autotask_crud_tester</title>
<polygon fill="#fff0f5" stroke="#ffb6c1" points="2932.88,-124 2805.12,-124 2805.12,-88 2932.88,-88 2932.88,-124"/>
<text xml:space="preserve" text-anchor="middle" x="2869" y="-100.58" font-family="Times,serif" font-size="14.00">autotask_crud_tester</text>
</g>
<!-- txn_api_logged_in&#45;&gt;autotask_crud_tester -->
<g id="edge19" class="edge">
<title>txn_api_logged_in&#45;&gt;autotask_crud_tester</title>
<path fill="none" stroke="black" d="M2725.02,-178.23C2747.78,-173.03 2773.66,-165.69 2796,-155.75 2810.65,-149.23 2825.58,-139.84 2838.09,-131.04"/>
<polygon fill="black" stroke="black" points="2839.88,-134.07 2845.92,-125.36 2835.77,-128.4 2839.88,-134.07"/>
</g>
<!-- cooking_technique_crud_tester -->
<g id="node41" class="node">
<title>cooking_technique_crud_tester</title>
<polygon fill="#fff0f5" stroke="#ffb6c1" points="3137.12,-124 2950.88,-124 2950.88,-88 3137.12,-88 3137.12,-124"/>
<text xml:space="preserve" text-anchor="middle" x="3044" y="-100.58" font-family="Times,serif" font-size="14.00">cooking_technique_crud_tester</text>
</g>
<!-- txn_api_logged_in&#45;&gt;cooking_technique_crud_tester -->
<g id="edge20" class="edge">
<title>txn_api_logged_in&#45;&gt;cooking_technique_crud_tester</title>
<path fill="none" stroke="black" d="M2724.99,-187.25C2781.64,-184.52 2869.12,-176.9 2942,-155.75 2963.37,-149.55 2985.82,-139.28 3004.2,-129.76"/>
<polygon fill="black" stroke="black" points="3005.71,-132.92 3012.9,-125.14 3002.42,-126.74 3005.71,-132.92"/>
</g>
<!-- pattern_crud_tester -->
<g id="node42" class="node">
<title>pattern_crud_tester</title>
<polygon fill="#fff0f5" stroke="#ffb6c1" points="3275.12,-124 3154.88,-124 3154.88,-88 3275.12,-88 3275.12,-124"/>
<text xml:space="preserve" text-anchor="middle" x="3215" y="-100.58" font-family="Times,serif" font-size="14.00">pattern_crud_tester</text>
</g>
<!-- txn_api_logged_in&#45;&gt;pattern_crud_tester -->
<g id="edge21" class="edge">
<title>txn_api_logged_in&#45;&gt;pattern_crud_tester</title>
<path fill="none" stroke="black" d="M2725.1,-188.65C2835.8,-187.81 3070.06,-182.77 3146,-155.75 3160.94,-150.43 3175.56,-140.92 3187.48,-131.69"/>
<polygon fill="black" stroke="black" points="3189.67,-134.42 3195.23,-125.4 3185.26,-128.98 3189.67,-134.42"/>
</g>
<!-- money_wasted_crud_tester -->
<g id="node43" class="node">
<title>money_wasted_crud_tester</title>
<polygon fill="#fff0f5" stroke="#ffb6c1" points="3456.5,-124 3293.5,-124 3293.5,-88 3456.5,-88 3456.5,-124"/>
<text xml:space="preserve" text-anchor="middle" x="3375" y="-100.58" font-family="Times,serif" font-size="14.00">money_wasted_crud_tester</text>
</g>
<!-- txn_api_logged_in&#45;&gt;money_wasted_crud_tester -->
<g id="edge22" class="edge">
<title>txn_api_logged_in&#45;&gt;money_wasted_crud_tester</title>
<path fill="none" stroke="black" d="M2725.01,-186.29C2874.35,-179.99 3257.39,-163.19 3284,-155.75 3303.73,-150.24 3323.98,-139.93 3340.35,-130.21"/>
<polygon fill="black" stroke="black" points="3342.02,-133.29 3348.71,-125.07 3338.36,-127.32 3342.02,-133.29"/>
</g>
<!-- countdown_crud_tester -->
<g id="node44" class="node">
<title>countdown_crud_tester</title>
<polygon fill="#fff0f5" stroke="#ffb6c1" points="3617.38,-124 3474.62,-124 3474.62,-88 3617.38,-88 3617.38,-124"/>
<text xml:space="preserve" text-anchor="middle" x="3546" y="-100.58" font-family="Times,serif" font-size="14.00">countdown_crud_tester</text>
</g>
<!-- txn_api_logged_in&#45;&gt;countdown_crud_tester -->
<g id="edge23" class="edge">
<title>txn_api_logged_in&#45;&gt;countdown_crud_tester</title>
<path fill="none" stroke="black" d="M2724.75,-185.61C2821.94,-180.48 3022.31,-170.26 3192,-163.75 3222.44,-162.58 3436.8,-164.41 3466,-155.75 3483.48,-150.57 3501,-140.57 3515.16,-130.97"/>
<polygon fill="black" stroke="black" points="3517.01,-133.96 3523.16,-125.33 3512.97,-128.24 3517.01,-133.96"/>
</g>
<!-- users_logged_in_context -->
<g id="node46" class="node">
<title>users_logged_in_context</title>
<polygon fill="#fff0f5" stroke="#ffb6c1" points="3786.5,-124 3635.5,-124 3635.5,-88 3786.5,-88 3786.5,-124"/>
<text xml:space="preserve" text-anchor="middle" x="3711" y="-100.58" font-family="Times,serif" font-size="14.00">users_logged_in_context</text>
</g>
<!-- txn_api_logged_in&#45;&gt;users_logged_in_context -->
<g id="edge25" class="edge">
<title>txn_api_logged_in&#45;&gt;users_logged_in_context</title>
<path fill="none" stroke="black" d="M2724.75,-185.4C2821.92,-179.98 3022.27,-169.35 3192,-163.75 3216.1,-162.96 3602.76,-162.17 3626,-155.75 3644.7,-150.58 3663.6,-140.35 3678.82,-130.58"/>
<polygon fill="black" stroke="black" points="3680.61,-133.6 3686.99,-125.13 3676.73,-127.77 3680.61,-133.6"/>
</g>
<!-- duration_crud_tester -->
<g id="node50" class="node">
<title>duration_crud_tester</title>
<polygon fill="#fff0f5" stroke="#ffb6c1" points="3931.88,-124 3804.12,-124 3804.12,-88 3931.88,-88 3931.88,-124"/>
<text xml:space="preserve" text-anchor="middle" x="3868" y="-100.58" font-family="Times,serif" font-size="14.00">duration_crud_tester</text>
</g>
<!-- txn_api_logged_in&#45;&gt;duration_crud_tester -->
<g id="edge29" class="edge">
<title>txn_api_logged_in&#45;&gt;duration_crud_tester</title>
<path fill="none" stroke="black" d="M2724.74,-185.3C2821.92,-179.74 3022.26,-168.91 3192,-163.75 3225.54,-162.73 3763.98,-165.8 3796,-155.75 3811.95,-150.74 3827.58,-140.94 3840.18,-131.43"/>
<polygon fill="black" stroke="black" points="3842.32,-134.2 3847.99,-125.24 3837.98,-128.71 3842.32,-134.2"/>
</g>
<!-- shop_crud_tester -->
<g id="node51" class="node">
<title>shop_crud_tester</title>
<polygon fill="#fff0f5" stroke="#ffb6c1" points="4057.75,-124 3950.25,-124 3950.25,-88 4057.75,-88 4057.75,-124"/>
<text xml:space="preserve" text-anchor="middle" x="4004" y="-100.58" font-family="Times,serif" font-size="14.00">shop_crud_tester</text>
</g>
<!-- txn_api_logged_in&#45;&gt;shop_crud_tester -->
<g id="edge30" class="edge">
<title>txn_api_logged_in&#45;&gt;shop_crud_tester</title>
<path fill="none" stroke="black" d="M2724.74,-185.25C2821.91,-179.62 3022.25,-168.69 3192,-163.75 3212.8,-163.14 3921.35,-162.58 3941,-155.75 3955.19,-150.82 3968.67,-141.3 3979.5,-131.97"/>
<polygon fill="black" stroke="black" points="3981.78,-134.63 3986.81,-125.3 3977.06,-129.46 3981.78,-134.63"/>
</g>
<!-- autofun_crud_tester -->
<g id="node52" class="node">
<title>autofun_crud_tester</title>
<polygon fill="#fff0f5" stroke="#ffb6c1" points="4200,-124 4076,-124 4076,-88 4200,-88 4200,-124"/>
<text xml:space="preserve" text-anchor="middle" x="4138" y="-100.58" font-family="Times,serif" font-size="14.00">autofun_crud_tester</text>
</g>
<!-- txn_api_logged_in&#45;&gt;autofun_crud_tester -->
<g id="edge31" class="edge">
<title>txn_api_logged_in&#45;&gt;autofun_crud_tester</title>
<path fill="none" stroke="black" d="M2724.74,-185.22C2821.91,-179.55 3022.25,-168.56 3192,-163.75 3216.3,-163.06 4043.82,-163.06 4067,-155.75 4082.8,-150.77 4098.21,-140.97 4110.63,-131.46"/>
<polygon fill="black" stroke="black" points="4112.71,-134.27 4118.31,-125.27 4108.32,-128.82 4112.71,-134.27"/>
</g>
<!-- box_crud_tester -->
<g id="node53" class="node">
<title>box_crud_tester</title>
<polygon fill="#fff0f5" stroke="#ffb6c1" points="4321.5,-124 4218.5,-124 4218.5,-88 4321.5,-88 4321.5,-124"/>
<text xml:space="preserve" text-anchor="middle" x="4270" y="-100.58" font-family="Times,serif" font-size="14.00">box_crud_tester</text>
</g>
<!-- txn_api_logged_in&#45;&gt;box_crud_tester -->
<g id="edge32" class="edge">
<title>txn_api_logged_in&#45;&gt;box_crud_tester</title>
<path fill="none" stroke="black" d="M2724.74,-185.2C2821.91,-179.49 3022.25,-168.45 3192,-163.75 3220.24,-162.97 4182.38,-165.2 4209,-155.75 4222.97,-150.79 4236.14,-141.17 4246.64,-131.78"/>
<polygon fill="black" stroke="black" points="4248.85,-134.51 4253.7,-125.09 4244.03,-129.43 4248.85,-134.51"/>
</g>
<!-- article_crud_tester -->
<g id="node54" class="node">
<title>article_crud_tester</title>
<polygon fill="#fff0f5" stroke="#ffb6c1" points="4456.25,-124 4339.75,-124 4339.75,-88 4456.25,-88 4456.25,-124"/>
<text xml:space="preserve" text-anchor="middle" x="4398" y="-100.58" font-family="Times,serif" font-size="14.00">article_crud_tester</text>
</g>
<!-- txn_api_logged_in&#45;&gt;article_crud_tester -->
<g id="edge33" class="edge">
<title>txn_api_logged_in&#45;&gt;article_crud_tester</title>
<path fill="none" stroke="black" d="M2724.74,-185.18C2821.91,-179.45 3022.25,-168.38 3192,-163.75 3223.63,-162.89 4300.95,-165.64 4331,-155.75 4345.99,-150.82 4360.43,-141.16 4372.04,-131.74"/>
<polygon fill="black" stroke="black" points="4374.24,-134.47 4379.56,-125.31 4369.69,-129.15 4374.24,-134.47"/>
</g>
<!-- api_with_redis -->
<g id="node56" class="node">
<title>api_with_redis</title>
<polygon fill="#fff0f5" stroke="#ffb6c1" points="4696.12,-124 4599.88,-124 4599.88,-88 4696.12,-88 4696.12,-124"/>
<text xml:space="preserve" text-anchor="middle" x="4648" y="-100.58" font-family="Times,serif" font-size="14.00">api_with_redis</text>
</g>
<!-- txn_api_logged_in&#45;&gt;api_with_redis -->
<g id="edge35" class="edge">
<title>txn_api_logged_in&#45;&gt;api_with_redis</title>
<path fill="none" stroke="black" d="M2724.74,-185.16C2821.91,-179.39 3022.24,-168.27 3192,-163.75 3211.42,-163.23 4572.79,-162.53 4591,-155.75 4604.21,-150.83 4616.45,-141.35 4626.16,-132.05"/>
<polygon fill="black" stroke="black" points="4628.46,-134.71 4632.96,-125.12 4623.46,-129.81 4628.46,-134.71"/>
</g>
<!-- task_crud_tester -->
<g id="node57" class="node">
<title>task_crud_tester</title>
<polygon fill="#fff0f5" stroke="#ffb6c1" points="580.25,-124 475.75,-124 475.75,-88 580.25,-88 580.25,-124"/>
<text xml:space="preserve" text-anchor="middle" x="528" y="-100.58" font-family="Times,serif" font-size="14.00">task_crud_tester</text>
</g>
<!-- txn_api_logged_in&#45;&gt;task_crud_tester -->
<g id="edge36" class="edge">
<title>txn_api_logged_in&#45;&gt;task_crud_tester</title>
<path fill="none" stroke="black" d="M2607.11,-188.07C2271.39,-184.18 613.4,-164.52 589,-155.75 575.25,-150.81 562.26,-141.38 551.83,-132.12"/>
<polygon fill="black" stroke="black" points="554.5,-129.83 544.81,-125.53 549.7,-134.93 554.5,-129.83"/>
</g>
<!-- recipe_crud_tester -->
<g id="node58" class="node">
<title>recipe_crud_tester</title>
<polygon fill="#fff0f5" stroke="#ffb6c1" points="713.88,-124 598.12,-124 598.12,-88 713.88,-88 713.88,-124"/>
<text xml:space="preserve" text-anchor="middle" x="656" y="-100.58" font-family="Times,serif" font-size="14.00">recipe_crud_tester</text>
</g>
<!-- txn_api_logged_in&#45;&gt;recipe_crud_tester -->
<g id="edge37" class="edge">
<title>txn_api_logged_in&#45;&gt;recipe_crud_tester</title>
<path fill="none" stroke="black" d="M2606.99,-188.24C2286.59,-185.38 768.78,-171.07 723,-155.75 708.04,-150.74 693.6,-141.08 681.98,-131.66"/>
<polygon fill="black" stroke="black" points="684.34,-129.08 674.46,-125.25 679.79,-134.4 684.34,-129.08"/>
</g>
<!-- message_crud_tester -->
<g id="node59" class="node">
<title>message_crud_tester</title>
<polygon fill="#fff0f5" stroke="#ffb6c1" points="860.25,-124 731.75,-124 731.75,-88 860.25,-88 860.25,-124"/>
<text xml:space="preserve" text-anchor="middle" x="796" y="-100.58" font-family="Times,serif" font-size="14.00">message_crud_tester</text>
</g>
<!-- txn_api_logged_in&#45;&gt;message_crud_tester -->
<g id="edge39" class="edge">
<title>txn_api_logged_in&#45;&gt;message_crud_tester</title>
<path fill="none" stroke="black" d="M2607.29,-188.6C2307.01,-187.72 953.68,-182.28 869,-155.75 852.73,-150.65 836.75,-140.71 823.9,-131.12"/>
<polygon fill="black" stroke="black" points="826.37,-128.6 816.33,-125.2 822.06,-134.12 826.37,-128.6"/>
</g>
<!-- chat_crud_tester -->
<g id="node60" class="node">
<title>chat_crud_tester</title>
<polygon fill="#fff0f5" stroke="#ffb6c1" points="983.62,-124 878.38,-124 878.38,-88 983.62,-88 983.62,-124"/>
<text xml:space="preserve" text-anchor="middle" x="931" y="-100.58" font-family="Times,serif" font-size="14.00">chat_crud_tester</text>
</g>
<!-- txn_api_logged_in&#45;&gt;chat_crud_tester -->
<g id="edge40" class="edge">
<title>txn_api_logged_in&#45;&gt;chat_crud_tester</title>
<path fill="none" stroke="black" d="M2607.04,-188.65C2318.88,-188.03 1069.35,-183.72 992,-155.75 978.26,-150.78 965.27,-141.35 954.84,-132.1"/>
<polygon fill="black" stroke="black" points="957.51,-129.8 947.82,-125.51 952.71,-134.9 957.51,-129.8"/>
</g>
<!-- txn_api_logged_in_admin -->
<g id="node11" class="node">
<title>txn_api_logged_in_admin</title>
<polygon fill="#fff0f5" stroke="#ffb6c1" points="4846.25,-207.75 4687.75,-207.75 4687.75,-171.75 4846.25,-171.75 4846.25,-207.75"/>
<text xml:space="preserve" text-anchor="middle" x="4767" y="-184.32" font-family="Times,serif" font-size="14.00">txn_api_logged_in_admin</text>
</g>
<!-- users_admin_context -->
<g id="node47" class="node">
<title>users_admin_context</title>
<polygon fill="#fff0f5" stroke="#ffb6c1" points="4845.75,-124 4714.25,-124 4714.25,-88 4845.75,-88 4845.75,-124"/>
<text xml:space="preserve" text-anchor="middle" x="4780" y="-100.58" font-family="Times,serif" font-size="14.00">users_admin_context</text>
</g>
<!-- txn_api_logged_in_admin&#45;&gt;users_admin_context -->
<g id="edge26" class="edge">
<title>txn_api_logged_in_admin&#45;&gt;users_admin_context</title>
<path fill="none" stroke="black" d="M4769.76,-171.41C4771.41,-161.01 4773.56,-147.52 4775.46,-135.57"/>
<polygon fill="black" stroke="black" points="4778.9,-136.23 4777.01,-125.81 4771.98,-135.13 4778.9,-136.23"/>
</g>
<!-- txn_multi_client -->
<g id="node12" class="node">
<title>txn_multi_client</title>
<polygon fill="#fff0f5" stroke="#ffb6c1" points="3392.62,-207.75 3287.38,-207.75 3287.38,-171.75 3392.62,-171.75 3392.62,-207.75"/>
<text xml:space="preserve" text-anchor="middle" x="3340" y="-184.32" font-family="Times,serif" font-size="14.00">txn_multi_client</text>
</g>
<!-- ruff_clean_output -->
<g id="node13" class="node">
<title>ruff_clean_output</title>
<polygon fill="#fff0f5" stroke="#ffb6c1" points="3523.38,-207.75 3410.62,-207.75 3410.62,-171.75 3523.38,-171.75 3523.38,-207.75"/>
<text xml:space="preserve" text-anchor="middle" x="3467" y="-184.32" font-family="Times,serif" font-size="14.00">ruff_clean_output</text>
</g>
<!-- ruff_with_issues_output -->
<g id="node14" class="node">
<title>ruff_with_issues_output</title>
<polygon fill="#fff0f5" stroke="#ffb6c1" points="3688.25,-207.75 3541.75,-207.75 3541.75,-171.75 3688.25,-171.75 3688.25,-207.75"/>
<text xml:space="preserve" text-anchor="middle" x="3615" y="-184.32" font-family="Times,serif" font-size="14.00">ruff_with_issues_output</text>
</g>
<!-- mypy_clean_output -->
<g id="node15" class="node">
<title>mypy_clean_output</title>
<polygon fill="#fff0f5" stroke="#ffb6c1" points="3829.62,-207.75 3706.38,-207.75 3706.38,-171.75 3829.62,-171.75 3829.62,-207.75"/>
<text xml:space="preserve" text-anchor="middle" x="3768" y="-184.32" font-family="Times,serif" font-size="14.00">mypy_clean_output</text>
</g>
<!-- bandit_with_issues_output -->
<g id="node16" class="node">
<title>bandit_with_issues_output</title>
<polygon fill="#fff0f5" stroke="#ffb6c1" points="4008,-207.75 3848,-207.75 3848,-171.75 4008,-171.75 4008,-207.75"/>
<text xml:space="preserve" text-anchor="middle" x="3928" y="-184.32" font-family="Times,serif" font-size="14.00">bandit_with_issues_output</text>
</g>
<!-- tokei_output -->
<g id="node17" class="node">
<title>tokei_output</title>
<polygon fill="#fff0f5" stroke="#ffb6c1" points="4110.12,-207.75 4025.88,-207.75 4025.88,-171.75 4110.12,-171.75 4110.12,-207.75"/>
<text xml:space="preserve" text-anchor="middle" x="4068" y="-184.32" font-family="Times,serif" font-size="14.00">tokei_output</text>
</g>
<!-- docker_images_output -->
<g id="node18" class="node">
<title>docker_images_output</title>
<polygon fill="#fff0f5" stroke="#ffb6c1" points="4267.5,-207.75 4128.5,-207.75 4128.5,-171.75 4267.5,-171.75 4267.5,-207.75"/>
<text xml:space="preserve" text-anchor="middle" x="4198" y="-184.32" font-family="Times,serif" font-size="14.00">docker_images_output</text>
</g>
<!-- seed_random -->
<g id="node19" class="node">
<title>seed_random</title>
<polygon fill="#fff0f5" stroke="#ffb6c1" points="4374.38,-207.75 4285.62,-207.75 4285.62,-171.75 4374.38,-171.75 4374.38,-207.75"/>
<text xml:space="preserve" text-anchor="middle" x="4330" y="-184.32" font-family="Times,serif" font-size="14.00">seed_random</text>
</g>
<!-- clear_verifier_cache -->
<g id="node20" class="node">
<title>clear_verifier_cache</title>
<polygon fill="#fff0f5" stroke="#ffb6c1" points="4516,-207.75 4392,-207.75 4392,-171.75 4516,-171.75 4516,-207.75"/>
<text xml:space="preserve" text-anchor="middle" x="4454" y="-184.32" font-family="Times,serif" font-size="14.00">clear_verifier_cache</text>
</g>
<!-- verifier -->
<g id="node21" class="node">
<title>verifier</title>
<polygon fill="#fff0f5" stroke="#ffb6c1" points="4588,-207.75 4534,-207.75 4534,-171.75 4588,-171.75 4588,-207.75"/>
<text xml:space="preserve" text-anchor="middle" x="4561" y="-184.32" font-family="Times,serif" font-size="14.00">verifier</text>
</g>
<!-- test_user -->
<g id="node24" class="node">
<title>test_user</title>
<polygon fill="#fff0f5" stroke="#ffb6c1" points="4670,-207.75 4606,-207.75 4606,-171.75 4670,-171.75 4670,-207.75"/>
<text xml:space="preserve" text-anchor="middle" x="4638" y="-184.32" font-family="Times,serif" font-size="14.00">test_user</text>
</g>
<!-- test_admin_user -->
<g id="node25" class="node">
<title>test_admin_user</title>
<polygon fill="#fff0f5" stroke="#ffb6c1" points="317.62,-52 212.38,-52 212.38,-16 317.62,-16 317.62,-52"/>
<text xml:space="preserve" text-anchor="middle" x="265" y="-28.57" font-family="Times,serif" font-size="14.00">test_admin_user</text>
</g>
<!-- jwt_handler -->
<g id="node26" class="node">
<title>jwt_handler</title>
<polygon fill="#fff0f5" stroke="#ffb6c1" points="416.62,-52 335.38,-52 335.38,-16 416.62,-16 416.62,-52"/>
<text xml:space="preserve" text-anchor="middle" x="376" y="-28.57" font-family="Times,serif" font-size="14.00">jwt_handler</text>
</g>
<!-- users_test_context&#45;&gt;test_admin_user -->
<g id="edge3" class="edge">
<title>users_test_context&#45;&gt;test_admin_user</title>
<path fill="none" stroke="black" d="M268.76,-87.7C268.24,-80.41 267.62,-71.73 267.04,-63.54"/>
<polygon fill="black" stroke="black" points="270.53,-63.34 266.33,-53.61 263.55,-63.84 270.53,-63.34"/>
</g>
<!-- users_test_context&#45;&gt;jwt_handler -->
<g id="edge4" class="edge">
<title>users_test_context&#45;&gt;jwt_handler</title>
<path fill="none" stroke="black" d="M296.47,-87.52C309.73,-78.76 325.96,-68.04 340.3,-58.58"/>
<polygon fill="black" stroke="black" points="342.18,-61.53 348.6,-53.09 338.33,-55.68 342.18,-61.53"/>
</g>
<!-- test_regular_user -->
<g id="node48" class="node">
<title>test_regular_user</title>
<polygon fill="#fff0f5" stroke="#ffb6c1" points="543.5,-52 434.5,-52 434.5,-16 543.5,-16 543.5,-52"/>
<text xml:space="preserve" text-anchor="middle" x="489" y="-28.57" font-family="Times,serif" font-size="14.00">test_regular_user</text>
</g>
<!-- users_test_context&#45;&gt;test_regular_user -->
<g id="edge27" class="edge">
<title>users_test_context&#45;&gt;test_regular_user</title>
<path fill="none" stroke="black" d="M315.26,-87.63C322.5,-84.99 329.93,-82.36 337,-80 365.1,-70.61 396.45,-61.16 423.35,-53.36"/>
<polygon fill="black" stroke="black" points="424.1,-56.78 432.74,-50.65 422.16,-50.06 424.1,-56.78"/>
</g>
<!-- test_regular_user_2 -->
<g id="node49" class="node">
<title>test_regular_user_2</title>
<polygon fill="#fff0f5" stroke="#ffb6c1" points="684.25,-52 561.75,-52 561.75,-16 684.25,-16 684.25,-52"/>
<text xml:space="preserve" text-anchor="middle" x="623" y="-28.57" font-family="Times,serif" font-size="14.00">test_regular_user_2</text>
</g>
<!-- users_test_context&#45;&gt;test_regular_user_2 -->
<g id="edge28" class="edge">
<title>users_test_context&#45;&gt;test_regular_user_2</title>
<path fill="none" stroke="black" d="M312.43,-87.51C320.49,-84.67 328.93,-82 337,-80 427.47,-57.57 455.74,-68.76 550.38,-52.33"/>
<polygon fill="black" stroke="black" points="550.91,-55.79 560.13,-50.58 549.67,-48.9 550.91,-55.79"/>
</g>
<!-- test_redis -->
<g id="node55" class="node">
<title>test_redis</title>
<polygon fill="#fff0f5" stroke="#ffb6c1" points="3268.88,-207.75 3201.12,-207.75 3201.12,-171.75 3268.88,-171.75 3268.88,-207.75"/>
<text xml:space="preserve" text-anchor="middle" x="3235" y="-184.32" font-family="Times,serif" font-size="14.00">test_redis</text>
</g>
<!-- test_redis&#45;&gt;api_with_redis -->
<g id="edge34" class="edge">
<title>test_redis&#45;&gt;api_with_redis</title>
<path fill="none" stroke="black" d="M3259.95,-171.36C3265.64,-168.23 3271.84,-165.43 3278,-163.75 3313.19,-154.15 4556.82,-168.49 4591,-155.75 4604.21,-150.83 4616.44,-141.34 4626.16,-132.04"/>
<polygon fill="black" stroke="black" points="4628.45,-134.71 4632.96,-125.12 4623.46,-129.8 4628.45,-134.71"/>
</g>
</g>
</svg>
