<?xml version="1.0" encoding="UTF-8" standalone="no"?>
<!DOCTYPE svg PUBLIC "-//W3C//DTD SVG 1.1//EN"
 "http://www.w3.org/Graphics/SVG/1.1/DTD/svg11.dtd">
<!-- Generated by graphviz version 14.1.2 (0)
 -->
<!-- Pages: 1 -->
<svg width="467pt" height="319pt"
 viewBox="0.00 0.00 467.00 319.00" xmlns="http://www.w3.org/2000/svg" xmlns:xlink="http://www.w3.org/1999/xlink">
<g id="graph0" class="graph" transform="scale(1 1) rotate(0) translate(4 314.75)">
<polygon fill="white" stroke="none" points="-4,4 -4,-314.75 463,-314.75 463,4 -4,4"/>
<g id="clust1" class="cluster">
<title>cluster_test_session</title>
<polygon fill="#e8f7ff" stroke="#4682b4" points="8,-117.5 8,-193.25 168,-193.25 168,-117.5 8,-117.5"/>
<text xml:space="preserve" text-anchor="middle" x="88" y="-175.95" font-family="Times,serif" font-size="14.00">Test Session</text>
</g>
<g id="clust2" class="cluster">
<title>cluster_infrastructure</title>
<polygon fill="#f0fff0" stroke="#228b22" points="75,-8 75,-83.75 451,-83.75 451,-8 75,-8"/>
<text xml:space="preserve" text-anchor="middle" x="263" y="-66.45" font-family="Times,serif" font-size="14.00">Infrastructure</text>
</g>
<g id="clust3" class="cluster">
<title>cluster_test_execution</title>
<polygon fill="#fff0f0" stroke="#b22222" points="32,-227 32,-302.75 346,-302.75 346,-227 32,-227"/>
<text xml:space="preserve" text-anchor="middle" x="189" y="-285.45" font-family="Times,serif" font-size="14.00">Test Execution</text>
</g>
<!-- TE -->
<g id="node1" class="node">
<title>TE</title>
<polygon fill="none" stroke="black" points="159.75,-161.5 16.25,-161.5 16.25,-125.5 159.75,-125.5 159.75,-161.5"/>
<text xml:space="preserve" text-anchor="middle" x="88" y="-138.07" font-family="Times,serif" font-size="14.00">TestEnvironment Class</text>
</g>
<!-- DB -->
<g id="node2" class="node">
<title>DB</title>
<path fill="none" stroke="black" d="M442.88,-48.73C442.88,-50.53 411.56,-52 373,-52 334.44,-52 303.12,-50.53 303.12,-48.73 303.12,-48.73 303.12,-19.27 303.12,-19.27 303.12,-17.47 334.44,-16 373,-16 411.56,-16 442.88,-17.47 442.88,-19.27 442.88,-19.27 442.88,-48.73 442.88,-48.73"/>
<path fill="none" stroke="black" d="M442.88,-48.73C442.88,-46.92 411.56,-45.45 373,-45.45 334.44,-45.45 303.12,-46.92 303.12,-48.73"/>
<text xml:space="preserve" text-anchor="middle" x="373" y="-28.57" font-family="Times,serif" font-size="14.00">PostgreSQL in Docker</text>
</g>
<!-- TE&#45;&gt;DB -->
<g id="edge1" class="edge">
<title>TE&#45;&gt;DB</title>
<path fill="none" stroke="black" d="M147.15,-125.04C156.13,-122.46 165.3,-119.88 174,-117.5 227.44,-102.89 243.39,-106.29 294,-83.75 309.52,-76.84 325.65,-67.35 339.26,-58.58"/>
<polygon fill="black" stroke="black" points="341,-61.63 347.42,-53.21 337.14,-55.79 341,-61.63"/>
<text xml:space="preserve" text-anchor="middle" x="295.21" y="-94.2" font-family="Times,serif" font-size="14.00">Creates</text>
</g>
<!-- API -->
<g id="node3" class="node">
<title>API</title>
<polygon fill="none" stroke="black" points="182.62,-52 83.38,-52 83.38,-16 182.62,-16 182.62,-52"/>
<text xml:space="preserve" text-anchor="middle" x="133" y="-28.57" font-family="Times,serif" font-size="14.00">FastAPI Server</text>
</g>
<!-- TE&#45;&gt;API -->
<g id="edge2" class="edge">
<title>TE&#45;&gt;API</title>
<path fill="none" stroke="black" d="M87.65,-125.09C87.97,-115.06 89.29,-102.37 93.25,-91.75 97.31,-80.88 103.95,-70.14 110.66,-60.98"/>
<polygon fill="black" stroke="black" points="113.28,-63.31 116.64,-53.26 107.75,-59.02 113.28,-63.31"/>
<text xml:space="preserve" text-anchor="middle" x="108.62" y="-94.2" font-family="Times,serif" font-size="14.00">Starts</text>
</g>
<!-- APP -->
<g id="node4" class="node">
<title>APP</title>
<polygon fill="none" stroke="black" points="285.12,-52 200.88,-52 200.88,-16 285.12,-16 285.12,-52"/>
<text xml:space="preserve" text-anchor="middle" x="243" y="-28.57" font-family="Times,serif" font-size="14.00">Flask Server</text>
</g>
<!-- TE&#45;&gt;APP -->
<g id="edge3" class="edge">
<title>TE&#45;&gt;APP</title>
<path fill="none" stroke="black" d="M123.53,-125.24C144.28,-114.49 170.52,-99.69 192,-83.75 201.34,-76.81 210.78,-68.31 218.94,-60.36"/>
<polygon fill="black" stroke="black" points="221.27,-62.98 225.87,-53.44 216.33,-58.03 221.27,-62.98"/>
<text xml:space="preserve" text-anchor="middle" x="194.1" y="-94.2" font-family="Times,serif" font-size="14.00">Starts</text>
</g>
<!-- TS -->
<g id="node5" class="node">
<title>TS</title>
<polygon fill="none" stroke="black" points="113.88,-271 40.12,-271 40.12,-235 113.88,-235 113.88,-271"/>
<text xml:space="preserve" text-anchor="middle" x="77" y="-247.57" font-family="Times,serif" font-size="14.00">Test Setup</text>
</g>
<!-- TS&#45;&gt;TE -->
<g id="edge4" class="edge">
<title>TS&#45;&gt;TE</title>
<path fill="none" stroke="black" d="M76.55,-234.58C76.48,-224.77 76.68,-212.3 77.75,-201.25 78.65,-191.97 80.25,-181.92 81.93,-172.9"/>
<polygon fill="black" stroke="black" points="85.33,-173.76 83.83,-163.27 78.46,-172.4 85.33,-173.76"/>
<text xml:space="preserve" text-anchor="middle" x="90.88" y="-203.7" font-family="Times,serif" font-size="14.00">Uses</text>
</g>
<!-- TT -->
<g id="node6" class="node">
<title>TT</title>
<polygon fill="none" stroke="black" points="229.88,-271 132.12,-271 132.12,-235 229.88,-235 229.88,-271"/>
<text xml:space="preserve" text-anchor="middle" x="181" y="-247.57" font-family="Times,serif" font-size="14.00">Test Teardown</text>
</g>
<!-- TT&#45;&gt;TE -->
<g id="edge5" class="edge">
<title>TT&#45;&gt;TE</title>
<path fill="none" stroke="black" d="M148.56,-234.59C140.99,-229.57 133.36,-223.63 127.25,-217 115.27,-204 105.71,-186.67 99.03,-172.21"/>
<polygon fill="black" stroke="black" points="102.31,-170.98 95.09,-163.22 95.89,-173.79 102.31,-170.98"/>
<text xml:space="preserve" text-anchor="middle" x="154.62" y="-203.7" font-family="Times,serif" font-size="14.00">Cleans up</text>
</g>
<!-- TR -->
<g id="node7" class="node">
<title>TR</title>
<polygon fill="none" stroke="black" points="337.75,-271 248.25,-271 248.25,-235 337.75,-235 337.75,-271"/>
<text xml:space="preserve" text-anchor="middle" x="293" y="-247.57" font-family="Times,serif" font-size="14.00">Test Running</text>
</g>
<!-- TR&#45;&gt;DB -->
<g id="edge8" class="edge">
<title>TR&#45;&gt;DB</title>
<path fill="none" stroke="black" d="M336.01,-234.73C353.58,-225.28 372.09,-211.67 382,-193.25 404.05,-152.28 393.05,-96.4 383.04,-63.18"/>
<polygon fill="black" stroke="black" points="386.44,-62.33 380.05,-53.87 379.77,-64.47 386.44,-62.33"/>
<text xml:space="preserve" text-anchor="middle" x="415.81" y="-138.07" font-family="Times,serif" font-size="14.00">Queries</text>
</g>
<!-- TR&#45;&gt;API -->
<g id="edge6" class="edge">
<title>TR&#45;&gt;API</title>
<path fill="none" stroke="black" d="M265.71,-234.59C251.05,-224.09 233.61,-209.61 221.75,-193.25 193.31,-154.03 207.02,-133.23 182,-91.75 175.38,-80.77 166.59,-69.84 158.3,-60.54"/>
<polygon fill="black" stroke="black" points="160.96,-58.26 151.6,-53.29 155.82,-63.01 160.96,-58.26"/>
<text xml:space="preserve" text-anchor="middle" x="258.88" y="-138.07" font-family="Times,serif" font-size="14.00">Interacts with</text>
</g>
<!-- TR&#45;&gt;APP -->
<g id="edge7" class="edge">
<title>TR&#45;&gt;APP</title>
<path fill="none" stroke="black" d="M296.63,-234.93C302.22,-204.86 310.49,-140.98 292,-91.75 287.67,-80.21 279.83,-69.44 271.68,-60.45"/>
<polygon fill="black" stroke="black" points="274.4,-58.23 264.92,-53.49 269.38,-63.1 274.4,-58.23"/>
<text xml:space="preserve" text-anchor="middle" x="340.52" y="-138.07" font-family="Times,serif" font-size="14.00">Interacts with</text>
</g>
</g>
</svg>
