<?xml version="1.0" encoding="UTF-8" standalone="no"?>
<!DOCTYPE svg PUBLIC "-//W3C//DTD SVG 1.1//EN"
 "http://www.w3.org/Graphics/SVG/1.1/DTD/svg11.dtd">
<!-- Generated by graphviz version 14.1.2 (0)
 -->
<!-- Pages: 1 -->
<svg width="878pt" height="256pt"
 viewBox="0.00 0.00 878.00 256.00" xmlns="http://www.w3.org/2000/svg" xmlns:xlink="http://www.w3.org/1999/xlink">
<g id="graph0" class="graph" transform="scale(1 1) rotate(0) translate(4 251.5)">
<polygon fill="white" stroke="none" points="-4,4 -4,-251.5 874,-251.5 874,4 -4,4"/>
<g id="clust1" class="cluster">
<title>cluster_test_env</title>
<polygon fill="#e8f7ff" stroke="#4682b4" points="8,-8 8,-155.75 384,-155.75 384,-8 8,-8"/>
<text xml:space="preserve" text-anchor="middle" x="196" y="-138.45" font-family="Times,serif" font-size="14.00">Test Environment</text>
</g>
<g id="clust2" class="cluster">
<title>cluster_test_clients</title>
<polygon fill="#f0fff0" stroke="#228b22" points="536,-80 536,-155.75 777,-155.75 777,-80 536,-80"/>
<text xml:space="preserve" text-anchor="middle" x="656.5" y="-138.45" font-family="Times,serif" font-size="14.00">Test Clients</text>
</g>
<g id="clust3" class="cluster">
<title>cluster_test_data</title>
<polygon fill="#fff0f0" stroke="#b22222" points="392,-80 392,-155.75 528,-155.75 528,-80 392,-80"/>
<text xml:space="preserve" text-anchor="middle" x="460" y="-138.45" font-family="Times,serif" font-size="14.00">Test Data</text>
</g>
<g id="clust4" class="cluster">
<title>cluster_fixtures</title>
<polygon fill="#f8f0ff" stroke="#9932cc" points="174,-163.75 174,-239.5 552,-239.5 552,-163.75 174,-163.75"/>
<text xml:space="preserve" text-anchor="middle" x="363" y="-222.2" font-family="Times,serif" font-size="14.00">Fixtures</text>
</g>
<g id="clust5" class="cluster">
<title>cluster_tests</title>
<polygon fill="#fff8e8" stroke="#ff8c00" points="560,-163.75 560,-239.5 862,-239.5 862,-163.75 560,-163.75"/>
<text xml:space="preserve" text-anchor="middle" x="711" y="-222.2" font-family="Times,serif" font-size="14.00">Tests</text>
</g>
<!-- TE -->
<g id="node1" class="node">
<title>TE</title>
<polygon fill="none" stroke="black" points="300.75,-124 157.25,-124 157.25,-88 300.75,-88 300.75,-124"/>
<text xml:space="preserve" text-anchor="middle" x="229" y="-100.58" font-family="Times,serif" font-size="14.00">TestEnvironment Class</text>
</g>
<!-- DB -->
<g id="node2" class="node">
<title>DB</title>
<path fill="none" stroke="black" d="M155.88,-48.73C155.88,-50.53 124.56,-52 86,-52 47.44,-52 16.12,-50.53 16.12,-48.73 16.12,-48.73 16.12,-19.27 16.12,-19.27 16.12,-17.47 47.44,-16 86,-16 124.56,-16 155.88,-17.47 155.88,-19.27 155.88,-19.27 155.88,-48.73 155.88,-48.73"/>
<path fill="none" stroke="black" d="M155.88,-48.73C155.88,-46.92 124.56,-45.45 86,-45.45 47.44,-45.45 16.12,-46.92 16.12,-48.73"/>
<text xml:space="preserve" text-anchor="middle" x="86" y="-28.57" font-family="Times,serif" font-size="14.00">PostgreSQL in Docker</text>
</g>
<!-- TE&#45;&gt;DB -->
<g id="edge1" class="edge">
<title>TE&#45;&gt;DB</title>
<path fill="none" stroke="black" d="M193.28,-87.52C174.55,-78.34 151.39,-67.01 131.39,-57.22"/>
<polygon fill="black" stroke="black" points="133.14,-54.18 122.62,-52.93 130.06,-60.47 133.14,-54.18"/>
</g>
<!-- API -->
<g id="node3" class="node">
<title>API</title>
<polygon fill="none" stroke="black" points="273.62,-52 174.38,-52 174.38,-16 273.62,-16 273.62,-52"/>
<text xml:space="preserve" text-anchor="middle" x="224" y="-28.57" font-family="Times,serif" font-size="14.00">FastAPI Server</text>
</g>
<!-- TE&#45;&gt;API -->
<g id="edge2" class="edge">
<title>TE&#45;&gt;API</title>
<path fill="none" stroke="black" d="M227.76,-87.7C227.24,-80.41 226.62,-71.73 226.04,-63.54"/>
<polygon fill="black" stroke="black" points="229.53,-63.34 225.33,-53.61 222.55,-63.84 229.53,-63.34"/>
</g>
<!-- APP -->
<g id="node4" class="node">
<title>APP</title>
<polygon fill="none" stroke="black" points="376.12,-52 291.88,-52 291.88,-16 376.12,-16 376.12,-52"/>
<text xml:space="preserve" text-anchor="middle" x="334" y="-28.57" font-family="Times,serif" font-size="14.00">Flask Server</text>
</g>
<!-- TE&#45;&gt;APP -->
<g id="edge3" class="edge">
<title>TE&#45;&gt;APP</title>
<path fill="none" stroke="black" d="M255.23,-87.52C268.35,-78.76 284.43,-68.04 298.64,-58.58"/>
<polygon fill="black" stroke="black" points="300.47,-61.56 306.85,-53.1 296.59,-55.73 300.47,-61.56"/>
</g>
<!-- TC1 -->
<g id="node5" class="node">
<title>TC1</title>
<polygon fill="none" stroke="black" points="647.5,-124 544.5,-124 544.5,-88 647.5,-88 647.5,-124"/>
<text xml:space="preserve" text-anchor="middle" x="596" y="-100.58" font-family="Times,serif" font-size="14.00">API Test Client</text>
</g>
<!-- TC1&#45;&gt;API -->
<g id="edge4" class="edge">
<title>TC1&#45;&gt;API</title>
<path fill="none" stroke="black" d="M555.89,-87.5C548.08,-84.62 539.87,-81.95 532,-80 427.37,-54.15 394.35,-72.45 285.23,-52.2"/>
<polygon fill="black" stroke="black" points="286.04,-48.79 275.56,-50.34 284.71,-55.67 286.04,-48.79"/>
</g>
<!-- TC2 -->
<g id="node6" class="node">
<title>TC2</title>
<polygon fill="none" stroke="black" points="768.88,-124 665.12,-124 665.12,-88 768.88,-88 768.88,-124"/>
<text xml:space="preserve" text-anchor="middle" x="717" y="-100.58" font-family="Times,serif" font-size="14.00">App Test Client</text>
</g>
<!-- TC2&#45;&gt;APP -->
<g id="edge5" class="edge">
<title>TC2&#45;&gt;APP</title>
<path fill="none" stroke="black" d="M679.43,-87.63C672.11,-84.73 664.4,-82.02 657,-80 564.26,-54.67 452.44,-43.14 387.65,-38.25"/>
<polygon fill="black" stroke="black" points="388.24,-34.79 378.02,-37.55 387.74,-41.77 388.24,-34.79"/>
</g>
<!-- TD -->
<g id="node7" class="node">
<title>TD</title>
<polygon fill="none" stroke="black" points="519.75,-124 400.25,-124 400.25,-88 519.75,-88 519.75,-124"/>
<text xml:space="preserve" text-anchor="middle" x="460" y="-100.58" font-family="Times,serif" font-size="14.00">Test Data Modules</text>
</g>
<!-- TD&#45;&gt;DB -->
<g id="edge6" class="edge">
<title>TD&#45;&gt;DB</title>
<path fill="none" stroke="black" d="M414.33,-87.54C405.68,-84.69 396.63,-82.02 388,-80 294.25,-58.09 265.54,-67.96 167.48,-52.3"/>
<polygon fill="black" stroke="black" points="168.08,-48.85 157.64,-50.67 166.94,-55.76 168.08,-48.85"/>
</g>
<!-- F1 -->
<g id="node8" class="node">
<title>F1</title>
<polygon fill="none" stroke="black" points="288,-207.75 182,-207.75 182,-171.75 288,-171.75 288,-207.75"/>
<text xml:space="preserve" text-anchor="middle" x="235" y="-184.32" font-family="Times,serif" font-size="14.00">Session Fixtures</text>
</g>
<!-- F1&#45;&gt;TE -->
<g id="edge7" class="edge">
<title>F1&#45;&gt;TE</title>
<path fill="none" stroke="black" d="M233.73,-171.41C232.96,-161.01 231.97,-147.52 231.1,-135.57"/>
<polygon fill="black" stroke="black" points="234.6,-135.54 230.38,-125.82 227.62,-136.05 234.6,-135.54"/>
</g>
<!-- F2 -->
<g id="node9" class="node">
<title>F2</title>
<polygon fill="none" stroke="black" points="412.38,-207.75 305.62,-207.75 305.62,-171.75 412.38,-171.75 412.38,-207.75"/>
<text xml:space="preserve" text-anchor="middle" x="359" y="-184.32" font-family="Times,serif" font-size="14.00">Module Fixtures</text>
</g>
<!-- F2&#45;&gt;TD -->
<g id="edge8" class="edge">
<title>F2&#45;&gt;TD</title>
<path fill="none" stroke="black" d="M380.42,-171.41C394.75,-159.82 413.81,-144.38 429.69,-131.53"/>
<polygon fill="black" stroke="black" points="431.86,-134.28 437.43,-125.26 427.46,-128.84 431.86,-134.28"/>
</g>
<!-- F3 -->
<g id="node10" class="node">
<title>F3</title>
<polygon fill="none" stroke="black" points="543.75,-207.75 430.25,-207.75 430.25,-171.75 543.75,-171.75 543.75,-207.75"/>
<text xml:space="preserve" text-anchor="middle" x="487" y="-184.32" font-family="Times,serif" font-size="14.00">Function Fixtures</text>
</g>
<!-- F3&#45;&gt;TC1 -->
<g id="edge9" class="edge">
<title>F3&#45;&gt;TC1</title>
<path fill="none" stroke="black" d="M510.88,-171.36C517.72,-166.35 525.17,-160.85 532,-155.75 542.54,-147.88 553.98,-139.2 564.24,-131.37"/>
<polygon fill="black" stroke="black" points="566.24,-134.25 572.07,-125.39 562,-128.68 566.24,-134.25"/>
</g>
<!-- F3&#45;&gt;TC2 -->
<g id="edge10" class="edge">
<title>F3&#45;&gt;TC2</title>
<path fill="none" stroke="black" d="M529.54,-171.33C538.17,-168.36 547.28,-165.64 556,-163.75 600.01,-154.22 615.19,-172.48 657,-155.75 670.3,-150.43 682.94,-141.07 693.16,-131.96"/>
<polygon fill="black" stroke="black" points="695.49,-134.58 700.37,-125.18 690.69,-129.48 695.49,-134.58"/>
</g>
<!-- T1 -->
<g id="node11" class="node">
<title>T1</title>
<polygon fill="none" stroke="black" points="638.38,-207.75 567.62,-207.75 567.62,-171.75 638.38,-171.75 638.38,-207.75"/>
<text xml:space="preserve" text-anchor="middle" x="603" y="-184.32" font-family="Times,serif" font-size="14.00">API Tests</text>
</g>
<!-- T1&#45;&gt;TC1 -->
<g id="edge11" class="edge">
<title>T1&#45;&gt;TC1</title>
<path fill="none" stroke="black" d="M601.52,-171.41C600.62,-161.01 599.47,-147.52 598.45,-135.57"/>
<polygon fill="black" stroke="black" points="601.95,-135.49 597.61,-125.82 594.98,-136.08 601.95,-135.49"/>
</g>
<!-- T2 -->
<g id="node12" class="node">
<title>T2</title>
<polygon fill="none" stroke="black" points="853.75,-207.75 782.25,-207.75 782.25,-171.75 853.75,-171.75 853.75,-207.75"/>
<text xml:space="preserve" text-anchor="middle" x="818" y="-184.32" font-family="Times,serif" font-size="14.00">App Tests</text>
</g>
<!-- T2&#45;&gt;TC2 -->
<g id="edge12" class="edge">
<title>T2&#45;&gt;TC2</title>
<path fill="none" stroke="black" d="M796.58,-171.41C782.25,-159.82 763.19,-144.38 747.31,-131.53"/>
<polygon fill="black" stroke="black" points="749.54,-128.84 739.57,-125.26 745.14,-134.28 749.54,-128.84"/>
</g>
<!-- T3 -->
<g id="node13" class="node">
<title>T3</title>
<polygon fill="none" stroke="black" points="763.75,-207.75 656.25,-207.75 656.25,-171.75 763.75,-171.75 763.75,-207.75"/>
<text xml:space="preserve" text-anchor="middle" x="710" y="-184.32" font-family="Times,serif" font-size="14.00">Integration Tests</text>
</g>
<!-- T3&#45;&gt;TC1 -->
<g id="edge13" class="edge">
<title>T3&#45;&gt;TC1</title>
<path fill="none" stroke="black" d="M679.83,-171.29C671.94,-166.46 663.54,-161.08 656,-155.75 645.54,-148.35 634.53,-139.69 624.84,-131.74"/>
<polygon fill="black" stroke="black" points="627.11,-129.07 617.18,-125.36 622.63,-134.45 627.11,-129.07"/>
</g>
<!-- T3&#45;&gt;TC2 -->
<g id="edge14" class="edge">
<title>T3&#45;&gt;TC2</title>
<path fill="none" stroke="black" d="M711.48,-171.41C712.38,-161.01 713.53,-147.52 714.55,-135.57"/>
<polygon fill="black" stroke="black" points="718.02,-136.08 715.39,-125.82 711.05,-135.49 718.02,-136.08"/>
</g>
</g>
</svg>
