<?xml version="1.0" encoding="UTF-8" standalone="no"?>
<!DOCTYPE svg PUBLIC "-//W3C//DTD SVG 1.1//EN"
 "http://www.w3.org/Graphics/SVG/1.1/DTD/svg11.dtd">
<!-- Generated by graphviz version 14.1.2 (0)
 -->
<!-- Pages: 1 -->
<svg width="1039pt" height="300pt"
 viewBox="0.00 0.00 1039.00 300.00" xmlns="http://www.w3.org/2000/svg" xmlns:xlink="http://www.w3.org/1999/xlink">
<g id="graph0" class="graph" transform="scale(1 1) rotate(0) translate(4 296.3)">
<polygon fill="white" stroke="none" points="-4,4 -4,-296.3 1034.75,-296.3 1034.75,4 -4,4"/>
<!-- PyTest -->
<g id="node1" class="node">
<title>PyTest</title>
<polygon fill="none" stroke="black" points="54.25,-292.3 0,-292.3 0,-256.3 54.25,-256.3 54.25,-292.3"/>
<text xml:space="preserve" text-anchor="middle" x="27.12" y="-268.87" font-family="Times,serif" font-size="14.00">PyTest</text>
</g>
<!-- TE -->
<g id="node2" class="node">
<title>TE</title>
<polygon fill="none" stroke="black" points="322.25,-292.3 212.5,-292.3 212.5,-256.3 322.25,-256.3 322.25,-292.3"/>
<text xml:space="preserve" text-anchor="middle" x="267.38" y="-268.87" font-family="Times,serif" font-size="14.00">TestEnvironment</text>
</g>
<!-- PyTest&#45;&gt;TE -->
<!-- PyTest&#45;&gt;TE -->
<g id="edge6" class="edge">
<title>PyTest&#45;&gt;TE</title>
<path fill="none" stroke="blue" d="M54.35,-263.64C60.15,-261.73 66.33,-260.04 72.25,-259.05 125.83,-250.05 140.46,-253.38 194.5,-259.05 196.64,-259.27 198.81,-259.53 201,-259.82"/>
<polygon fill="blue" stroke="blue" points="210.81,-261.33 200.25,-264.26 207.07,-260.76 200.93,-259.81 200.93,-259.81 200.93,-259.81 207.07,-260.76 201.61,-255.36 210.81,-261.33"/>
<text xml:space="preserve" text-anchor="middle" x="133.38" y="-260.8" font-family="Times,serif" font-size="10.00">setup_test_environment fixture</text>
</g>
<!-- TE&#45;&gt;PyTest -->
<g id="edge18" class="edge">
<title>TE&#45;&gt;PyTest</title>
<path fill="none" stroke="green" stroke-dasharray="5,2" d="M227.54,-250.59C217.17,-245.43 205.72,-240.71 194.5,-238.05 141.64,-225.47 123.4,-219.73 72.25,-238.05 61.98,-241.72 52.39,-248.93 44.79,-255.96"/>
<polygon fill="green" stroke="green" points="225.68,-253.57 236.16,-255.14 228.95,-247.38 225.68,-253.57"/>
<text xml:space="preserve" text-anchor="middle" x="133.38" y="-239.8" font-family="Times,serif" font-size="10.00">Environment ready</text>
</g>
<!-- Docker -->
<g id="node3" class="node">
<title>Docker</title>
<polygon fill="none" stroke="black" points="551.5,-292.3 495.75,-292.3 495.75,-256.3 551.5,-256.3 551.5,-292.3"/>
<text xml:space="preserve" text-anchor="middle" x="523.62" y="-268.87" font-family="Times,serif" font-size="14.00">Docker</text>
</g>
<!-- TE&#45;&gt;Docker -->
<!-- TE&#45;&gt;Docker -->
<g id="edge7" class="edge">
<title>TE&#45;&gt;Docker</title>
<path fill="none" stroke="blue" d="M322.73,-261.51C328.62,-260.5 334.54,-259.64 340.25,-259.05 391.3,-253.69 404.74,-253.3 455.75,-259.05 465.28,-260.12 475.42,-262.02 484.86,-264.13"/>
<polygon fill="blue" stroke="blue" points="494.35,-266.38 483.58,-268.45 490.67,-265.51 484.62,-264.08 484.62,-264.08 484.62,-264.08 490.67,-265.51 485.65,-259.7 494.35,-266.38"/>
<text xml:space="preserve" text-anchor="middle" x="398" y="-260.8" font-family="Times,serif" font-size="10.00">Create PostgreSQL container</text>
</g>
<!-- TE&#45;&gt;Docker -->
<g id="edge9" class="edge">
<title>TE&#45;&gt;Docker</title>
<path fill="none" stroke="blue" d="M299.12,-255.95C311.46,-249.58 326.09,-243.25 340.25,-240.05 390.32,-228.73 405.85,-228.01 455.75,-240.05 465.9,-242.49 476.24,-246.76 485.66,-251.47"/>
<polygon fill="blue" stroke="blue" points="494.39,-256.11 483.45,-255.39 491.06,-254.34 485.56,-251.42 485.56,-251.42 485.56,-251.42 491.06,-254.34 487.68,-247.44 494.39,-256.11"/>
<text xml:space="preserve" text-anchor="middle" x="398" y="-241.8" font-family="Times,serif" font-size="10.00">Start container</text>
</g>
<!-- DB -->
<g id="node4" class="node">
<title>DB</title>
<polygon fill="none" stroke="black" points="773.25,-292.3 691.25,-292.3 691.25,-256.3 773.25,-256.3 773.25,-292.3"/>
<text xml:space="preserve" text-anchor="middle" x="732.25" y="-268.87" font-family="Times,serif" font-size="14.00">PostgreSQL</text>
</g>
<!-- TE&#45;&gt;DB -->
<g id="edge12" class="edge">
<title>TE&#45;&gt;DB</title>
<path fill="none" stroke="blue" d="M289.35,-255.85C302.87,-245.24 321.39,-232.92 340.25,-227.3 380.21,-215.39 617.77,-210.01 673.25,-229.3 679.76,-231.56 691.11,-239.93 702.06,-248.86"/>
<polygon fill="blue" stroke="blue" points="709.71,-255.24 699.15,-252.29 706.81,-252.82 702.03,-248.84 702.03,-248.84 702.03,-248.84 706.81,-252.82 704.92,-245.38 709.71,-255.24"/>
<text xml:space="preserve" text-anchor="middle" x="523.62" y="-219.31" font-family="Times,serif" font-size="10.00">Create database schemas</text>
</g>
<!-- API -->
<g id="node5" class="node">
<title>API</title>
<polygon fill="none" stroke="black" points="909.5,-292.3 810.25,-292.3 810.25,-256.3 909.5,-256.3 909.5,-292.3"/>
<text xml:space="preserve" text-anchor="middle" x="859.88" y="-268.87" font-family="Times,serif" font-size="14.00">FastAPI Server</text>
</g>
<!-- TE&#45;&gt;API -->
<g id="edge14" class="edge">
<title>TE&#45;&gt;API</title>
<path fill="none" stroke="blue" d="M283.64,-255.88C296.91,-241.37 317.53,-222.17 340.25,-213.3 478.18,-159.44 527.66,-176.06 673.25,-203.05 722.73,-212.22 776.06,-234.05 812.8,-251.15"/>
<polygon fill="blue" stroke="blue" points="821.61,-255.31 810.64,-255.11 818.19,-253.7 812.57,-251.04 812.57,-251.04 812.57,-251.04 818.19,-253.7 814.49,-246.97 821.61,-255.31"/>
<text xml:space="preserve" text-anchor="middle" x="632.38" y="-204.8" font-family="Times,serif" font-size="10.00">Start FastAPI server</text>
</g>
<!-- APP -->
<g id="node6" class="node">
<title>APP</title>
<polygon fill="none" stroke="black" points="1030.75,-292.3 946.5,-292.3 946.5,-256.3 1030.75,-256.3 1030.75,-292.3"/>
<text xml:space="preserve" text-anchor="middle" x="988.62" y="-268.87" font-family="Times,serif" font-size="14.00">Flask Server</text>
</g>
<!-- TE&#45;&gt;APP -->
<g id="edge16" class="edge">
<title>TE&#45;&gt;APP</title>
<path fill="none" stroke="blue" d="M275.81,-255.98C286.3,-232.85 307.86,-194.06 340.25,-177.3 511.24,-88.76 585.66,-148.62 773.25,-192.05 832.27,-205.71 896.76,-232.13 939.43,-251.36"/>
<polygon fill="blue" stroke="blue" points="948.42,-255.45 937.45,-255.4 944.98,-253.88 939.32,-251.3 939.32,-251.3 939.32,-251.3 944.98,-253.88 941.18,-247.21 948.42,-255.45"/>
<text xml:space="preserve" text-anchor="middle" x="732.25" y="-193.8" font-family="Times,serif" font-size="10.00">Start Flask server</text>
</g>
<!-- Docker&#45;&gt;TE -->
<g id="edge8" class="edge">
<title>Docker&#45;&gt;TE</title>
<path fill="none" stroke="green" stroke-dasharray="5,2" d="M486.11,-254.7C481.48,-251.05 477.18,-246.91 473.75,-242.3 456.84,-219.51 478.47,-198.05 455.75,-181.05 414.65,-150.29 386.31,-158.39 340.25,-181.05 308.52,-196.65 286.85,-233.75 276.14,-256.17"/>
<polygon fill="green" stroke="green" points="483.81,-257.37 494.01,-260.24 487.83,-251.64 483.81,-257.37"/>
<text xml:space="preserve" text-anchor="middle" x="398" y="-182.8" font-family="Times,serif" font-size="10.00">Container created</text>
</g>
<!-- Docker&#45;&gt;DB -->
<!-- Docker&#45;&gt;DB -->
<g id="edge10" class="edge">
<title>Docker&#45;&gt;DB</title>
<path fill="none" stroke="blue" d="M551.72,-266.66C563.79,-263.64 578.25,-260.54 591.5,-259.05 627.61,-254.98 637.22,-254.39 673.25,-259.05 675.51,-259.34 677.8,-259.69 680.12,-260.09"/>
<polygon fill="blue" stroke="blue" points="689.76,-262.04 679.06,-264.47 686.05,-261.29 679.95,-260.06 679.95,-260.06 679.95,-260.06 686.05,-261.29 680.85,-255.65 689.76,-262.04"/>
<text xml:space="preserve" text-anchor="middle" x="632.38" y="-260.8" font-family="Times,serif" font-size="10.00">Start PostgreSQL</text>
</g>
<!-- DB&#45;&gt;TE -->
<g id="edge13" class="edge">
<title>DB&#45;&gt;TE</title>
<path fill="none" stroke="green" stroke-dasharray="5,2" d="M716.08,-246.08C708.06,-230.5 698.42,-210.63 691.25,-192.3 681.11,-166.37 695.59,-148.91 673.25,-132.3 554.18,-43.7 466.03,-78.52 340.25,-157.3 303.68,-180.2 282.89,-229.2 273.85,-255.95"/>
<polygon fill="green" stroke="green" points="712.89,-247.53 720.62,-254.77 719.09,-244.29 712.89,-247.53"/>
<text xml:space="preserve" text-anchor="middle" x="523.62" y="-91.76" font-family="Times,serif" font-size="10.00">Schemas created</text>
</g>
<!-- DB&#45;&gt;Docker -->
<g id="edge11" class="edge">
<title>DB&#45;&gt;Docker</title>
<path fill="none" stroke="green" stroke-dasharray="5,2" d="M696.86,-250C689.4,-245.89 681.32,-242.25 673.25,-240.05 638.2,-230.47 626.82,-231.53 591.5,-240.05 577.68,-243.38 563.5,-250.08 551.78,-256.68"/>
<polygon fill="green" stroke="green" points="694.91,-252.91 705.3,-255.03 698.5,-246.9 694.91,-252.91"/>
<text xml:space="preserve" text-anchor="middle" x="632.38" y="-241.8" font-family="Times,serif" font-size="10.00">Started</text>
</g>
<!-- DB&#45;&gt;API -->
<!-- API&#45;&gt;TE -->
<g id="edge15" class="edge">
<title>API&#45;&gt;TE</title>
<path fill="none" stroke="green" stroke-dasharray="5,2" d="M841.68,-246.16C825.6,-220.99 800.11,-183.78 773.25,-155.3 733.96,-113.63 727.22,-93.21 673.25,-74.05 533.55,-24.45 457.39,-2.44 340.25,-93.3 287.89,-133.91 273.57,-218.43 269.74,-255.82"/>
<polygon fill="green" stroke="green" points="838.66,-247.95 846.95,-254.55 844.59,-244.22 838.66,-247.95"/>
<text xml:space="preserve" text-anchor="middle" x="632.38" y="-75.8" font-family="Times,serif" font-size="10.00">Server started</text>
</g>
<!-- API&#45;&gt;APP -->
<!-- APP&#45;&gt;TE -->
<g id="edge17" class="edge">
<title>APP&#45;&gt;TE</title>
<path fill="none" stroke="green" stroke-dasharray="5,2" d="M967.52,-246.66C933.07,-201.46 858.23,-112.15 773.25,-66.05 693.76,-22.92 663.65,-34.48 573.5,-27.3 470.15,-19.06 422.37,31.99 340.25,-31.3 303.75,-59.43 278.85,-204.25 271.01,-255.94"/>
<polygon fill="green" stroke="green" points="964.72,-248.76 973.52,-254.65 970.31,-244.56 964.72,-248.76"/>
<text xml:space="preserve" text-anchor="middle" x="732.25" y="-67.8" font-family="Times,serif" font-size="10.00">Server started</text>
</g>
</g>
</svg>
